<?xml version="1.0" encoding="utf-8"?>
<!-- Generator: Adobe Illustrator 22.0.1, SVG Export Plug-In . SVG Version: 6.00 Build 0)  -->
<svg version="1.1" id="Capa_1" xmlns="http://www.w3.org/2000/svg" xmlns:xlink="http://www.w3.org/1999/xlink" x="0px" y="0px"
	 viewBox="0 0 1000 1000" style="enable-background:new 0 0 1000 1000;" xml:space="preserve">
<style type="text/css">
	.st0{fill:#FFFFFF;}
	.st1{fill:none;}
	.st2{fill:#211915;}
</style>
<g>
	<path class="st2" d="M548.4,867.2c-0.2,0-0.3,0-0.3,0C548.7,867.2,548.4,867.2,548.4,867.2z"/>
	<path class="st2" d="M554.5,866.5L554.5,866.5c0.2,0,0.5-0.1,0.8-0.2L554.5,866.5z"/>
	<path class="st2" d="M560.2,865.8c-0.7-0.5-2,0.4-3.1,0.3l-0.2-0.1l-0.4,0.4C557.7,866.2,559.3,865.7,560.2,865.8z"/>
	<path class="st2" d="M563.6,866.9c-0.3-0.3,0.6-0.3-0.7,0c0.1,0,0.1,0,0.1,0.1C563.1,866.9,563.3,866.9,563.6,866.9z"/>
	<path class="st2" d="M563,866.9C562.4,866.9,563.4,867.1,563,866.9L563,866.9z"/>
	<path class="st2" d="M565.7,866.5l-0.7,0.3c0.2,0.2,0.9,0.1,0.7,0.3C566.5,866.9,566.3,866.8,565.7,866.5z"/>
	<path class="st2" d="M566.4,865.9L566,866C566.1,866.1,566.2,866.1,566.4,865.9z"/>
	<path class="st2" d="M565.2,866.4l0.8-0.3c-0.1-0.1-0.2-0.4-0.4,0.1C565.6,865.9,565.5,866.2,565.2,866.4z"/>
	<path class="st2" d="M564.6,866.3c-0.5-0.1-1.1-0.2-0.3-0.5C562.8,866.1,563.1,866.5,564.6,866.3z"/>
	<path class="st2" d="M560.3,865.1l-0.6-0.1l-0.5,0.3C559.5,865.2,560.4,865.3,560.3,865.1z"/>
	<path class="st2" d="M570.8,866.4c0-0.2-0.4-0.5-0.5-0.8l-0.5,0.3C570.1,866.1,570.7,866.1,570.8,866.4z"/>
	<path class="st2" d="M570.3,865.7l0.8-0.5C570.3,865.3,570.2,865.5,570.3,865.7z"/>
	<path class="st2" d="M566.3,864.9c-0.4,0.3-0.8,0.6-1.3,0.8c0.5-0.3,1-0.6,1.6-0.9L566.3,864.9z"/>
	<polygon class="st2" points="574.3,866.1 573.9,866.7 574.6,865.8 	"/>
	<path class="st2" d="M576.5,865.8c-0.2,0.5,0.7,0.7,0.4,1.1c0.6-0.1,1-0.6,1.4-1C577.8,866.1,577.3,866.1,576.5,865.8z"/>
	<path class="st2" d="M578.9,865.2c-0.2,0.1-0.4,0.4-0.6,0.6C578.5,865.7,578.7,865.5,578.9,865.2z"/>
	<path class="st2" d="M572.6,865.1c0.1,0.1,0.3,0.4,0.9,0.5l-0.5-0.6C572.9,865.1,572.7,865.1,572.6,865.1z"/>
	<path class="st2" d="M573,865.1L573,865.1c0.4,0,0.7,0,0.8-0.1C573.6,865,573.4,865,573,865.1z"/>
	<path class="st2" d="M572.5,865.1C572.6,865.1,572.6,865.1,572.5,865.1C572.6,865.1,572.5,865,572.5,865.1z"/>
	<path class="st2" d="M568.7,865c0.4-0.4,1.4-0.9,0.3-1.2C568.7,864.3,569.3,864.4,568.7,865z"/>
	<path class="st2" d="M571.9,864.4l-1,0c0.1,0.1,0.3,0.3,0.1,0.5L571.9,864.4z"/>
	<polygon class="st2" points="572.3,864.2 571.9,864.4 572.3,864.4 	"/>
	<path class="st2" d="M577.1,864.7c0.3-0.4,0.8-0.5,1.2-0.6c-0.6-0.1-1.1,0-1.7,0C576.7,864.4,576.5,864.8,577.1,864.7z"/>
	<path class="st2" d="M575.1,864.8C575.1,864.8,575.1,864.8,575.1,864.8C575.1,864.7,575,864.7,575.1,864.8z"/>
	<polygon class="st2" points="583.2,863.2 583.1,863.1 583.1,863.2 	"/>
	<path class="st2" d="M576.6,864.1c-0.4-0.1-0.6,0.1-0.8,0.4c0.3-0.1,0.6-0.2,0.9-0.3C576.7,864.1,576.7,864,576.6,864.1z"/>
	<path class="st2" d="M580.2,864.6c-0.3-0.1-0.5-0.2-0.8-0.3C579.6,864.5,580.2,864.8,580.2,864.6z"/>
	<path class="st2" d="M575.3,864.9C575.3,864.9,575.3,865,575.3,864.9C575.5,865.1,575.4,865,575.3,864.9z"/>
	<path class="st2" d="M575.3,864.9c0.2-0.1,0.3-0.3,0.4-0.5c-0.2,0.1-0.4,0.2-0.6,0.3C575.2,864.8,575.3,864.9,575.3,864.9z"/>
	<path class="st2" d="M583.1,857.6c0.2,0.8-0.6,1.8-1.7,1.3c-0.7,0.8,0.6,3,1.7,4.2c-0.1-0.3-0.2-0.6,0.6-1.3
		c-0.4-0.3-2.3-0.5-1.7-1.3c1.1-0.7,1,0,1.7,0.3c-0.8-0.8,1.1-1.8,0.4-3.2l-0.9,0.8C583.2,858.2,583.4,857.8,583.1,857.6z"/>
	<path class="st2" d="M581.3,863.4l-0.3,0.2c0.5,0,0.9,0.3,1.6,0.7c0.5-0.5,0.6-0.8,0.5-1l-1.9,0.3L581.3,863.4z"/>
	<path class="st2" d="M579.3,863.9c0.1-0.8,0.9-1.3,0.1-2c-1.1,0.3-0.6,0.8-1.2,1.2C580,862.6,577.9,863.6,579.3,863.9
		c-0.4,0.1-0.7,0.2-1,0.3c0.3,0,0.7,0.1,1,0.2c0,0,0,0-0.1,0l0,0l0,0c-0.1-0.1-0.1-0.1,0-0.1c0,0,0,0,0,0
		C579.3,864.1,579.3,864,579.3,863.9c0.6,0.1,0.1,0.2,0,0.3c0,0,0,0.1,0,0.1l0,0c0.6-0.2,1.1-0.4,1.7-0.7
		C580.6,863.5,580.1,863.7,579.3,863.9z"/>
	<path class="st2" d="M569.5,862.4c0.1,0,0.1,0.1,0.1,0.1C569.7,862.4,569.8,862.4,569.5,862.4z"/>
	<path class="st2" d="M570.4,862.6c-0.1,0.1-0.2,0.4-0.6,0.4c-0.4-0.1-0.1-0.3-0.1-0.5c-0.2,0.2-0.8,0.6,0.1,0.7l0.1-0.1
		c0.8,0,1.9,0.6,1.8,0.7C571.2,863.3,571,863,570.4,862.6z"/>
	<path class="st2" d="M574.8,862.9l1.4-0.6l-0.9-0.4l0.1,0.3C574.5,862.2,574.8,862.6,574.8,862.9z"/>
	<polygon class="st2" points="583.5,863.6 583.6,864.5 584.1,863.1 	"/>
	<polygon class="st2" points="585.4,863.1 585.6,863.9 585.9,863.3 	"/>
	<path class="st2" d="M677.4,804.5l0.1-0.6C677.4,804.2,677.4,804.4,677.4,804.5z"/>
	<path class="st2" d="M674.8,806.1l0.3,0.6C675,806.4,674.9,806.1,674.8,806.1z"/>
	<path class="st2" d="M631.7,849c1.1,0.9,2.6,2.4,1.9,1l-0.8-1.2C632.5,849.2,632.1,849.2,631.7,849z"/>
	<path class="st2" d="M657.2,826.5c-0.1-0.1-0.3-0.2-0.4-0.3c0.1,0.5,0.3,1.1,0.4,1.5C657.1,827.3,657.1,826.9,657.2,826.5z"/>
	<path class="st2" d="M654.3,820.6l1.2,0.5C655.2,820.8,654.8,820.6,654.3,820.6z"/>
	<path class="st2" d="M690.6,793.9l-0.5-1.5C689.5,792.9,690.2,793.3,690.6,793.9z"/>
	<path class="st2" d="M604.9,858c0.7,0.3,1.2,0.3,1.6,0.3C605.6,857.8,604.7,857,604.9,858z"/>
	<path class="st2" d="M685.5,818.9c0.1-0.4,0-0.7-0.2-1C685.2,818.3,685.3,818.6,685.5,818.9z"/>
	<path class="st2" d="M608,857.8c-0.1-0.1-0.3-0.1-0.4-0.2c-0.3,0.3-0.7,0.6-1.2,0.6C607.1,858.6,607.8,858.7,608,857.8z"/>
	<path class="st2" d="M740.7,757.8c0.1,0,0.1,0,0.2,0C740.9,757.7,740.8,757.7,740.7,757.8z"/>
	<path class="st2" d="M756.2,747.3c-0.1,0.2-0.3,0.4-0.4,0.6C755.9,747.8,756,747.6,756.2,747.3z"/>
	<path class="st2" d="M593.3,861.9C592.9,862,593.3,862,593.3,861.9L593.3,861.9z"/>
	<path class="st2" d="M590.1,858.6c0.1-0.1,0.1-0.3,0-0.5C590.2,858.3,590.2,858.5,590.1,858.6z"/>
	<path class="st2" d="M609.2,849.3C609.2,849.3,609.3,849.3,609.2,849.3C609.1,849.1,609.1,849.2,609.2,849.3z"/>
	<path class="st2" d="M592.5,861.6c0.2,0.1,0.4,0.1,0.6,0.2C593,861.7,592.9,861.6,592.5,861.6z"/>
	<path class="st2" d="M592.8,862c-0.2,0-0.3,0-0.4,0C592.4,862.2,592.5,862.3,592.8,862z"/>
	<path class="st2" d="M593.9,861.7c-0.2,0.1-0.5,0.1-0.7,0c0.1,0,0.2,0.1,0.1,0.1C593.4,861.8,593.6,861.8,593.9,861.7z"/>
	<path class="st2" d="M716.6,780.7c0,0,0.1,0,0.1,0C716.8,780.1,716.7,780.3,716.6,780.7z"/>
	<path class="st2" d="M634.9,830.7C634.9,830.7,634.9,830.7,634.9,830.7c0,0.1,0,0.1,0.1,0.1L634.9,830.7z"/>
	<path class="st2" d="M635.7,829c0.3,2-0.1,1.9-0.7,1.8l2.3,3.7L635.7,829z"/>
	<path class="st2" d="M683.4,800.1l-1.6-0.6c-0.3-2.5,0.9-2.3-1-3.4c2.6,4-3,2.5-0.4,6.5l-1.1-0.5c0.2-0.1,0.1-0.3,0.2-0.4
		c-2.4-1.2,1.1,3.4-0.6,3.8c-0.7,0-1.4-0.3-1.4-1l-0.4,1.7c-0.4,0.1-0.8-0.6-0.4-0.8l-1.4,1.4l-0.1-0.1c0.2,0.8,0.3,2.1,0.3,2.7
		c-0.8-0.3-0.1-0.6-0.5-1l-0.3,1.6c-1.1-0.8-1-2.3-0.2-2.6c-3.5-3.5-0.1,1.5-3.5,0.3l0.5-1.1c-2.1-2-2.2-0.7-4.1-1.6
		c0.7,0.6,4.3,2.5,4,4.1c-0.5-0.1-1-0.1-1,1.1c-0.9-1.5-1.2-0.8-1.9-0.3l-1.2-2c-0.4,1,0.3,2,0.5,3.1c-0.9,0.3-2-1.1-3-2.3
		c-1.5,0.5,2.4,1.9,1.1,3.2c-1.5-0.1-1.8,1.2-2.4,3.2c-1.2-0.2-0.6-1.3-1.2-1.7l0.3,2c-0.2,0.1-0.4-0.5-0.5-0.7
		c-0.2,1,1.2,2,0.6,3.1c1.1,2.4-3.8-2.2-3.4,1c-0.6-0.4-0.6-1.3-1.1-2c-0.6,2.5-0.6,1.9-0.6,4.9l-1.8-0.7c1.7,1.1,1.7,3.4,1.6,5.4
		c0.7,0.6,1.3,1.1,1.6,1.3l-0.8,1.9c-0.4-0.2-0.6-1-0.8-2c0,0.2,0,0.4,0,0.6c-0.9-0.5-1.3-1.8-1.6-3.1c0.4,0.3,0.8,0.6,1.2,1
		c-0.3-1.4-0.8-3-1.5-4.1c0,0.3,0,0.6-0.2,0.8c-0.1-0.4-0.2-0.7-0.4-0.9c-0.2-0.2-0.1,0.3,0,1l-1.6-2.1l0.4,0.9l-2.6-0.4
		c-0.1,3,0.7,7.1-1,9.1c-0.3-1.9-1.3-2.8-2.4-4.8c1.7,1.8,1.2-1.7,2.5-2c-0.7,0.1-1.1-0.9-1.1-1.3c-0.3,1-0.6,2-0.9,3
		c-0.8-1.6-1.1-1-1.9-1.4c2.1,3-0.3,2.9-0.6,4.3c-0.6-1-1-2.2,0.1-2.5c-2.3-1.8,0.6,4.5-1.6,3c0.2-0.2,0.4-0.1,0.3-0.6
		c-0.1,1.2-1.8,1.2-2,0.1l0.2-0.1c-1.8,0.5-4.8,2.5-3.7,5.3c-0.2-0.3-1.4-3.3-1.6-3.9c0.5,3.5,1.1,7,1.5,10.5
		c-0.9-2.4-4.5-7.4-3.8-9.3c-0.5-0.1-1.2-0.3-1.6,0.9c0.4,0.2,2.2,3,2,3.4c-2.2-2.1-1.3-1-3.6-2.6c0.6,0.3,1.9,4.1,1.2,4.3
		c-0.2-0.6-1.7-3.5-1.7-4l0.1,4.2c0.1-0.8-1.3-3-2.1-3.8c0.5,0.6-1.4,0.6-1.6,1.1l1,0.5c-2,0.3,0.5,5.7-1.4,6.3
		c-0.1-0.8-1.4-4.6-2.5-4.6c0.4,2,1.9,9.2,0.9,11.2l-0.7-0.9l-0.8,1.6c-0.3-2.8-0.6-9.3-0.4-12c-1-0.5-0.7-1.1-1.6-0.5
		c-0.7-0.8-0.1-1.7,0.2-1.9l-2.5,0.6c1,2-0.9,2.8-0.1,4.4c0.5-1.1,1.1-2.1,1.6-3.2c0.5,1,0.8,2.6,0.7,4c-0.1,1.4-0.6,2.6-1.5,2.7
		c-0.8-0.6-1.2-3.7-1.5-4.3c0.1,0.8-1,2-1.3,1.6l0.2-1.4c-1.2-0.3-0.4,3.3-2.3,1.9c-0.4,0-2.1-2-1.7-0.8c1.5,1.9,4.5,8.7,4.7,10.5
		c-0.2-0.1-2.9-1.3-3.8-2.2c-1.3-1.4-0.7-4.5-1.8-5.7c0.2,0.5,0.1,1.3,0,1.6c-0.6-0.3-0.5-1.7-1.2-1.1c0.6,2-1.8,0.6,0.2,1.8
		c-0.6,0.9-1.1,0-2,0.5c0.8,1.1,0.7,4.5,0,5.4c-0.1-0.5-0.6-1-0.8-1.3c-1.9,0.5-3.1,0-4.8,0.6c-0.3-0.4-1.3-0.6-1.2-1.5
		c-0.1,0.4-0.1,1.1-0.6,1.3c-1.5-1.1,1.1-0.7-0.4-2.2c0.3,1.1-0.8,1.9-1.3,2.8c0.8,1.5,1.8-0.3,2.3-1.3c0.8,2.2,0.4,4.9-1.1,6.5
		c-1.2,1-1.1-1.2-1.2-0.8c-2.8,0.5-1,4.3-3.8,3.5c-1.3-1-0.9-2.5-1.4-3.4c1-0.9,2,0.2,2.8-0.1l-1.2-0.3c0.2-0.6,0.9-1.2,1.4-0.9
		c-1.1-0.9-4.5,1.4-6.9,1c-0.2,0.5-0.7,1.1-0.3,1.5l0.6-0.4c0.9,0.8-0.8,1.7,0.2,1.9c-0.7,0.9-1.3,2.2-2.8,2l-0.6-1.2
		c0.1,0.4,1.1,0.6,1.3,0.1c-0.3,0.7-2.5-1.2-2.5,0.6l1.2,0.6c-0.7,0.9-1.4,2.5-2.7,2.3c0.9,1.1,0.2-0.2,1.5,1.1
		c-1.3-1.6,2.9-0.5,1.2-2.2c1.4,1.5,1.7,0.4,3.2,1.7c-0.2-0.4-0.7-0.8,0.4-0.7c0-0.1,0.1-0.3,0.1-0.4c0,0,0,0,0.1,0c0,0,0,0-0.1,0
		c0-0.1,0-0.1,0,0c-0.3-0.1-0.6-0.3-0.7-0.6c0.1-1.1,1.7-1.5,2-2.1c0.6,0.1-0.1,0.6,0.4,1l0.5-1c0.4,1,2.1,1.4,0.9,2.3
		c0.4-0.1,0.8-0.1,1.2-0.2c0.9,0.4,2,0.4,2.4-0.2c0.6,0.1,1-1.6,0.8-0.6l1.6-1.2l0.1,0.3c1.9-0.3,3.1-3,5.9-1.5c0.5-0.5,1-1,2.2-1
		l0.6,1c0.3-0.3,1-0.2,1.6-0.2c0.6,0,1.1-0.1,1.1-0.7c2,2.6,4.1-0.6,5.7-0.6l-0.5-1.5c1-0.2,1.7-1,2.6-2l-0.6-1.3
		c0.6-1.4,3,0,4.5-0.7c0.1,0.5-0.4,0.6-0.8,0.4c1.6,1.1,2.4,0.3,3.1-0.8c0.7-1,1.3-2.2,2.6-1.4c0.2-0.7,0.6-0.6,1-0.4
		c0,0-0.1,0.1-0.1,0.1c0.1,0,0.1,0,0.2-0.1c0.3,0.2,0.6,0.3,0.9,0.5c-0.3-0.3-0.6-0.5-0.8-0.5c0.3-0.2,0.7-0.5,1.1-1.1l0.9,1.4
		c0,0,0.1,0,0.1-0.1c0.7,0.3,0.1-0.9-0.7-1.9c0.1-0.3,0.2-0.7,0.2-1.2c1.5,2.2,0.9-1.3,2.6,1c-0.3-1.4,2-2,1-4.7
		c0.2,0.3,0.4,0.4,0.2,0.6c0.7,0.1,1.3,0.1,1.5-0.8l1.1,1.8l-0.1-3.1c1.3,0.9,1.9,1.4,1.9,3.2c0.6-3.1,0.9-1.5,1.2-4.5l0.5,1.3
		c0.5-0.3,0.4-2.4,1.3-1.5c2.3,1.8,5.7-2.4,9.8-1.6c-2.5-3.4,2.2,1,0.8-1.9c0.6,0.8,1.3,1.1,1.3,2.1c1-1.7,2.9,0.2,2.6-2.8
		c0.7,0.8,0.4,1.5,0.8,1.9c0-0.3,0-1,0.5-0.6c0.4,0.4,0.2,0.9,0.2,1.4c1.4-1,0.1-3.8-1.3-6.3c1.4,0.8,1.7,0.4,1.3-1.6
		c0.7,0.7,1.6,1.3,0.9,2.1c0.6-0.2,3.8-0.5,2.7-2.6c0.5,0.4,0.8-0.3,0.8-0.6c1.2-0.5,1.4-0.4,2.4-1.2l-0.5-0.2
		c-1-2.7,0.6-1.1,1.3-1.9l0.1,0.3c3.1,0.5,0.4-1.4,3.6-0.6l-1-1.4c-1.8-3.3,2.9,0.8,3.3-1.2l-0.9-0.6c-0.1-1.5,4.5,3.2,5.3,3.2
		c0.3,0.2,0.1,0.6,0,0.9c2.9,0.8-1-2.1,0-3.3c0.9,0.9,1.4,2.8,2.3,2.5c1,0.6,0.3-4.9,2.7-3.7c-0.8-0.6-1.5-1.3-1.3-2.2
		c0.7-0.9,4.3,1.3,3.4-1.7c0.3,0.1,0.4,0.3,0.6,0.5c0.2-1.1,1.4-2.5,0.9-4.1c3.9,4.4,2.4-5.2,5.5-0.7l1.8-1.7l0.3,0.5
		c1.5-0.6,1.2-2,0.9-3.4c0.5,0.1,0.6,0.6,0.7,0.9c2.4-0.5,2.5-0.9,2.5-4.1l1.1,1.2c-0.2-1.1,4.2,0,4.8-2.9c0.1,0.2,0.2,0.4,0.2,0.7
		c0.4-1.5,2.3-1.6,3.7-1.9c1.4-0.4,2.3-1.1,0.9-3.6l0.4-2.2c-1.9,1-1.3-2.1-2.5-2.3c0.4-0.8,2.7-0.1,2.1,0.8l-0.3-0.1
		c1.5,2.5,2.7-0.9,3.9,0.6c3.1-2.9,7.2-4.4,10.1-7.2l-1.6-1.2l1.1-0.9c0.6,0.1,1.4,0.8,0.6,1.5c1.1,0.5,0.6-1.9,0.3-2.2
		c1.9-0.8,1,2.3,1.4,1.9l0.5-0.7l-0.3,0c-0.1-1.1-0.6-1.7,0.3-2.5c0.8-0.2,1.1,0.6,1.3,0.5c0.1,0.1,0.2,0.1,0.4-0.3l1.3-1.1
		l-1.5-0.6c0.1-1.1,1.2-1.1-0.5-1.8c1.3,0.5,2.6-0.4,3.7-1.5c1.1-1.1,2-2.4,2.5-2.4c0.1-1.5,0.8-2.2,1.8-3.1
		c-0.4,0.1-1.5-0.8-0.6-1.5c1.7,2.4,2.3-0.6,4.3,0.1c-1.4-0.3,1.9-2.6-0.2-2.9c0.8-0.5,0.7,0.6,1.6,0.5c0.4-1.2,1.4-2,2.4-2.8
		c1-0.9,2-1.8,2.8-3c-0.2-0.2-0.8-0.2-0.7-0.9c0.6-0.1,1.3-0.1,1.9-0.2c0.2-0.5-0.7-1.4,0.5-1.6c-0.2,0-0.6-0.1-0.4-0.4
		c2.2-1.7,3.7-4.1,5.4-6.3c0.8-1.2,1.6-2.3,2.5-3.4c0.9-1.1,1.8-2.1,2.7-3.2c-0.5,0.5-0.3,0.1,0-0.4c-0.2,0.3-0.1-0.1-0.3-0.1
		c0.5-0.6,1-1.1,1.5-1.7c0.1-0.5,1.4-2.1,1.5-2.3l-0.4,0.6c0.2-0.4,0-0.2-0.3,0.1c-0.3,0.3-0.8,0.6-0.8,0.5
		c-0.3,0.4-0.9,0.9-1.5,1.4c-0.7,0.5-1.4,1-1.8,1.8c-0.4,0.2,0.1-0.3-0.1-0.3c-0.2,0.4-0.5,0.9-1.3,1.5l0-0.1c-2,2-3.1,2.7-5.8,4.5
		l0.6,0.2c-0.6,0.4-0.8,0.4-1.1,0.5c0,1.1,1.5-1.2,1.6-0.2c-0.7,0-1.6,0.7-2.5,1.5c-0.9,0.8-1.8,1.5-2.6,1.2c-0.8,0.7,0.8,0.3,0,1
		l-0.5-0.1l0.2,0.5c-0.6,0.4-1.2,0.2-1.5,0c0.2-0.1,0.3-0.4,0.4-0.5c-1.1,0.2-1.8,1.7-2.2,1.8l1-0.4c-0.9,1.1-2.2,2.1-3.4,3.1
		c-1.2,1-2.4,2-3,3.3l0.5,0.2c-1,1.9-1.6,0.7-3.1,2.5l0-0.1c0,0.6-0.3,1.2-0.9,1.6c0.1-0.8-1.6-0.1-1.4-1c-1.1,2.2-0.4,1.3-0.2,3.6
		l-0.8-0.4c0.1,0.9,0.4,1.2-0.3,2.2c0.2-1.2-1.5-0.5-1.3-1.9c-1.6,0.1-1.9,1-2.3,1.7c-0.3,0.7-0.6,1.3-2,0.5
		c0.8,2.6,2.6-0.3,2.5,0.5c1,0.3,0.6,2-0.2,2.3c-0.6,0.5-3.2-1.6-4.7-0.4c0.2-0.1,0-0.3,0.2-0.4c-1-0.1-0.5,1.6-2,1.3
		c0.7,1.6-1,0.6,0.3,2.3l1.1-1.5c-0.4,1,0.5,3.5-1.6,3.7c-0.2-0.4-0.2-1.2-0.1-1.6c-0.8-0.2-0.4,0.9-1.3,0.7
		c-1.3-1.7,1.4-1.7,1.2-3.6c-1-0.4-0.6,2.4-1.7,0.3c1.3,2.7-1.8,0.9-1.3,3.4l-0.8-1.1c0,0.3,0,1-0.3,1.2l-0.6-1.7
		c0.1,0.9-0.5,1-1.2,0.9c-0.7,0-1.4-0.1-1.6,0.5c1.7-1.3,1.5,1,2.8,1.2c-0.9,3-3.5-1.9-5.5,0.3c0.2-0.4,1.8-0.2,1.7,0.6
		c-0.6,0.1-1.6,0.1-2.3-0.3c-1.4,1.4,1.2,1,1.1,2.1c-1.6-1-0.3,1.1-0.7,2.1l-0.9-1.1c-2.4,0.6,1.5,2.7-0.9,3.1l-0.6-2.1l-0.5,1
		l-0.9-1.5c-0.1,1.7-0.6,1.6-1.8,1.9c0.9,0.7,1.6,2.3,0.8,2.9c-1.1-0.3-0.6-1.4-1.6-0.4c-0.3-1-0.8-2.1,0.5-1.3
		c-0.3-0.4-0.3-0.9-0.6-1.4c-1.2-0.4-1.6,0.9-2,1.2c0.2-0.1,0.4-0.1,0.7,0l-0.3,2.8c-0.6-0.3-0.7-0.8-0.8-1.3
		c-0.2,0.4,0,1.1-0.4,1.5c-0.6-1.1-1.5-2.1-1.1-3.1L695,792c-0.4-0.4-1.7-0.7-1.8-1.2c-1.3,0-0.6,3.5-2.4,3.4c0.1,0.2,0.1,0.5,0,0.8
		c-1.3,0.5-3.2-0.2-3.4,2.2l-2.1-1.5c-0.7,1.1,2.8,1.8,1.6,3.7c-0.8,1.4-1.7-1.4-2.5-1.7c0.1,1.4,0.5,4.1-1.8,3.2
		C682.6,800.4,683.1,800.5,683.4,800.1z M671.3,809.2c0.1-0.5-0.1-1.7,0.7-1C672.8,810.1,672,809.4,671.3,809.2z M653.5,824.6
		c-0.1-0.6,0.3-0.5,1-0.1C654.4,824.8,654.1,824.9,653.5,824.6z M597.5,859.9C597.5,859.9,597.5,859.9,597.5,859.9
		C598.3,860.1,598,860,597.5,859.9z M595.9,859.8c-0.1,0.2,0,0.3,0.1,0.5c0-0.3,0.3-0.4,0.7-0.4
		C596.5,859.6,596.3,859.5,595.9,859.8z M725.6,784.2l-0.4-0.1C725.4,783.5,725.5,783.9,725.6,784.2z"/>
	<path class="st2" d="M654.7,821.2c0.2,0.2,0.4,0.5,0.6,0.8C655.2,821.7,655,821.4,654.7,821.2z"/>
	<path class="st2" d="M690.7,794.2C690.7,794.2,690.7,794.2,690.7,794.2c0-0.1,0-0.2-0.1-0.3L690.7,794.2z"/>
	<path class="st2" d="M612.2,841.8c0.3,0.1,0.6,0.3,0.8,0.5C612.8,842,612.6,841.7,612.2,841.8z"/>
	<path class="st2" d="M589.2,863.2l0.8-0.4c-0.4,0.1-0.6-0.1-0.9-0.2C589.2,862.8,589.5,863.1,589.2,863.2z"/>
	<path class="st2" d="M579.9,859.3c-0.1,0.1-0.3,0.1-0.4,0.2l0.1,0.4C580.2,859.8,580.5,859.3,579.9,859.3z"/>
	<path class="st2" d="M587.3,860.1c-0.3-0.8-0.8-0.4-1.3-0.1c0,0,0.1,0,0.1,0C586.3,861.2,586.8,860.6,587.3,860.1z"/>
	<path class="st2" d="M585.9,860.1c-0.2,0.1-0.4,0.2-0.6,0.2C585.4,860.7,585.6,860.3,585.9,860.1z"/>
	<path class="st2" d="M594.4,860.8c-0.4-0.2,0.2,1.2-0.1,0.9C594.4,863,595.8,859.9,594.4,860.8z"/>
	<polygon class="st2" points="586,857.5 586.5,858.5 586.6,857.5 	"/>
	<path class="st2" d="M591,856.9l-1.1,0c0.1,0.2,0,0.3-0.1,0.4C590.4,857.1,591.1,857.2,591,856.9z"/>
	<path class="st2" d="M589.8,857.3c-0.3,0.1-0.6,0.2-0.7,0.4C589.2,857.6,589.6,857.5,589.8,857.3z"/>
	<polygon class="st2" points="587.2,856.8 587.6,856.9 588.2,856.8 	"/>
	<path class="st2" d="M601.2,853.7l0.9-0.7c-0.1-0.5-0.4-0.6-0.7-0.3C601.2,853.1,600.9,853.4,601.2,853.7z"/>
	<path class="st2" d="M597,851.5c0.4,0.1,0.5,0.4,0.8,0.8l-0.5-1.5L597,851.5z"/>
	<path class="st2" d="M599.8,850c-0.1-0.5,1-1.8-0.2-1.2C599.6,849.2,598.7,850,599.8,850z"/>
	<polygon class="st2" points="615.7,846 615.4,846.1 616.6,849 	"/>
	<path class="st2" d="M625.5,832.8c-1.5-0.2,0.6,2.1-0.8,1.6c0.1,0.9,1.2,0.3,1.2,1.1C626.2,834.4,626.7,834.7,625.5,832.8z"/>
	<path class="st2" d="M625.8,835.5c-0.1,0.2-0.1,0.4-0.1,0.6C625.8,835.9,625.8,835.7,625.8,835.5z"/>
	<path class="st2" d="M758,744.8c0.2-0.2,0.3-0.5,0.5-0.7l-0.3,0.4L758,744.8z"/>
	<path class="st2" d="M758.8,743.4c0,0,0.1-0.1,0.1-0.1c0.1-0.1,0.2-0.3,0.3-0.4C759.1,743,758.9,743.3,758.8,743.4z"/>
	<path class="st2" d="M666.8,806.4l0.3,0.5c0.4,0.5,0.6,0.4,1,0.3L666.8,806.4z"/>
	<polygon class="st2" points="677,802.1 676.8,802.2 678.3,803.7 	"/>
	<path class="st2" d="M683.2,795.1c-0.4,0.1-0.5,0.7-0.8,0.9C682.9,795.2,684.8,797.1,683.2,795.1z"/>
</g>
<g>
	<path class="st2" d="M846.2,477.4c0.1,2.2,0.1,1.6,0.1,1.9C846.1,475.3,846.2,477.5,846.2,477.4z"/>
	<polygon class="st2" points="841.9,437.2 842.1,437.9 840.9,432 	"/>
	<path class="st2" d="M833.8,400.1c0.2,1.8,1.2,5.1,2.2,8.8c0.9,3.7,1.9,7.8,2.6,11.2l0.1,1.1l1,2.9c-0.9-4-2-8.6-3-12.9
		c-0.3-1.1-0.5-2.1-0.8-3.2c-0.3-1-0.6-2-0.8-2.9C834.6,403.2,834.2,401.5,833.8,400.1z"/>
	<path class="st2" d="M829.4,380.2c0.1,1.3-1.5-4.1,1.3,4.6c-0.1-0.4-0.1-0.6-0.2-0.8C830.3,383.1,830,382.1,829.4,380.2z"/>
	<path class="st2" d="M830.6,383.9C831.8,387.8,830,381.3,830.6,383.9L830.6,383.9z"/>
	<path class="st2" d="M824.5,366.4l2.1,4.9c-0.2-1.1-1.8-5.6-1.1-4C823.5,362.2,823.7,363.4,824.5,366.4z"/>
	<path class="st2" d="M822.2,361.9l1.1,2.5C823.2,363.9,823,363.2,822.2,361.9z"/>
	<path class="st2" d="M825.5,369.8l-2.2-5.4c0.1,0.8-0.1,0.9,1,2.5C823.9,366.5,824.5,367.5,825.5,369.8z"/>
	<path class="st2" d="M826.6,372.9c0.5,1.4,0.9,3.1,1,3.7c0.1,0.7-0.1,0.3-1-2.1c1.6,4.8,2.4,6.8,2.4,6.4c0-0.2-0.2-1-0.6-2.3
		c-0.2-0.7-0.4-1.5-0.7-2.4C827.4,375.2,827,374.1,826.6,372.9z"/>
	<path class="st2" d="M832.7,398.4l0.9,3.8l1.1,3.2C834.2,403.9,832.8,398.1,832.7,398.4z"/>
	<path class="st2" d="M812.3,335.7c-0.3-0.2,0.3,1.9,0.2,2.3l1.9,3.4C813.6,339.6,812.1,336.1,812.3,335.7z"/>
	<path class="st2" d="M812.5,338l-2.9-5.1C811.8,337.6,812.4,338.4,812.5,338z"/>
	<polygon class="st2" points="821,361.4 825,370.1 820.4,359.6 	"/>
	<polygon class="st2" points="802.2,315.6 804.2,318.3 800.7,313.5 	"/>
	<path class="st2" d="M794.7,302.7c1.7,1.9-1-3.3,0.5-1.3c-1.1-1.7-2.1-3.3-3.2-4.7c-0.5-0.7-1-1.4-1.5-2.1
		c-0.5-0.6-1.1-1.2-1.6-1.8c0.5,0.7,1,1.3,1.5,2.1c0.5,0.7,0.9,1.5,1.4,2.3C792.7,298.9,793.7,300.7,794.7,302.7z"/>
	<path class="st2" d="M785.6,288.9c1,1.3,2.1,2.6,3.4,4C787.9,291.5,786.8,290.1,785.6,288.9z"/>
	<path class="st2" d="M805.3,323.9c-0.1-0.5-0.2-1.4-1.6-4.4l0.5,2.3C804.5,322.5,804.9,323.2,805.3,323.9z"/>
	<path class="st2" d="M804.2,322L804.2,322c-1.2-2.3-2-3.8-2.4-4.5C802.1,318,802.8,319.4,804.2,322z"/>
	<path class="st2" d="M805.5,324.4c-0.1-0.2-0.2-0.3-0.3-0.5C805.3,324.1,805.4,324.3,805.5,324.4z"/>
	<path class="st2" d="M815.6,347.1c-0.8-1.5-2-3.9-2.7-5c-0.4-0.6-0.6-0.8-0.6-0.6c0,0.3,0.3,1.1,0.9,2.7
		C814.4,346.3,813.1,342.5,815.6,347.1z"/>
	<path class="st2" d="M806.2,327.3l2.6,5.6c0.1-0.2-0.2-1.3,0.7,0.2L806.2,327.3z"/>
	<path class="st2" d="M804.6,324.7c0.5,0.9,1.1,1.7,1.6,2.6c-0.3-0.7-0.7-1.4-1-2.1L804.6,324.7z"/>
	<path class="st2" d="M790.8,298.2c-1.6-2.2-3.3-4.6-5.2-7.3c0.9,1.5,1.9,3.1,2.9,4.6c0.9,1.5,1.9,3.1,2.8,4.6
		C791.7,300.4,792.8,301.5,790.8,298.2z"/>
	<path class="st2" d="M797.5,309.6c-0.1-0.2-0.2-0.3-0.3-0.5C797.3,309.5,797.4,309.8,797.5,309.6z"/>
	<path class="st2" d="M766.3,264.4c0.1,0.2,0.1,0.3,0.2,0.5c0.1,0,0.1,0,0.2,0L766.3,264.4z"/>
	<path class="st2" d="M791.4,300.6c1.3,2.4,2.3,3.6,3.2,4.8c-1.1-1.7-2.2-3.5-3.4-5.4C791,299.9,791,299.9,791.4,300.6z"/>
	<path class="st2" d="M780.2,281.4c0.6,1.3,1.4,2.7,2.2,4.1C781.9,284.3,780.6,281.7,780.2,281.4z"/>
	<path class="st2" d="M796.9,308.3c0.1,0.1,0.1,0.2,0.2,0.3C796.8,307.8,796.8,307.9,796.9,308.3z"/>
	<path class="st2" d="M796.9,308.3c-0.8-1.1-1.5-2-2.2-2.8c0.9,1.4,1.7,2.6,2.5,3.7C797,308.8,796.9,308.5,796.9,308.3z"/>
	<path class="st2" d="M755.9,260.3c0.9-0.2,5.9,4.7,9.2,9.8c2,2.1,2.9,2.1,3.1,0.9c0.1-0.6,0-1.5-0.3-2.6c-0.3-1.1-0.7-2.3-1.3-3.5
		c-0.4,0.1-0.6,0.3-4.9-4.2c1,2,7.9,11.1,4.1,7.6c-5.5-6-4-5.3-6.2-8.6c0.7,1.6-1.2-0.1-3.3-2c-1-0.9-2.2-1.8-3-2.4
		c-0.9-0.5-1.4-0.7-1.4-0.1c0.9,0.8,1.7,1.6,2.6,2.4l2.5,2.5C756.7,260.4,754.8,258.7,755.9,260.3z"/>
	<path class="st2" d="M773.6,274.3l1.6,2c-1.6-2.4-2.6-4.2-4.4-7.7c-1.4-1.6-2.3-2.5-3-3c-0.6-0.5-0.9-0.7-1.1-0.7l2,2.4l1.9,2.5
		l3.7,5L773.6,274.3z"/>
	<path class="st2" d="M781.8,285.5c-0.9-0.6-2.2-2.1-3.2-3c-1-0.9-1.6-1.2-0.8,0.6c4.2,6.1,3.5,3.9,6.2,7.4
		c-6.9-9.8,2.3,2.6-2.2-4.8c1.4,1.9,2.6,3.6,3.8,5.3c-1.1-1.8-2.2-3.6-3.2-5.4c0,0.1,0.1,0.2,0.1,0.3l0,0c0,0,0,0,0,0
		c0.2,0.5,0.3,0.7,0,0.1c0,0-0.1-0.1-0.2-0.2C782.2,285.8,782,285.7,781.8,285.5c-1.8-3-0.1-0.6,0.5,0.3c0.1,0,0.1,0.1,0.2,0.1
		c0,0,0,0,0,0c-1.2-1.6-2.3-3.3-3.5-4.9l-3.8-4.7C776.6,278.4,778.7,280.8,781.8,285.5z"/>
	<path class="st2" d="M809.2,339c-0.1-0.4-0.1-0.4,0-0.4C808.7,337.9,808.6,337.7,809.2,339z"/>
	<path class="st2" d="M807.3,334.5c0.5,0.7,1,1.3,2.2,3.8c0.9,2.3-0.3,0.1-0.4,0.3c0.9,1.4,3,5.1,0.9,0.2l-0.4-0.7
		c-2-4.4-4-10.3-3.6-9.6C806.2,330.1,806.4,331.4,807.3,334.5z"/>
	<path class="st2" d="M795.1,309.4l-5.5-8.3l2.2,4.6l0.2-0.4C794.7,310.3,794.5,309,795.1,309.4z"/>
	<polygon class="st2" points="765.9,263.2 767.5,263.7 762.8,260 	"/>
	<polygon class="st2" points="757.6,253.2 758.5,253.1 755.8,250.8 	"/>
	<path class="st2" d="M150.8,341.2l-0.9,2.7C150.3,342.7,150.6,341.9,150.8,341.2z"/>
	<path class="st2" d="M160.6,323.2l-0.4-0.8C160.1,323.4,160.2,323.9,160.6,323.2z"/>
	<path class="st2" d="M473.8,123.2c-4.3-1.1-9.3-3-8.7-1.5l1.4,1.4C469.5,122.8,471.9,122.9,473.8,123.2z"/>
	<path class="st2" d="M270,194.1c0.4-0.1,0.9-0.2,1.3-0.3c0.6-1,1.1-2,1.6-2.8C272,191.9,271,193,270,194.1z"/>
	<path class="st2" d="M271.2,201.1l-5.1,2.3C267.3,203.1,269,202.3,271.2,201.1z"/>
	<path class="st2" d="M118,448.1l1,3.5C119.7,446.5,118.6,448.6,118,448.1z"/>
	<path class="st2" d="M653.9,169.7c-1.5-1.1-2.9-2.1-4.2-2.9c-1.3-0.8-2.5-1.5-3.7-2.1C649.8,167.2,652.4,170,653.9,169.7z"/>
	<path class="st2" d="M139.9,326.4c-0.6,1.8-0.6,2.6-0.3,2.7C140.2,327.3,140.4,326.2,139.9,326.4z"/>
	<path class="st2" d="M636.4,159.8c0.5,0.4,1.1,0.8,1.6,1.1c2.5,1,5,2.1,8,3.7C643.3,162.7,640,160.7,636.4,159.8z"/>
	<path class="st2" d="M268.3,806.6c0.2,0.2,0.5,0.4,0.7,0.6C269.1,807.2,268.8,806.9,268.3,806.6z"/>
	<path class="st2" d="M375.7,861.4c-1.2-0.3-3-0.8-4.8-1.3C371.8,860.3,373.2,860.7,375.7,861.4z"/>
	<path class="st2" d="M720.9,215.6C723.1,217.3,721.3,215.8,720.9,215.6L720.9,215.6z"/>
	<path class="st2" d="M728.2,227.6c-0.5-0.3-0.9-0.5-1.1-0.4C727.4,227.2,727.8,227.3,728.2,227.6z"/>
	<path class="st2" d="M608.2,156.1c-0.1,0-0.1-0.1-0.2-0.1C608.6,156.5,608.5,156.4,608.2,156.1z"/>
	<path class="st2" d="M723.7,218.7c-0.7-0.8-1.5-1.7-2.4-2.6C721.7,216.5,722.4,217.3,723.7,218.7z"/>
	<path class="st2" d="M723.6,218c0.7,0.7,1.2,1.2,1.7,1.7C725.7,219.8,725.6,219.5,723.6,218z"/>
	<path class="st2" d="M717.9,213.1c1.2,1,2.3,2,3.4,3c-0.4-0.4-0.5-0.6-0.4-0.5C720.3,215.1,719.4,214.3,717.9,213.1z"/>
	<path class="st2" d="M132.7,635.8c0,0.2,0.1,0.4,0.1,0.6C134.3,638.7,133.7,637.6,132.7,635.8z"/>
	<path class="st2" d="M404.7,145.5c0.1,0,0.2-0.1,0.3-0.1c-0.1,0-0.3,0-0.4,0L404.7,145.5z"/>
	<path class="st2" d="M395.5,148.7c1.8-1.4,3.3-2.2,4.7-2.6c0.7-0.2,1.4-0.4,2.1-0.5c0.7-0.1,1.5-0.1,2.2-0.2
		c-1.3-1.2-2.7-2.5-4-3.7C398.8,144,397.2,146.3,395.5,148.7z"/>
	<path class="st2" d="M132.1,386.8l3.5-5.9c-0.5,8.4-3.1,13.6,0.7,8.3c-1-0.6-1.1-2.4-0.6-4.9c0.5-2.5,1.4-5.6,2.6-8.6
		c2.3-6.1,4.6-12.1,2.6-13.5c0.9-1.2,1.8-2.4,2.7-3.6c-0.6,1.1-0.4,1.4-1,2.5c5.7-6.9-0.6-7.2,4.8-17.1c2.1-3.3,4-5.4,3.3-2.8
		l2.9-8.2c1.2-2.2,1.7-1.2,0.5,0.9c1.8-4,4-7.8,6.1-11.7l0.1,0.2c0.3-2,1.4-6.3,2-8.4c2.3-2.5-0.4,1.7,0.6,1.3l0.7-1.7l0.7-1.7
		l1.5-3.4c1.3-0.9,1.5,0.1,0.9,1.8c-0.6,1.7-1.9,4.2-3.2,6.3c3.8-1.7,4.4-3.1,5.2-5.5c0.9-2.4,2.1-5.8,7.3-11.1
		c-1.1,2-2.1,4.1-3.2,6.1c1.2-0.5,2.2-1.3,3.1-2.1c1-0.9,1.8-1.9,2.8-2.9c1.9-2.1,4-4.7,6.9-7.3c-0.9,0.5-4,3-6.5,4.5
		c-2.5,1.5-4.3,2.1-2.5-1.5c1.6-1.6,3.4-3.9,5.1-8c1.5,1,3.4-2.7,6.6-6.8l1.6,1.7c2.9-4.8,1.7-5.2,3-8.5c1-1.2,1.9-2.1,2.7-2.8
		c0.8-0.7,1.6-1.1,2.3-1.3c1.4-0.5,2.5-0.5,3.5-0.6c6.8-7.3-6.7,3.4,0.7-5.9c6-5.8,9.5-10.5,15.4-18.8c4.8-3.5,0.3,1.7,2.2,0.7
		l2.5-4.9c1-0.8,1.1-0.2,1.1,0.2c2.7-3.5-1.4-1.9,3.2-7.2c-0.1-0.8,0.7-1.6,1.9-2.6c1.2-1,3.1-1.9,5-3c3.9-2.2,8.4-5,10.7-8.8
		c2.1-0.8,0.1,1.7,1.2,2c4-4.4,5.8-6.2,7.3-7.9c0.8-0.9,1.4-1.7,2.3-2.8c0.4-0.6,0.9-1.2,1.5-1.9c0.6-0.7,1.3-1.5,2.1-2.5l7.6-3.5
		c-3,1-3.2,0-2.1-1.9c0.6-1,1.4-2.2,2.5-3.5c1-1.3,2.2-2.7,3.5-4c-2.3,0.4-4.2,1-5.5,1.4l2.1-1.9c0.7-0.6,1.4-1.2,2.1-1.8l4.3-3.5
		c1.3-0.4,0.8,0.9-0.2,2.7c0.5-0.6,1-1.1,1.4-1.6c3.8-1.4,2.8,0.8,1.1,3.4c-1.4,0.3-2.7,0.6-4.1,0.9c-0.7,1.3-1.4,2.6-1.8,3.7
		c-0.3,1.1-0.3,2,0.3,2.4c0.2-0.3,0.6-0.7,1-1.2c0.5-0.4,1-0.9,1.6-1.3c-0.4,0.7-0.6,1.2-0.2,1.2c0.4,0,1.1-1,2.3-2.5l3.5,0.8
		l-0.1-1.2l6.4-3.1c1.1-0.5,2.1-1.1,3.2-1.5l3.3-1.4c1.8-1.8,3.6-3.7,5.4-5.6c0.9-0.9,1.8-1.9,2.8-2.9c0.9-1,1.9-2,3-2.9
		c2.1-1.9,4.4-3.8,7.1-5.8c2.7-2,5.6-4.1,9.3-6c-2.9,3.4,0.5,3.1,1.3,5.3c-2.5-0.2-5.2,1.5-8.2,3.6c-3,2.1-6.3,4.6-10.1,6.3
		c4-1.8,3.6-0.4,2.8,0.4l12.2-8.7c0.5,1.8,3.4-0.1,7.3-1c-2.1-1,0.2-2.7,3.6-4.6c1.7-0.9,3.7-1.9,5.6-2.9c1.9-0.9,3.7-1.7,5.1-2.6
		c0.4,0.5,0.4,1.2-0.6,2c-1,0.9-3,1.8-6.4,3.2c1.1-0.1,2-0.3,2.8-0.6c0.8-0.3,1.5-0.6,2.2-1c1.3-0.8,2.3-1.7,3.3-2.7
		c2-2,4-4,8.1-4.4c-1.7,0.7-2.6,0.9-3.1,1.7c1.8-1.2,5.1-2.7,7.8-3.4c2.7-0.7,4.7-0.9,3.8,0l-1.7,0.6c2.9-0.9,6.4-2,10.2-3.3
		c0.9-0.3,1.9-0.7,2.9-1c1-0.3,2-0.6,2.9-0.9c1.9-0.6,3.9-1.3,5.7-1.9c1.8-0.6,3.6-1.3,5.2-1.9c1.6-0.6,3.1-1.3,4.4-1.8
		c2.6-1.1,4.2-2,4.5-2.9c0.2,0.3-0.7,3.9-1.2,4.6c6.1-4.8,12.3-9.9,18.9-14.3c-0.7,1.4,1,3.3,1.7,5.2c0.7,1.9,0.3,3.9-4.4,5.5
		c2.9-0.2,6.4-0.4,12.1-2.3c-1.9,0-5.4-2.7-2.8-3.4c7.6,1.5,5.3,0.6,14.5,1.8c-2.9-0.2-0.3-4.5,4.4-4.9c-0.6,0.7,0.8,3.8-0.8,4.4
		l5.5-2.7c1.8-0.8,3.7-1.6,5.5-2.4c-2.8,0.9-0.2,3.3,2.4,4.2c-0.6-0.3,1.8-0.5,4.8-0.7c3-0.1,6.5-0.4,8-0.6
		c-1.6-0.3-3.2-0.4-4.9-0.6c3.2-0.2,5.6-0.4,7.6-1c2-0.5,3.6-1.2,5.1-2c1.6-0.7,3.2-1.5,5.2-2c1-0.3,2.1-0.5,3.4-0.7
		c1.3-0.2,2.7-0.2,4.3-0.1c-1.6,0.7-3.9,4.7,2.6,5.3c1.5-0.9,4.9-3.2,9.4-5.3c1.1-0.5,2.3-1.1,3.6-1.5c1.3-0.4,2.6-0.8,3.9-1.2
		c2.7-0.7,5.6-1.2,8.5-1.3l2.1,1.2c3-0.2,6-0.2,9-0.3c-1.5,0.5-3.6,1.2-6,1.9c-2.5,0.8-5.3,1.7-8.1,2.5c-2.9,0.9-5.8,1.7-8.5,2.5
		c-0.7,0.2-1.4,0.4-2,0.5c-0.7,0.2-1.3,0.4-1.9,0.6c-1.2,0.4-2.4,0.7-3.4,1c2.4,0.5,2.7,0.8,3.3,1c0.6,0.2,1.6,0.3,5.1,0.5
		c2.5,1.2-4,1.2-6.1,1.3c2.8,0.1,5.5,0.4,8.3,0.7l8.3,0.9c-0.1-0.6,0.6-0.9,1.8-1.2c0.6-0.1,1.3-0.2,2.1-0.3
		c0.8-0.1,1.6-0.1,2.4-0.1c3.2-0.1,6.5-0.2,6.3-1.1c-3.1,0-6.1,0-9.2,0.1l-9.2,0.5c-0.3-1.1,2.4-2.5,6.8-3.4
		c1.1-0.2,2.3-0.4,3.5-0.6c1.3-0.1,2.6-0.2,4-0.2c2.8,0,5.7,0.2,8.7,0.6c2.9,1.2-2.8,3.5-2.6,4.3c0.8-0.3,3.7-0.3,6.5-0.2
		c2.8,0.2,5.5,0.6,6,1l-5.2,0.3c3.2,0.9,6,0.7,8.9,0.6c2.9,0,6,0,9.7,1.7c2.7,0.7,7.5,4.4,8.2,3.2c-3.8-3.2-3.2-10.7,0.1-11.8
		c0.5,0.2,4,1.6,7.7,3.1c1.9,0.7,3.7,1.7,5.4,2.5c1.6,0.8,2.9,1.5,3.6,2c3.9,3-7.8,2.4-4.4,5c0.3-0.5,2.9-0.5,4-0.5
		c2.7,1.2-1.6,1.4,4.5,2.7c0.8-0.8,3.9,0,5.6,0.6c1.7,0.6,2.2,0.8-2.3-1.5c6.1,1.2,6.1,2.4,13.1,4.5c-0.9-1,1-1.5,3.9-1.7
		c2.9-0.1,6.8,0.4,9.8,1.3c-0.5,0.3,0.6,1.5,1.1,2c1.5,0.6,2.9,1.2,4.2,1.7c1.3,0.6,2.6,1,3.8,1.6c2.4,1.2,4.5,2.2,6.7,3.3
		c2.2,1.1,4.3,2.1,6.6,3.2c1.1,0.5,2.3,1.1,3.5,1.8c1.2,0.6,2.5,1.2,3.8,1.9c0.8,0.9,5.7,3.9,3.1,3.6c1.7,0.5,3.4,0.5,6.7,2.2
		c2.7,2.4,0.9,1.5-1.1,0.5c-2.1-0.9-4.3-1.8-2.4,0.2c0.2-0.2,0.9-0.1,1.9,0.1c1,0.3,2.2,0.8,3.6,1.3c2.7,1.1,6,2.6,8.4,3.5
		c-0.3-1.1-2.9-2.6-6.1-4.1c-1.6-0.7-3.3-1.5-4.9-2.1c-1.6-0.6-3.2-1.1-4.5-1.5c0.3-0.5,1-0.8,2.2-0.9c1.2,0,2.8,0.1,4.8,0.6
		c3.8,1,9,2.8,14.8,5.4c8.8,4.8,2.9,3.5,4.6,4.2c3.9,2.5,6.9,4.1,9.3,5.2c2.4,1.2,4.2,1.9,5.9,2.6c1.7,0.7,3.3,1.4,5.2,2.5
		c1,0.6,2,1.3,3.2,2.1c0.6,0.4,1.2,0.9,1.9,1.4c0.6,0.6,1.3,1.2,2,1.8c4.2,4.8-1.3,2.3-0.8,3.9c-1.7-1.1-3.1-2.2-4.4-3.2
		c-1.3-1-2.5-1.9-3.5-2.8c-2.1-1.8-4-3.4-6.3-5l5.2,4.3c-2.4-1.1-7-3.8-9.3-5.8c0.9,1,3,2.6,5.7,4.6c1.4,1,2.9,2.1,4.6,3.3
		c1.7,1.2,3.5,2.3,5.3,3.7c3.6,2.7,7.4,5.6,11,8.4c0.9,0.7,1.8,1.4,2.6,2.1c0.8,0.7,1.6,1.4,2.4,2.1c1.6,1.4,3,2.7,4.3,4
		c2.2,1.3,5.9,3.7,4.6,2l-3.6-2.8c-2.6-3.5,7.5,4.4,3.4,0.3c2.6,1.6,5.3,3.6,8.1,5.7c1.4,1.1,2.9,2.3,4.3,3.6c0.7,0.6,1.5,1.3,2.2,2
		c0.8,0.7,1.5,1.5,2.2,2.3l0.2,2.1c0.1-0.2-0.8-1.4-1.9-2.6c-1.2-1.2-2.6-2.5-3.7-3.2c3.2,1.9,8.2,10.5,12.3,12l-3.6-4.9
		c2.4,1.9,5.2,4,8.1,6.4c2.8,2.4,5.5,5.1,7.9,8.1c-1.4-3.5-1.3-1.2-3.9-6.3c0.5,1.2-0.1,0.9-1.2-0.2c-1.1-1.1-2.7-2.8-4.3-4.4
		c-3.2-3.3-6.2-6.3-4.2-2.8c-1.3-2.6-2.9-4.5-4.7-6.5c-1.8-2-3.8-4-6-7.1c-0.1,0.5,1.3,2.4-3.3-2.2c-0.3-0.1-0.9-0.4-1.3-0.7
		c-0.1-0.1-0.2-0.2-0.3-0.3c0.1,0.1,0.1,0.2,0.2,0.3c-0.3-0.1-0.3-0.1,0.1,0.1c1,1.2,1.8,2.2,2,2.8c-0.8-0.3-1.8-1-3-1.9
		c-1.2-0.9-2.5-2-3.9-3c-2.7-2-5.5-4.1-7-5c-2.8-2.6,1.6,0.6,0.3-1.1l-4.5-2.7c0.1-0.3-0.3-0.9-0.8-1.6c-0.5-0.7-1.2-1.4-1.6-2
		c-0.8-1.1-0.7-1.5,3,1l-6.4-5c-1.7-1.7-3.9-3.6-6-5.4c-1.1-0.9-2.2-1.7-3.2-2.4c-1.1-0.7-2.1-1.3-3-1.8c-3-2.4-8.7-4.5-5.5-3.3
		c-1.8-1.1-3.6-2.3-5.5-3.3l-5.6-3.1l0.1-0.3c-2.7-1.7-5.4-3.3-8.3-4.9c-2.9-1.5-5.9-3-8.9-4.5c-1.5-0.8-3-1.6-4.5-2.4
		c-0.7-0.4-1.5-0.8-2.2-1.3c-0.8-0.4-1.5-0.8-2.3-1.2c-3.1-1.7-6.1-3.5-9.1-5.6c-3.9-1.7-8.1-3-14.5-6.3l-0.8-1.6
		c-1.3-0.5-2.9-1.2-4.5-2c-1.7-0.8-3.5-1.6-5.2-2.3c-3.4-1.5-6.5-2.8-7.8-2.7c-2.2-2.6-8.5-4.9-15.4-7c-1.7-0.5-3.4-1.1-5.2-1.6
		c-1.7-0.4-3.5-0.9-5.1-1.3c-3.3-0.8-6.3-1.6-8.6-2.4l-0.7,1.4c-3.2-1-6.4-1.6-9.8-2.2c-3.4-0.6-7-1.2-11.1-1.8l0.2,1.5
		c-3.6-0.1-8-1.1-12.9-2.4c-2.5-0.6-5-1.4-7.7-1.9c-2.7-0.5-5.5-1-8.2-1.3c0.8-0.5,3.6,0.1,5.6,0.6c-6.4-2.4-13.6-2.9-20.5-2.6
		c-3.5,0.1-6.9,0.2-10.2,0.1c-3.3-0.1-6.5-0.2-9.5-0.9c-3,0.4-5.2,0.2-7.4-0.2c0.3,0,0.5,0,0.8-0.1c-0.3,0-0.8,0-1.2-0.1
		c-1.3-0.3-2.7-0.6-4.2-0.8c0.6,0.2,1.3,0.3,1.9,0.4c0.6,0.2,1.2,0.3,1.7,0.4c-0.6,0-1.2,0-2,0c-0.7,0-1.5,0.1-2.3,0.2
		c-1.6,0.1-3.4,0.3-5.1,0.5l-1.5-1.6c-0.3,0-0.5,0-0.8,0.1c-3.4-0.5-2.7,0.8-0.9,2c-1.7,0.3-3.3,0.7-4.5,1.1
		c-1.4-1.3-3.7-1.1-6.1-0.7c-2.4,0.4-4.9,0.7-6.9-0.5c-1.1,0.8-5.5,1.3-9.7,2.1c-4.2,0.9-8.3,2.1-9.1,3.7c-0.2-0.4-1.2-0.4,0.6-0.7
		c-3.9,0.2-7.7,0.3-11,1.6l-1.9-1.8l-7.8,4.3c-5.2-0.4-7.5-0.8-2.8-3.3c-2.9,1.2-5,1.9-6.6,2.5c-1.6,0.6-2.7,1-3.8,1.4
		c-2.1,0.7-4.1,1.4-8.9,3.8l0.2-1.5c-0.9,0.2-1.9,0.6-3,1c-1,0.4-2.1,0.9-3.2,1.3c-2.1,0.9-4,1.7-5.2,1.4c-2.2-0.1-5.8,0.6-10.2,1.6
		c-1.1,0.2-2.3,0.6-3.5,1c-1.2,0.4-2.5,0.8-3.8,1.2c-2.6,0.8-5.3,1.7-8.2,2.7c-1.4,0.5-2.9,0.9-4.3,1.5c-1.4,0.5-2.9,1.1-4.4,1.7
		c-2.9,1.1-5.9,2.2-8.8,3.3c-1.5,0.5-3,1-4.4,1.6c-1.4,0.6-2.8,1.1-4.2,1.6c-2.8,1.1-5.5,2-8.1,2.8c2.8,1,0.3,1.6-2.8,2.4
		c-3.1,0.8-6.7,1.9-6.4,3.6c-1.6-0.3-4.5,0.5-1.8-1.8c-2.3,1.5-4.5,2.6-6.5,3.5c-2,0.9-3.8,1.7-5.4,2.6c-3.3,1.7-6.1,3.4-8.7,6.5
		c-1.6-0.2,1.3-2.4,0-2.4c-0.7,0.6-2.6,2.5-3.9,2.6c-1.3,0,1-1.5,2.3-2.8c-4.9,2.8-7,5.3-7.9,7.2c-0.9,1.9-0.5,3.5-0.1,4.9
		c-2.7,0.9-4.7,1.8-6.2,3c-1.6,1.1-2.7,2.5-3.8,4.5c-2.1,0.3-5.4,1.4,0.1-2.9c-1.6,1.1-6.7,4.2-11.2,7.4c-1.1,0.8-2.2,1.6-3.2,2.3
		c-1,0.8-1.8,1.6-2.6,2.3c-1.4,1.4-2.3,2.5-2,3c-1.3,0.3-4.4,3.2-5,4.1c-1.7,1.3-3.1,2.3-4.2,3.2c-1.1,0.9-2,1.7-2.9,2.4
		c-1.8,1.5-3.6,3-6.8,5.9l2.1-1.3c-0.4,2.2-1.6,3.4-3.4,4.8c-0.9,0.7-1.9,1.4-3,2.2c-1.1,0.9-2.2,1.9-3.4,3.1l-0.1-0.3
		c-6.4,4.7-7.5,6.1-8.6,7.4c-1,1.4-2,2.7-8.3,7.5l1.9,0.6c0.9,1.8-1.9,3.9-5.5,6.6c-3.5,2.8-7.9,6.1-10.3,10l2.9-1.8
		c-1.1,2.3-4.4,4-7.7,5.9c-3.3,1.8-6.8,3.5-8.6,5.3c-0.9,0.7,0.7-1.7,1.4-3c-4.9,4.5-4.8,5.2-4,5.8c0.4,0.3,0.9,0.5,0.9,1.2
		c0,0.3-0.1,0.8-0.3,1.4c-0.2,0.6-0.7,1.4-1.3,2.5c-2,0.8-1.2-3.8-5.2,1.5c-1.3,1.1-3.4,5.5-5.8,10.5c-2.3,5.1-5.1,10.7-8.5,13.9
		c1.9-1.2,3.7-2.3,1.9,1.9c-1.6,3.1-4.7,6.7-7.5,10.4c-1.4,1.9-2.7,3.8-3.7,5.6c-0.9,1.9-1.5,3.8-1.6,5.5c-0.6,0.7-1,0.9-1.2,0.8
		c-0.9,2.5-2.6,6.5-4,10.3c-1.3,3.9-2.4,7.5-2.3,9.3c-1.8,0.5-3.4,2.7-4.9,5.7c-0.8,1.5-1.3,3.2-1.9,5c-0.6,1.8-1.1,3.7-1.6,5.5
		c-1,3.7-2,7.2-2.9,9.7c-0.9,2.5-1.9,4-3.1,3.6l-2.5,7.8l-1.2,3.9c-0.4,1.3-0.7,2.6-1.1,3.9l-0.4-0.6c-1.6,5-2.3,8.5-2.6,11.2
		c-0.3,2.7-0.2,4.6,0,6.6c-0.9,2.3-1,0.4-1.2,0.2c-2.2,7.3-3.3,11.4-4,15.2c-0.5,3.9-0.4,7.5-0.2,14l-1.9,1c0.1,0.9-0.3,2.7-0.8,5.1
		c-0.5,2.4-1.1,5.5-1.8,8.9c-0.3,1.7-0.7,3.5-1,5.4c-0.3,1.9-0.7,3.8-0.8,5.7c-0.3,3.9-0.5,7.9-0.3,11.6c-0.2-0.2-0.5-0.5-0.6-1.7
		c0.1,2.1,0,4.3-0.1,6.6c-0.1,2.3-0.2,4.6-0.3,6.9c-0.3,4.7-0.9,9.4-1.2,13.7c-0.2,4.4-0.2,8.4,0.1,11.8c0.2,1.7,0.5,3.1,0.9,4.4
		c0.4,1.2,1.1,2.3,1.8,3l2.2,10.9c-0.6-14.3,2.6,1.9,3.1-4c0.2,1.4,0.2,3,0.2,4.5c-0.1,1.5-0.2,2.9-0.3,4c-0.3,2.1-0.8,2.6-1.3-0.8
		c0-0.4,0.1-0.7,0.2-1.1c-3.3-2.2,1,17.7-1,17.6c2.3,13.9,4.3,27.7,7.6,41c0.4,1.7,0.8,3.3,1.2,5c0.4,1.7,0.7,3.3,1.2,5
		c0.9,3.3,1.8,6.5,2.7,9.8c0.5,1.6,0.9,3.2,1.4,4.8c0.5,1.6,1.1,3.2,1.6,4.8c1.1,3.2,2.2,6.3,3.3,9.4l0.9-3.6c0.5,1.4,1,2.9,1.5,4.3
		l1.7,4.3c0.5,2.4-0.2,3.6-2.6-2.5c0.3,3.6,5,9.9,5.5,9.9c0.5,1.5,0.8,2.6,1,3.3c0.2,0.7,0.2,1.1,0.2,1.2c-0.1,0.3-0.8-0.4-1.5-1.4
		c-1.3-2-3-5.1-2.3-3.3c0.7,1.6,1.4,3.3,2.2,4.9c-0.1-0.4-0.2-0.8-0.3-1.2c2.5,3.7,3.5,3.7,6.7,10.9c1.7,4.7,0,2.8,0.8,4.6
		c-0.1,0,0.1,0.7,1.3,2.7l5.2,10.4l-0.8-4.8c1.5,2.1,2.7,4.6,3.5,5.7c0.8,1.2,1,1.2,0.4-1.5c0.4,2,1.9,5.4,3.9,9.4
		c1,2,2.1,4.2,3.4,6.4c1.3,2.2,2.7,4.4,4.1,6.6c1.4,2.2,2.8,4.4,4.1,6.4c1.4,2,2.7,3.9,3.9,5.6c2.3,3.4,4.1,6,4.6,7.1
		c2.5,2.6,4.9,5.3,7.2,8.3c1.2,1.5,2.3,3,3.5,4.6c1.3,1.6,2.6,3.2,3.9,4.9c-1.2-1.8-0.9-3.7,3.7,2.2c-2-0.2-0.1,2.7,2.8,6.3
		c2.9,3.5,6.6,7.8,8,10.7c-0.7-1.2-0.1-0.9,1.1,0.3c1.2,1.1,3.1,2.9,4.9,4.6c3.6,3.5,7,6.6,4.6,2.9c4.3,4.6-0.4,1,2.5,4.8
		c5.9,4.8,11.7,10.7,18.2,16.4c1.6,1.5,3.3,2.9,4.9,4.4c1.7,1.5,3.5,2.9,5.2,4.3c1.8,1.4,3.6,2.8,5.4,4.3c0.9,0.7,1.8,1.4,2.7,2.1
		c0.9,0.7,1.9,1.3,2.8,2c0.4,0-1.9-2.2,1.6-0.2c2.4,2.3,4.8,4.5,7.2,6.8c1.5,1,2.5,1.1,3.6,1.6c1.2,0.5,2.6,1.3,5.1,3.4
		c-0.7-0.7-1.7-1.7,0.4-0.4c14.9,10.4,31.3,19.1,48.2,26.8c4.3,1.8,8.5,3.6,12.8,5.5c2.1,1,4.3,1.7,6.5,2.6l6.5,2.5
		c4.3,1.7,8.7,3.1,13.1,4.6c2.2,0.7,4.4,1.5,6.5,2.2c2.2,0.6,4.4,1.3,6.6,1.9c-4.8-1.5-1.5-0.6,2.1,0.4c-2.4-0.7,0.1-0.2-0.3-0.4
		l7.4,2.2c2.5,0.6,5,1.2,7.5,1.8c1.4,0.2,5.4,1.2,9.3,2c3.9,0.7,7.7,1.4,8.4,1.5l-4.8-0.9c3.2,0.5,1,0.1-1.9-0.6
		c-0.7-0.2-1.5-0.3-2.2-0.5c-0.7-0.2-1.4-0.4-2-0.6c-1.2-0.3-1.9-0.6-1.7-0.6c-3.5-0.8-8.1-2-13.2-3.6c-2.5-0.8-5.2-1.7-8-2.6
		c-1.4-0.4-2.8-0.9-4.2-1.3c-0.7-0.2-1.4-0.4-2.1-0.6c-0.7-0.2-1.4-0.4-2.1-0.6c-2.4-1,2.1,0.6,0.9,0c-2.9-0.8-6.3-2-12.6-4.4
		l0.7,0.2c-2.2-0.8-4.2-1.6-6.2-2.4c-1.9-0.8-3.7-1.5-5.4-2.3c-1.7-0.7-3.4-1.4-5-2.1c-1.6-0.7-3.2-1.5-4.8-2.2
		c-3.2-1.5-6.4-3.1-10-4.8c-3.5-1.9-7.5-4-12.1-6.5l1.2,1.2c-4-2.1-4.7-2.8-6.5-4c-2.4-0.9,0.3,0.7,3.1,2.3c2.9,1.5,5.8,3,3.5,2.3
		c-2.5-1.7-9.4-5.8-16.1-9.6c-1.7-0.9-3.3-2-4.8-3c-1.5-1-3-1.9-4.3-2.8c-2.6-1.7-4.5-3.2-5.1-4c-5.7-4,1.3,1.8-4.5-2.2l-1.3-1.4
		l-1.7-0.6c-3.7-2.7-5.3-4.4-5.2-4.8c0.9,0.7,2.6,1.7,3.6,2.4c-1.1-1-2.6-2-4.1-3.1c-1.5-1.1-3.1-2.3-4.5-3.4c-3-2.2-5.6-4-6.4-4.7
		l5.1,4.3c-1.9-1.4-3.9-2.8-5.9-4.3c-2-1.5-3.9-3.2-5.9-4.8c-2-1.6-4-3.3-6-4.9c-1-0.8-2-1.7-3-2.6l-2.9-2.6
		c-1.9-1.7-3.9-3.5-5.8-5.2c-1-0.8-1.9-1.7-2.8-2.6c-0.9-0.9-1.8-1.8-2.8-2.6c-3.7-3.5-7.3-6.7-10.6-9.9l0.6,1.3
		c-5.1-4.8-7-6.9-8.8-9.2c-1.8-2.4-3.7-4.9-8.9-10.6l0.5,0.4c-1.2-1-2.5-2.3-3.7-3.7c-1.3-1.4-2.6-3-3.9-4.7c2.8,2.7-3.7-6.4,0-2.8
		c-1.3-1.4-2.3-2.5-3.1-3.5c-0.8-1-1.5-1.7-2-2.3c-1-1.2-1.6-1.7-2.1-2.1c-1-0.8-1.6-1-5.4-4.6l-0.7-2.4c-2.5-2.4-3-2.4-7.5-8.7
		c4.1,4.8-1.6-4.8,3.1,0.5c-0.9-1.8-1.8-3.5-2.7-5c-0.9-1.5-1.7-3-2.5-4.3c-1.6-2.6-3.2-4.8-4.7-6.8c-0.7-1-1.4-1.9-2-2.8
		c-0.6-0.9-1.1-1.8-1.6-2.7c-0.9-1.8-1.6-3.6-1.8-5.6c-5.8-5.2,5.4,12.9,3,9.5c0.3,0.8,0.1,1-0.3,0.7c-0.4-0.3-1.2-1.1-1.9-2.1
		c-1.5-2.1-3.5-5.2-4.6-7.5c-0.6-1.1-1-2.3-1.3-3.5c-0.2-0.6-0.3-1.3-0.5-2c-0.1-0.7-0.3-1.5-0.5-2.3c-0.7-3.2-1.8-7.3-4.6-13
		c0.5,1.2,0.8,1.1,1.3,2.3c-0.8-2.3-1.9-4.4-3.1-6.6c-1.2-2.2-2.3-4.6-3-7.5c-2.9-2.4-2.8-7.2-5.1-7.2l2.4,5.4l2.6,5.3
		c-0.8-1.5-1.7-2.9-2.7-4.3c-1-1.4-1.9-3-2.8-4.7c-0.9-1.7-1.9-3.5-2.8-5.6c-0.5-1-0.9-2.1-1.3-3.3c-0.2-0.6-0.4-1.2-0.6-1.8
		c-0.2-0.6-0.3-1.3-0.5-2c0.4,0.3,0.9,1.2,1.6,2.3c0.7,1,1.4,2.3,1.9,3.3c-0.3-1.6-1-3-1.6-4.5c-0.6-1.5-1.2-2.9-1.5-4.6
		c0.6,0,1.2,0.9,1.9,2.3c0.3,0.7,0.6,1.5,1,2.4c0.4,0.9,0.8,1.8,1.2,2.9c1.6,4,3.5,8.9,5.6,11.9c-0.5-3.5-6.4-12.1-2.9-9.6
		c-1.2-0.9-2-2.2-2.7-3.6c-0.3-0.7-0.7-1.5-0.9-2.3c-0.3-0.8-0.5-1.6-0.8-2.5c-1-3.5-2-7.4-4.5-11.2l1.4,0.1c-0.7-1.2-2-3.8-2.7-6.2
		l2.9,3.9c-1.7-3.2-2.3-6.5-2.8-9.8c-0.3-1.7-0.5-3.3-0.8-5c-0.3-1.6-0.6-3.3-1.2-4.9c0.4,1.7,0.7,3,0.9,4.1c0.2,1,0.4,1.8,0.4,2.3
		c0.1,1.1-0.1,1.3-0.3,1.2c-0.6-0.1-1.6-1.1-1.2,1.9c-1.7-4.1-2.3-6.8-2.6-8.9c-0.3-2.1-0.1-3.5,0.1-4.9s0.4-3,0.2-5.3
		c-0.1-1.2-0.2-2.6-0.4-4.2c-0.2-1.7-0.6-3.7-1.2-6c0.7,2.5,1.1,9.9-0.4,6c-0.4-3.7-0.8-8.6-0.5-11c-0.2-0.8-0.3-1.5-0.5-2
		c-0.1-0.6-0.2-1.1-0.3-1.5c-0.2-0.8-0.3-1.3-0.4-1.5c-0.2-0.5-0.4,0-0.5,0.8c-0.2,1.5-0.4,3.9-1.2,1.3c1.1-4.6-1.6-6.2-3.1-11.7
		l1.4-0.2c-0.2-1.8-0.3-3.3-0.4-4.4c-0.1-1.1-0.3-2-0.5-2.6c-0.4-1.2-0.8-1.6-1.2-2c-0.8-0.7-1.6-1.2-1.8-7.9l2.7,5.4l-1.3-6.8
		l1.8,1.3c-0.5-1.8-0.8-3.4-1.1-4.7c-0.2-1.4-0.4-2.6-0.4-3.8c-0.2-2.4-0.1-4.9-0.1-8.6c-0.5,0.9-1.2,0.7-1.8-0.6
		c-0.7-1.2-1.1-3.5-1.2-6.8c0.8-4.5,1.5,2.5,1.1-6.8c1,2.1,2.2,4.3,0.9,8.4c0.5,0.4,1,2,1.5,2.4c1-4.8,0-12,0-15.3
		c-0.1,1.3-0.1,2.8-0.3,3.6c-0.2-1.1-0.4-2.2-0.6-3.3l-0.4-3.3l-0.9-6.7c0.7-2.1,1.1-0.4,1.5,1.3c-0.1-2.7-0.7-4.6-0.8-8.6
		c1.2,1.1,2.6,0.9,3,6.5l-0.5-6.4c-0.2-2.1-0.1-4.2-0.2-6.4c0.6-0.8,2.1-6.4,2.4-4.7c0.3-1.7,0.4-3.7,0.4-5.8c0-1-0.1-2.1,0-3.2
		c0-1.1,0-2.2,0-3.4c0-4.6,0.1-9.6,1.2-14.1c-0.2-0.5-0.2-1.5-0.1-3.5c0.9-4.3,2.2-8.3,3.2-12.5c0.4-2.1,1.1-4.2,1.5-6.5
		c0.4-2.3,0.8-4.7,0.9-7.3l3.7-5.1c0.9-4-0.4-2.2-1.6-1.2c-1.1,1.1-2.2,1.5-0.7-5.2c1.9-9.5,3-2.9,4.6-5.9c0-1.2,0.1-2.7,0.1-4.3
		c0.1-1.6,0.4-3.4,0.7-5.3c0.7-3.7,2-7.9,4.4-11.7C133.9,382.1,132.8,384.1,132.1,386.8z M176.3,296.8c-0.4,0.9-1,2.3-1.6,3.6
		c-0.6,1.3-1.3,2.4-2.1,2.7c-0.2-1.5,0.1-2.5,0.7-3.4C174,298.8,175.1,298,176.3,296.8z M284.5,188.8c-0.9,1.3-3,2.3-5.5,3.1
		C280.5,190.8,282.3,189.7,284.5,188.8z M696.7,197.2c-0.1,0-0.1-0.1-0.2-0.1C693.2,194,694.3,195.2,696.7,197.2z M703.8,203.3
		c0.8,0.4,0.9,0.3,0.7-0.1c-0.7-0.2-2.4-1.4-4.2-2.9C700.6,201,701.4,201.9,703.8,203.3z M136.4,666c-0.2-0.6-0.4-1.2-0.5-1.8
		C138.1,667.7,137.3,666.8,136.4,666z"/>
	<path class="st2" d="M271.1,200.3c-0.6,0.1-0.9-0.1-1.2-0.3C269.4,200.7,269.6,201,271.1,200.3z"/>
	<path class="st2" d="M117.8,447.5c0,0.1,0,0.2-0.1,0.3c0.1,0.2,0.2,0.3,0.2,0.3C117.9,447.9,117.8,447.7,117.8,447.5z"/>
	<path class="st2" d="M571.7,150.3c-1.8-0.7-2.7-1.2-3.3-1.7C568.2,149,568.9,149.5,571.7,150.3z"/>
	<path class="st2" d="M742,235.1l-4.4-4.1c2.1,2,2.6,2.9,3.6,4.1C741.3,234.8,740.7,233.7,742,235.1z"/>
	<path class="st2" d="M771.2,278.2c0.6,0.6,1.1,1.4,1.7,2.1l0.2-0.4C770.9,276.9,769.1,275.1,771.2,278.2z"/>
	<path class="st2" d="M743.5,241.4c-0.2,0.5,0.5,1.3,1.5,2.4c1,1.1,2.4,2.5,3.9,4c-0.2-0.2-0.3-0.4-0.5-0.5c0.8,0,0.5-0.7-0.6-1.8
		c-0.5-0.6-1.2-1.2-1.9-1.9c-0.4-0.3-0.8-0.7-1.2-1.1C744.3,242.2,743.9,241.8,743.5,241.4z"/>
	<path class="st2" d="M749.5,248.6c0.9,0.9,1.8,1.9,2.6,2.8C752.8,251.4,751.2,250.2,749.5,248.6z"/>
	<path class="st2" d="M713.5,210.3c1.4,1.5,1.7-0.1,2.4,0.9C718.3,211.7,704.7,203.8,713.5,210.3z"/>
	<path class="st2" d="M743.7,245.9l-0.2-1.8l-2.3-1C742.1,243.9,743,244.9,743.7,245.9z"/>
	<path class="st2" d="M720.6,222.6l4.7,4.7c0.1-0.2,0.8,0.3,1.6,0.9C723.9,225.5,720.8,222.3,720.6,222.6z"/>
	<path class="st2" d="M726.9,228.2c1.6,1.4,3.1,2.8,4.1,3.4C730.2,230.9,728.3,229.3,726.9,228.2z"/>
	<polygon class="st2" points="737.1,239.7 735.9,238.1 732.6,234.8 	"/>
	<path class="st2" d="M663,180.7c-2.1-1.1-4.3-2.1-6.5-3.2c-0.9,0,0.7,1.2,3.2,2.4c0.8,0.3,1.9,0.7,2.6,1
		C663,181.1,663.4,181.2,663,180.7z"/>
	<path class="st2" d="M679.6,195.3c-1.5-1.3-1.4-1.6-2.1-2.6l-1.1,1.2L679.6,195.3z"/>
	<path class="st2" d="M661.7,184.6c-0.2,0-0.9-0.3-1.7-0.6c-0.8-0.3-1.8-0.6-2.4-0.8c-1.3-0.4-1.6-0.3,2.4,1.8
		C660.8,184.9,667.1,188.3,661.7,184.6z"/>
	<polygon class="st2" points="562.3,142.5 564,142.9 564.5,139.8 	"/>
	<path class="st2" d="M467.5,140.7c4.2,0.3,4.7-0.3,5.1-0.8c0.2-0.3,0.4-0.5,1-0.6c0.6-0.1,1.6-0.2,3.5,0.1c1-0.4-0.6-0.7-2.1-0.8
		c-1.5-0.1-3.1-0.3-2.1-0.7C467.8,139,465.1,138.6,467.5,140.7z"/>
	<path class="st2" d="M472.8,138c0.8-0.2,1.7-0.3,2.6-0.6C474,137.6,473.3,137.8,472.8,138z"/>
	<polygon class="st2" points="395.4,866 400.8,866.9 397.3,866.3 	"/>
	<path class="st2" d="M405.8,867.7l1.3,0.3l3.3,0.6C409.1,868.3,406.8,867.9,405.8,867.7z"/>
	<path class="st2" d="M188.8,287.5l-0.2-0.7c-1,0.3-1.8,1.2-3.3,3.2C186.5,289.2,187.6,288.3,188.8,287.5z"/>
	<polygon class="st2" points="149.8,348.3 150.3,347.2 147.5,348.4 	"/>
	<path class="st2" d="M130.7,405.8c0.8-2.3,1.1-5.3,1.9-7.6C131.5,403.5,128.1,405.8,130.7,405.8z"/>
</g>
<polygon class="st1" points="686.8,534.5 727.8,534.5 707.3,408.9 "/>
<path class="st1" d="M819.8,590c0-0.1,0.1-0.2,0.1-0.3c-0.1,0.3-0.3,0.5-0.4,0.7c-0.4,0.7-0.8,1.4-1.2,2c-3.1,5.7-6,12.6-8.4,20.1
	c-0.2,0.6-0.4,1.2-0.6,1.8c1.7-3.3,3.2-6.7,4.7-10C816.6,598.3,818.5,593.6,819.8,590z"/>
<g>
	<polygon points="347.8,335.6 289.2,335.6 222.6,449.2 222.6,335.6 167.7,335.6 167.7,654.4 222.6,654.4 222.6,553.7 238.7,525.3 
		296.2,654.4 360.6,654.4 272.8,466 	"/>
	<path d="M540.7,606c3,4.5,3,11.1,0.2,20.5c-1.7,5.7-3.9,11.1-6,16l2.2,11.9h53.6L648.5,336H590l-27.2,170.6L533.6,336h-58.5
		l-26.8,170.6L419.1,336h-58.5l61.9,318.4h53.4l29.6-173.7l21.6,119.1c0.6-0.1,1.3-0.1,1.9-0.1C533.9,599.7,538.1,602,540.7,606z"/>
	<path d="M789.1,608.3c1.6-5.1,3.5-10.2,5.9-15.8L745.6,336h-76.1l-62,318.4h57.4l13.4-73.2H736l13,73.2h32
		c0.1-5.2,0.6-10.8,1.5-17.1C783.9,627.8,786.2,617.7,789.1,608.3z M686.8,534.5l20.5-125.5l20.5,125.5H686.8z"/>
</g>
<path d="M895.6,663.6c-0.2-0.8-0.7-1.5-1.5-2c-0.8-0.5-1.7-0.7-2.6-0.5c-20.3,5.2-40.6,10.6-61,14.8c-7.9,1.6-24.4,7-29.8,2.7
	c-2.2-1.8-3.8-7.7-4.5-14.6c8.2-12.1,15.8-24.6,22.6-37.4c6.2-11.7,11.9-24.3,16.1-36.9c2.2-6.7,5.6-16.3,2.8-22.8
	c-1.1-2.6-3.4-3.9-6.2-3.7c-12.3,0.9-19.1,12.3-24.8,21.8c-3.9,8.1-7.3,16-9.9,24.3c-2.8,9-4.9,18.6-6.3,27.9
	c-1.2,8.2-1.9,16.9-1.3,25.4c-6.1,8.4-12.3,16.6-19.9,23.7c-6.1,5.6-12.3,9-15,8.2c-2-0.6-3.6-3-3.4-4.6c0.2-2.3,2.4-5.2,6.6-8.6
	c4.2-3.4,8.5-6.3,13.1-8.7c0.8-0.5,1.5-1.2,1.8-2c0.4-0.9,0.4-1.7,0.1-2.5c-0.3-0.8-0.9-1.3-1.7-1.6c-0.8-0.3-1.8-0.1-2.7,0.4
	c-1.6,0.8-3.3,1.8-5.3,3c-1.6,1-3.6,2.3-6,4c-0.3-0.7-0.9-1.2-1.7-1.4c-0.9-0.2-1.8-0.1-2.6,0.4c-2.9,1.6-6.4,3.6-10.6,5.8
	c-6.6,3.5-13.5,6.6-20.2,9.5c-6.6,2.9-13.7,6.1-21,7.3c-0.1,0-0.1,0-0.2,0c-5.7,0.9-10.7-0.2-15-3.4c0.5-1.3,0.7-2.5,0.7-3.6
	c0-0.6,0-1.1-0.1-1.6c-0.1-0.5-0.2-0.9-0.4-1.4c-0.2-0.5-0.5-0.8-0.8-1.1c-0.4-0.3-0.7-0.5-1.1-0.7c-0.4-0.2-0.8-0.4-1.3-0.5
	c-0.5-0.2-1-0.2-1.6-0.1c-2.3,0.1-4,1.1-5.1,2.8c-1.2,2-1.1,4.3,0.4,6.8c0.2,0.4,0.5,0.9,0.9,1.5c-0.2,0.4-0.5,0.7-0.7,1
	c-2.4,3.2-4.7,4.9-6.7,5.2c-1.7,0.3-2.8,0.2-3.3-0.2c-0.5-0.4-0.7-1.9-0.7-4.6c0-0.3,0-0.4,0-0.7c0-0.6,0.2-1.3,0.5-2.1
	c0.3-0.1,0.5-0.3,0.8-0.4c1-0.5,1.6-1.3,1.9-2.2c0.2-0.7,0.3-1.4,0.2-2.1c0.7-0.9,1.3-1.4,1.8-1.6c0.8,0,1.7-0.4,2.4-1
	c0.8-0.7,1.2-1.5,1.4-2.3c0.2-1,0.1-1.8-0.5-2.5c-0.5-0.6-1.3-1-2.3-1.1c-2-0.1-4.2,1.1-6.3,3.2c-1.4,1.4-2.8,3.2-4,5.3
	c-2.3,1.3-4.8,2.7-7.7,4.3c-6.5,3.6-13.4,6.8-20.2,9.7c-6.7,2.9-13.7,6.1-21,7.3c-0.1,0-0.1,0-0.2,0c-5.7,0.8-10.7-0.4-15-3.6
	c0.5-1.3,0.7-2.5,0.7-3.5c0-0.6,0-1.1-0.1-1.6c-0.1-0.5-0.2-0.9-0.4-1.4c-0.2-0.5-0.5-0.8-0.8-1.2c-0.4-0.3-0.7-0.6-1.1-0.8
	c-0.4-0.2-0.8-0.4-1.3-0.5c-0.5-0.2-1-0.2-1.6-0.1c-2.3,0.1-4,1-5.1,2.7c-1.2,2-1.1,4.3,0.4,6.8c0.2,0.5,0.5,1,0.9,1.5
	c-0.2,0.4-0.5,0.7-0.7,1c-2.4,3.1-4.7,4.8-6.7,5.1c-1.7,0.2-2.8,0.1-3.3-0.3c-0.5-0.4-0.7-2-0.7-4.6c0-0.3,0-0.4,0-0.7
	c0-0.7,0.2-1.5,0.7-2.5c0.8-0.4,1.4-0.9,1.9-1.7c0.4-0.7,0.5-1.4,0.4-2c0.1-0.1,0.2-0.2,0.2-0.3c0.8-0.9,1.4-1.5,1.9-1.7
	c0.8,0,1.7-0.3,2.4-1c0.8-0.6,1.2-1.5,1.4-2.3c0.2-1,0.1-1.8-0.5-2.5c-0.5-0.7-1.3-1.1-2.3-1.1c-2-0.2-4.2,1-6.3,3
	c-1.3,1.2-2.6,2.8-3.7,4.6c-3.9,1.6-8.7,3.5-14.3,5.7c-11.8,4.6-23.9,8.6-35.9,12.4c-14.3,4.5-28.9,8.7-43.8,11.4
	c1.3-4.8,2.7-9.4,4-14c0.4-0.3,0.7-0.6,0.9-0.9c4-5.9,7.9-11.9,11.7-17.9c5-8,9.9-16.2,14.6-24.3c5.1-8.8,10.2-17.9,14.6-27
	c3.5-7.3,6.8-14.8,9.2-22.6c2.1-7.1,2.3-11.9,0.7-14.4c-1.6-2.4-4.2-3.4-7.8-2.7c-4.1,0.8-8.7,5.3-13.7,13.1
	c-6.1,9.6-10.8,20.2-15,30.7c-5.1,12.8-9.7,25.9-14,38.9c-4.5,13.9-8.6,28.1-12.5,42.3c-6.8,0.9-12.6,1.4-17.6,1.5
	c-0.4,0.1-0.5,0.1-0.9,0.2c-3,0.9-4.8,2.5-5.3,4.9c-0.4,2.3,0.8,5,3.4,7.6c2.7,2.6,7.3,6.2,13.8,10.5c-3.6,14.5-9.8,31.1-9.2,45.5
	c0.1,1.3,0.5,2.5,1,3.4c0.5,1,1.2,1.6,2,2c0.8,0.4,1.6,0.5,2.4,0.5c0.1,0,0.1,0,0.2,0c7.1-2.2,11.8-8.8,15.8-14.6
	c4.5-6.7,9.5-14.2,11.2-22.3c0.5-0.9,0.7-1.7,0.7-2.6c0-1.3-0.7-2.7-2.1-4.2c-1.4-1.5-3.1-3-5.1-4.5c-2-1.5-5.1-3.6-9.3-6.3
	c1.3-4.9,2.7-10.1,4.2-15.6c15.1-2.6,29.9-6.7,44.4-11.2c12.5-3.9,25-8,37.3-12.8c4.3-1.7,8.1-3.2,11.5-4.6c0,0.1,0,0.2,0,0.3
	c0,0.3,0,0.4,0,0.7c0,4.5,0.9,7.5,2.7,9.1c1.8,1.6,4.5,2.1,8,1.7c4.2-0.6,8.3-3.4,12.1-8.6c5.4,3.8,11.7,5.2,18.7,4.2
	c0.1,0,0.1,0,0.2,0c7.7-1.3,15.1-4.4,22.1-7.5c7-3.1,14.1-6.3,20.8-9.9c1.2-0.6,2.3-1.2,3.4-1.8c0,4.4,0.9,7.4,2.7,8.9
	c1.8,1.5,4.5,2,8,1.4c4.2-0.7,8.3-3.6,12.1-8.8c5.4,3.7,11.7,5,18.7,3.9c0.1,0,0.1,0,0.2,0c7.7-1.4,15.1-4.5,22.1-7.6
	c7-3.1,14.1-6.2,20.8-9.7c1.3-0.7,2.6-1.3,3.8-2c-1.8,2.5-2.9,5-3.2,7.4c-0.5,4.3,1.8,8,6.9,10.6c0.1,0.1,0.2,0.2,0.4,0.3
	c0.2,0,0.3,0.1,0.5,0.1c1.2,0.2,2.5,0.2,3.8,0c14-2.1,25-17.4,33.2-27.6c0.5-0.5,1-1.1,1.4-1.8c1.1,4.7,2.6,8.5,4.7,11.2
	c1.9,2.4,6.8,3.4,14.5,2.8c9.5-0.7,18.9-2.6,28.1-4.8c9.8-2.3,19.7-4.7,29.5-7.1c8.7-2.2,17.3-4.3,26-6.5c0.8-0.1,1.5-0.6,2-1.5
	C895.6,665.3,895.8,664.5,895.6,663.6z M511.4,636.9c3.7-8.1,7.8-20.1,16.9-24c0.2,0,0.4,0,0.5-0.1c0.3,0,0.4,0,0.7-0.1
	c1.3,1.1,0.7,5.3-2,12.3c-3.8,10-8.7,19.7-13.8,29.1c-7.3,13.5-15.1,26.7-23.2,39.8C496.7,674.8,503.1,655.2,511.4,636.9z
	 M455.9,739.5c4.2,0,9.1-0.4,14.5-1.2c-0.8,3.3-1.8,6.9-2.7,10.8C461.1,744.6,457.1,741.4,455.9,739.5z M482.6,767.9
	c0,0.6,0,0.9,0,1.5c0,2.7-2.4,7.9-7.3,15.7c-4.9,7.8-8.9,12.7-11.9,14.8c1-13.5,5.1-27,8.3-40.1
	C477.6,763.7,481.2,766.4,482.6,767.9z M797.9,632.1c1.3-7.6,3.4-15.5,5.7-22.8c2.3-7.2,5.4-14.8,9.1-21.5c4.2-6.9,9-16.7,17.8-17.7
	c0.1,0,0.3,0,0.5,0c0.1,0,0.2,0,0.4,0c0.4,0.7,0.6,1.7,0.7,3.1c0.1,1.4-0.3,3.8-1.2,7.2c-0.9,3.4-2.1,7.1-3.4,11.1
	c-1.4,4-3.4,9-6.1,14.9c-2.8,6.3-5.9,12.6-9.2,18.7c-5.2,9.6-10.5,19-16.3,28.2C795.9,646.2,796.7,638.9,797.9,632.1z"/>
</svg>
