<?xml version="1.0" encoding="utf-8"?>
<!-- Generator: Adobe Illustrator 22.0.1, SVG Export Plug-In . SVG Version: 6.00 Build 0)  -->
<svg version="1.1" id="Capa_1" xmlns="http://www.w3.org/2000/svg" xmlns:xlink="http://www.w3.org/1999/xlink" x="0px" y="0px"
	 viewBox="0 0 1000 1000" style="enable-background:new 0 0 1000 1000;" xml:space="preserve">
<style type="text/css">
	.st0{fill:#FFFFFF;}
	.st1{fill:none;}
	.st2{fill:#211915;}
</style>
<g>
	<g>
		<path class="st0" d="M551.4,866.9c-0.2,0-0.2,0-0.3,0C551.7,866.9,551.4,866.9,551.4,866.9z"/>
		<path class="st0" d="M557.4,866.2L557.4,866.2c0.2,0,0.5-0.1,0.8-0.2L557.4,866.2z"/>
		<path class="st0" d="M563,865.5c-0.3-0.2-0.8-0.1-1.4,0c-0.5,0.1-1.2,0.3-1.7,0.3l-0.2-0.1c-0.1,0.1-0.2,0.3-0.4,0.4
			C560.6,866,562.1,865.5,563,865.5z"/>
		<path class="st0" d="M566.3,866.6c-0.3-0.3,0.6-0.3-0.7,0c0.1,0,0.1,0,0.1,0.1C565.9,866.6,566,866.6,566.3,866.6z"/>
		<path class="st0" d="M565.7,866.6C565.1,866.7,566.2,866.8,565.7,866.6L565.7,866.6z"/>
		<path class="st0" d="M568.5,866.3l-0.7,0.3c0.2,0.2,0.9,0.1,0.7,0.3C569.2,866.7,569,866.5,568.5,866.3z"/>
		<path class="st0" d="M569.1,865.6l-0.4,0.2C568.8,865.8,568.9,865.8,569.1,865.6z"/>
		<path class="st0" d="M567.9,866.1l0.8-0.3c-0.1-0.1-0.2-0.4-0.4,0.1C568.3,865.7,568.2,865.9,567.9,866.1z"/>
		<path class="st0" d="M567.4,866.1c-0.5-0.1-1.1-0.1-0.3-0.5C565.6,865.8,565.9,866.3,567.4,866.1z"/>
		<path class="st0" d="M563.1,864.9l-0.6-0.1l-0.5,0.3C562.3,865,563.2,865.1,563.1,864.9z"/>
		<path class="st0" d="M573.5,866.2c0-0.2-0.4-0.5-0.5-0.7l-0.5,0.3C572.8,865.8,573.4,865.9,573.5,866.2z"/>
		<path class="st0" d="M573,865.4l0.8-0.5C573,865.1,572.9,865.2,573,865.4z"/>
		<path class="st0" d="M569,864.7c-0.4,0.3-0.8,0.6-1.3,0.8c0.5-0.3,1-0.6,1.5-0.9L569,864.7z"/>
		<path class="st0" d="M576.9,865.9l-0.4,0.6c0.2-0.3,0.5-0.6,0.7-0.9L576.9,865.9z"/>
		<path class="st0" d="M579.1,865.5c-0.2,0.5,0.7,0.7,0.4,1c0.6-0.1,1-0.6,1.4-1C580.4,865.8,579.8,865.8,579.1,865.5z"/>
		<path class="st0" d="M581.4,864.9c-0.2,0.1-0.4,0.4-0.6,0.6C581,865.4,581.3,865.2,581.4,864.9z"/>
		<path class="st0" d="M575.3,864.9c0.1,0.1,0.3,0.4,0.8,0.5l-0.5-0.6C575.5,864.8,575.4,864.9,575.3,864.9z"/>
		<path class="st0" d="M575.6,864.8L575.6,864.8c0.4,0,0.7,0,0.8-0.1C576.2,864.8,576,864.8,575.6,864.8z"/>
		<path class="st0" d="M575.2,864.9C575.2,864.9,575.2,864.9,575.2,864.9C575.2,864.8,575.2,864.8,575.2,864.9z"/>
		<path class="st0" d="M571.4,864.8c0.4-0.4,1.4-0.9,0.3-1.2C571.3,864,572,864.2,571.4,864.8z"/>
		<path class="st0" d="M574.6,864.2l-0.9,0c0.1,0.1,0.3,0.3,0.1,0.5L574.6,864.2z"/>
		<polygon class="st0" points="574.9,863.9 574.6,864.2 574.9,864.2 		"/>
		<path class="st0" d="M579.7,864.5c0.3-0.4,0.7-0.5,1.2-0.6c-0.6-0.1-1.1,0-1.6,0C579.2,864.2,579.1,864.6,579.7,864.5z"/>
		<path class="st0" d="M577.7,864.6C577.7,864.6,577.7,864.6,577.7,864.6C577.7,864.5,577.6,864.5,577.7,864.6z"/>
		<path class="st0" d="M585.7,863l-0.1-0.1C585.6,862.9,585.6,863,585.7,863L585.7,863z"/>
		<path class="st0" d="M579.1,863.8c-0.4-0.1-0.6,0.1-0.8,0.4c0.3-0.1,0.6-0.2,0.9-0.3C579.3,863.9,579.2,863.8,579.1,863.8z"/>
		<path class="st0" d="M582.7,864.4c-0.3-0.1-0.5-0.2-0.8-0.3C582.2,864.3,582.7,864.6,582.7,864.4z"/>
		<path class="st0" d="M577.9,864.7C577.9,864.7,577.9,864.7,577.9,864.7C578,864.9,578,864.8,577.9,864.7z"/>
		<path class="st0" d="M577.9,864.7c0.2-0.1,0.3-0.3,0.4-0.5c-0.2,0.1-0.4,0.2-0.6,0.3C577.8,864.6,577.9,864.6,577.9,864.7z"/>
		<path class="st0" d="M585.6,857.5c0.2,0.8-0.6,1.8-1.7,1.2c-0.7,0.8,0.6,3,1.7,4.1c-0.1-0.3-0.2-0.6,0.6-1.3
			c-0.4-0.3-2.2-0.4-1.7-1.3c1-0.7,1,0,1.7,0.2c-0.8-0.8,1.1-1.8,0.4-3.1l-0.8,0.8C585.6,858.1,585.9,857.6,585.6,857.5z"/>
		<path class="st0" d="M583.8,863.2l-0.3,0.2c0.5,0,0.8,0.2,1.6,0.7c0.5-0.5,0.6-0.8,0.5-1l-1.8,0.3L583.8,863.2z"/>
		<path class="st0" d="M581.8,863.6c0.1-0.8,0.9-1.3,0.1-2c-1.1,0.3-0.6,0.8-1.1,1.2C582.5,862.4,580.4,863.4,581.8,863.6
			c-0.3,0.1-0.7,0.2-0.9,0.3c0.3,0,0.7,0.1,1,0.2c0,0,0,0-0.1,0l0,0l0,0c-0.1-0.1-0.1-0.1,0-0.1c0,0,0,0,0,0
			C581.8,863.8,581.8,863.7,581.8,863.6c0.6,0.1,0.1,0.2,0,0.3c0,0,0,0.1,0,0.1l0,0c0.6-0.2,1.1-0.4,1.6-0.7
			C583.1,863.3,582.6,863.4,581.8,863.6z"/>
		<path class="st0" d="M572.2,862.2c0.1,0,0.1,0.1,0.1,0.1C572.4,862.2,572.4,862.2,572.2,862.2z"/>
		<path class="st0" d="M573,862.4c-0.1,0.1-0.1,0.4-0.6,0.4c-0.4-0.1-0.1-0.3-0.1-0.4c-0.2,0.2-0.8,0.6,0.1,0.7l0.1-0.1
			c0.7,0,1.8,0.6,1.7,0.7C573.9,863.1,573.6,862.8,573,862.4z"/>
		<path class="st0" d="M577.4,862.7l1.4-0.6l-0.9-0.4l0.1,0.3C577.1,862,577.4,862.4,577.4,862.7z"/>
		<polygon class="st0" points="586,863.4 586,864.3 586.5,862.9 		"/>
		<polygon class="st0" points="587.8,862.9 588,863.7 588.4,863.1 		"/>
		<path class="st0" d="M678.5,805.2l0.1-0.6C678.5,804.8,678.5,805,678.5,805.2z"/>
		<path class="st0" d="M675.9,806.8l0.3,0.6C676.1,807,676,806.7,675.9,806.8z"/>
		<path class="st0" d="M633.5,849c1.1,0.9,2.5,2.3,1.9,1l-0.8-1.2C634.3,849.2,633.9,849.2,633.5,849z"/>
		<path class="st0" d="M658.5,826.8c-0.1-0.1-0.3-0.2-0.4-0.3c0.1,0.5,0.2,1,0.4,1.5C658.5,827.6,658.5,827.2,658.5,826.8z"/>
		<path class="st0" d="M655.8,821l1.2,0.5C656.6,821.2,656.2,821.1,655.8,821z"/>
		<path class="st0" d="M691.5,794.7l-0.5-1.4C690.4,793.7,691.1,794.1,691.5,794.7z"/>
		<path class="st0" d="M607,857.8c0.7,0.3,1.2,0.3,1.6,0.3C607.7,857.7,606.9,856.9,607,857.8z"/>
		<path class="st0" d="M686.5,819.3c0.1-0.4,0-0.7-0.2-1C686.2,818.7,686.2,819.1,686.5,819.3z"/>
		<path class="st0" d="M610.2,857.7c-0.1-0.1-0.2-0.1-0.4-0.2c-0.3,0.3-0.7,0.6-1.2,0.6C609.3,858.5,609.9,858.6,610.2,857.7z"/>
		<path class="st0" d="M740.9,759.1c0.1,0,0.1,0,0.2,0C741,759,741,759.1,740.9,759.1z"/>
		<path class="st0" d="M756.1,748.8c-0.1,0.2-0.3,0.4-0.4,0.6C755.8,749.3,755.9,749.1,756.1,748.8z"/>
		<path class="st0" d="M595.6,861.7C595.2,861.8,595.6,861.8,595.6,861.7L595.6,861.7z"/>
		<path class="st0" d="M592.5,858.5c0.1-0.1,0.1-0.3,0-0.5C592.5,858.2,592.5,858.4,592.5,858.5z"/>
		<path class="st0" d="M611.3,849.3C611.3,849.3,611.3,849.3,611.3,849.3C611.2,849.1,611.2,849.1,611.3,849.3z"/>
		<path class="st0" d="M594.9,861.4c0.2,0.1,0.4,0.1,0.6,0.2C595.4,861.5,595.2,861.4,594.9,861.4z"/>
		<path class="st0" d="M595.1,861.8c-0.2,0-0.3,0-0.4,0C594.7,862,594.8,862.1,595.1,861.8z"/>
		<path class="st0" d="M596.2,861.5c-0.2,0.1-0.5,0.1-0.7,0c0.1,0,0.2,0.1,0.1,0.1C595.7,861.6,595.9,861.6,596.2,861.5z"/>
		<path class="st0" d="M717.1,781.7c0,0,0.1,0,0.1,0C717.3,781.1,717.2,781.3,717.1,781.7z"/>
		<path class="st0" d="M636.6,830.9C636.6,831,636.6,831,636.6,830.9c0,0.1,0,0.1,0.1,0.1L636.6,830.9z"/>
		<path class="st0" d="M637.4,829.3c0.3,2-0.1,1.9-0.7,1.8l2.3,3.6L637.4,829.3z"/>
		<path class="st0" d="M684.4,800.9l-1.6-0.6c-0.3-2.5,0.9-2.3-1-3.3c2.6,3.9-3,2.4-0.4,6.4l-1.1-0.5c0.2-0.1,0.1-0.3,0.2-0.4
			c-2.3-1.2,1.1,3.3-0.6,3.7c-0.7,0-1.4-0.3-1.4-1l-0.4,1.7c-0.4,0.1-0.7-0.6-0.4-0.7l-1.4,1.4l-0.1-0.1c0.2,0.8,0.3,2.1,0.3,2.7
			c-0.8-0.3-0.1-0.6-0.5-1c-0.1,0.5-0.2,1-0.3,1.6c-1.1-0.8-0.9-2.3-0.2-2.5c-3.5-3.5-0.1,1.5-3.5,0.3l0.5-1c-2-2-2.2-0.7-4.1-1.6
			c0.7,0.6,4.3,2.5,3.9,4.1c-0.5-0.1-0.9-0.1-1,1.1c-0.9-1.5-1.2-0.8-1.8-0.3l-1.2-2c-0.4,1,0.3,1.9,0.4,3.1c-0.9,0.3-2-1.1-3-2.3
			c-1.5,0.5,2.4,1.9,1.1,3.2c-1.5-0.1-1.8,1.2-2.3,3.1c-1.1-0.2-0.6-1.3-1.2-1.7l0.3,2c-0.2,0.1-0.4-0.5-0.5-0.7
			c-0.2,1,1.1,2,0.6,3.1c1,2.3-3.7-2.2-3.4,1c-0.6-0.4-0.6-1.3-1.1-2c-0.6,2.5-0.6,1.9-0.6,4.8l-1.8-0.7c1.6,1.1,1.6,3.4,1.6,5.4
			c0.7,0.6,1.3,1.1,1.6,1.3l-0.8,1.9c-0.4-0.2-0.6-1-0.8-2c0,0.2,0,0.4,0,0.6c-0.9-0.5-1.3-1.8-1.6-3.1c0.4,0.3,0.8,0.6,1.2,0.9
			c-0.3-1.4-0.8-2.9-1.5-4.1c0,0.3,0,0.6-0.2,0.8c-0.1-0.4-0.2-0.7-0.4-0.9c-0.2-0.2-0.1,0.3,0,1l-1.6-2.1l0.4,0.9l-2.6-0.4
			c0,1.5,0.1,3.2,0.1,4.9c0,1.6-0.3,3.1-1.1,4.1c-0.3-1.9-1.3-2.7-2.3-4.7c1.7,1.8,1.2-1.7,2.4-1.9c-0.7,0.1-1.1-0.9-1.1-1.3
			c-0.3,1-0.6,2-0.9,2.9c-0.8-1.6-1-1-1.9-1.4c2.1,2.9-0.3,2.9-0.6,4.2c-0.6-1-1-2.2,0.1-2.5c-2.3-1.8,0.6,4.4-1.5,3
			c0.2-0.2,0.4-0.1,0.3-0.6c-0.1,1.2-1.8,1.2-2,0.1l0.2-0.1c-1.8,0.5-4.8,2.5-3.7,5.3c-0.2-0.3-1.4-3.3-1.5-3.9
			c0.5,3.4,1.1,6.9,1.5,10.3c-0.8-2.4-4.4-7.3-3.7-9.2c-0.5-0.1-1.2-0.3-1.6,0.9c0.4,0.2,2.2,2.9,2,3.3c-2.2-2-1.3-1-3.5-2.6
			c0.6,0.3,1.9,4,1.2,4.2c-0.2-0.6-1.7-3.4-1.6-3.9l0.1,4.2c0.1-0.8-1.3-2.9-2.1-3.7c0.5,0.6-1.3,0.6-1.6,1.1l1,0.5
			c-1.9,0.3,0.5,5.6-1.3,6.2c-0.1-0.8-1.4-4.5-2.5-4.5c0.4,1.9,1.9,9.1,0.9,11.1l-0.7-0.8l-0.8,1.6c-0.2-1.4-0.3-3.6-0.4-5.9
			c-0.1-2.3-0.1-4.5-0.1-5.9c-1-0.5-0.7-1.1-1.6-0.5c-0.7-0.7-0.1-1.7,0.2-1.9l-2.4,0.6c1,1.9-0.9,2.8-0.1,4.4
			c0.5-1,1.1-2.1,1.6-3.2c0.5,1,0.8,2.5,0.7,3.9c-0.1,1.4-0.5,2.5-1.4,2.7c-0.7-0.6-1.2-3.6-1.5-4.2c0.1,0.8-1,2-1.3,1.6l0.2-1.3
			c-1.2-0.3-0.4,3.2-2.2,1.9c-0.4,0-2.1-1.9-1.7-0.8c1.5,1.9,4.4,8.6,4.7,10.4c-0.2-0.1-2.9-1.3-3.8-2.2c-1.3-1.4-0.7-4.4-1.8-5.6
			c0.2,0.5,0.1,1.3,0,1.6c-0.6-0.3-0.5-1.7-1.2-1c0.6,2-1.8,0.6,0.2,1.8c-0.6,0.9-1,0-2,0.5c0.8,1.1,0.7,4.5,0,5.3
			c-0.1-0.5-0.6-1-0.8-1.2c-1.8,0.5-3.1,0-4.8,0.6c-0.3-0.4-1.3-0.6-1.2-1.5c-0.1,0.4-0.1,1.1-0.6,1.3c-1.5-1.1,1-0.7-0.4-2.2
			c0.3,1-0.8,1.9-1.3,2.8c0.8,1.4,1.8-0.3,2.3-1.3c0.8,2.2,0.4,4.9-1.1,6.4c-1.2,1-1.1-1.1-1.2-0.8c-2.7,0.5-1,4.2-3.7,3.5
			c-1.3-1-0.9-2.5-1.4-3.3c1-0.9,2,0.2,2.8-0.1l-1.2-0.3c0.2-0.5,0.9-1.1,1.4-0.9c-1.1-0.9-4.4,1.4-6.8,1c-0.2,0.5-0.7,1.1-0.3,1.5
			l0.6-0.4c0.9,0.8-0.8,1.7,0.2,1.9c-0.7,0.9-1.3,2.2-2.7,2l-0.6-1.2c0.1,0.4,1.1,0.5,1.3,0.1c-0.3,0.7-2.4-1.2-2.5,0.6l1.1,0.6
			c-0.7,0.9-1.4,2.4-2.6,2.3c0.9,1.1,0.2-0.2,1.4,1c-1.2-1.6,2.9-0.5,1.2-2.2c1.4,1.5,1.6,0.4,3.2,1.7c-0.2-0.4-0.6-0.7,0.4-0.7
			c0-0.1,0-0.3,0.1-0.4c0,0,0,0,0.1,0c0,0,0,0-0.1,0c0-0.1,0-0.1,0,0c-0.3-0.1-0.5-0.3-0.7-0.6c0.1-1.1,1.6-1.4,2-2.1
			c0.6,0.1-0.1,0.6,0.4,1l0.5-1c0.4,1,2,1.3,0.9,2.2c0.4-0.1,0.8-0.1,1.2-0.2c0.9,0.4,1.9,0.4,2.4-0.2c0.6,0.1,1-1.6,0.8-0.6
			l1.6-1.2l0.1,0.3c1.9-0.3,3-2.9,5.9-1.5c0.5-0.5,1-1,2.1-1l0.6,1c0.3-0.3,1-0.2,1.6-0.2c0.6,0,1.1-0.1,1.1-0.7
			c1.9,2.6,4-0.6,5.6-0.6l-0.5-1.4c1-0.2,1.7-1,2.6-1.9l-0.6-1.3c0.5-1.4,2.9,0,4.4-0.7c0.1,0.5-0.3,0.6-0.8,0.4
			c1.6,1.1,2.3,0.3,3-0.8c0.7-1,1.3-2.2,2.6-1.4c0.2-0.7,0.6-0.6,1-0.4c0,0-0.1,0.1-0.1,0.1c0,0,0.1,0,0.2-0.1
			c0.3,0.2,0.6,0.3,0.9,0.5c-0.3-0.3-0.6-0.5-0.8-0.5c0.3-0.2,0.7-0.5,1-1.1l0.9,1.4c0,0,0.1,0,0.1-0.1c0.7,0.3,0.1-0.8-0.7-1.8
			c0.1-0.3,0.2-0.7,0.2-1.1c1.5,2.2,0.9-1.3,2.5,1c-0.2-1.4,2-1.9,1-4.7c0.2,0.3,0.4,0.4,0.1,0.6c0.7,0.1,1.3,0.1,1.4-0.8l1.1,1.8
			l-0.1-3c1.2,0.8,1.9,1.4,1.9,3.1c0.6-3,0.9-1.5,1.2-4.4l0.5,1.3c0.5-0.3,0.4-2.3,1.2-1.5c2.3,1.8,5.6-2.4,9.6-1.6
			c-2.5-3.4,2.2,1,0.8-1.9c0.6,0.8,1.3,1.1,1.2,2.1c1-1.6,2.9,0.2,2.6-2.7c0.6,0.8,0.4,1.4,0.8,1.9c0-0.3,0-1,0.5-0.6
			c0.4,0.4,0.2,0.8,0.2,1.3c1.4-1,0.1-3.7-1.2-6.3c1.4,0.8,1.7,0.4,1.3-1.5c0.7,0.7,1.6,1.3,0.9,2.1c0.6-0.2,3.8-0.5,2.7-2.6
			c0.4,0.4,0.8-0.2,0.8-0.6c1.2-0.5,1.4-0.4,2.4-1.2l-0.5-0.2c-1-2.6,0.6-1,1.3-1.9l0.1,0.3c3,0.5,0.4-1.4,3.5-0.6l-1-1.4
			c-1.7-3.3,2.9,0.8,3.3-1.1l-0.9-0.6c-0.1-1.5,4.4,3.2,5.3,3.2c0.3,0.2,0.1,0.6,0,0.9c2.8,0.8-1-2,0-3.3c0.9,0.9,1.4,2.8,2.3,2.4
			c0.9,0.6,0.3-4.8,2.6-3.6c-0.8-0.6-1.5-1.2-1.3-2.2c0.7-0.8,4.2,1.3,3.4-1.6c0.2,0.1,0.4,0.3,0.6,0.5c0.2-1.1,1.4-2.5,0.9-4.1
			c1.9,2.2,2.5,0.9,3-0.4c0.5-1.3,0.9-2.5,2.4-0.4l1.8-1.6l0.3,0.5c1.5-0.6,1.2-2,0.9-3.3c0.5,0.1,0.6,0.6,0.7,0.9
			c2.4-0.5,2.4-0.9,2.4-4.1l1.1,1.2c-0.2-1.1,4.1,0,4.7-2.9c0.1,0.2,0.2,0.4,0.2,0.7c0.4-1.5,2.2-1.6,3.6-1.9c1.4-0.4,2.2-1,0.9-3.5
			l0.4-2.1c-1.9,1-1.3-2.1-2.5-2.3c0.4-0.8,2.7-0.1,2.1,0.8l-0.3-0.1c1.5,2.5,2.6-0.9,3.8,0.6c3-2.9,7.1-4.3,9.9-7.1l-1.6-1.2
			l1.1-0.9c0.6,0.1,1.3,0.8,0.6,1.4c1.1,0.5,0.6-1.9,0.3-2.2c1.9-0.7,1,2.2,1.4,1.8l0.5-0.7l-0.3,0c-0.1-1-0.6-1.7,0.3-2.5
			c0.8-0.2,1,0.6,1.3,0.4c0.1,0.1,0.2,0.1,0.4-0.3l1.3-1.1l-1.5-0.6c0.1-1.1,1.2-1.1-0.4-1.7c1.3,0.5,2.5-0.4,3.7-1.5
			c1.1-1.1,2-2.3,2.4-2.3c0.1-1.5,0.8-2.2,1.8-3.1c-0.4,0.1-1.5-0.8-0.6-1.5c1.7,2.3,2.3-0.6,4.2,0.1c-1.4-0.3,1.9-2.6-0.2-2.9
			c0.8-0.5,0.7,0.6,1.6,0.5c0.4-1.2,1.4-1.9,2.3-2.8c1-0.8,2-1.7,2.8-2.9c-0.2-0.2-0.8-0.2-0.7-0.9c0.6-0.1,1.3-0.1,1.9-0.2
			c0.2-0.5-0.7-1.4,0.5-1.6c-0.2,0-0.6-0.1-0.4-0.4c1.1-0.8,2-1.8,2.8-2.9c0.8-1.1,1.7-2.2,2.5-3.3c1.6-2.3,3.3-4.4,5.1-6.5
			c-0.5,0.5-0.3,0.1,0-0.4c-0.2,0.3-0.1-0.1-0.3-0.1c0.5-0.5,1-1.1,1.5-1.7c0-0.2,0.4-0.7,0.7-1.2c0.3-0.5,0.7-1,0.7-1.1l-0.4,0.6
			c0.2-0.4,0-0.2-0.3,0.1c-0.3,0.3-0.8,0.6-0.8,0.5c-0.3,0.4-0.9,0.9-1.5,1.4c-0.6,0.5-1.4,1-1.8,1.8c-0.4,0.2,0.1-0.3-0.1-0.3
			c-0.2,0.4-0.5,0.9-1.3,1.5l0-0.1c-2,1.9-3.1,2.6-5.7,4.4l0.5,0.2c-0.6,0.4-0.8,0.4-1.1,0.5c0,1,1.5-1.2,1.6-0.2
			c-0.7,0-1.6,0.7-2.5,1.5c-0.9,0.7-1.8,1.4-2.5,1.1c-0.8,0.7,0.8,0.3,0,1l-0.5-0.1l0.2,0.5c-0.6,0.4-1.2,0.2-1.5,0
			c0.2-0.1,0.3-0.4,0.4-0.5c-1.1,0.2-1.8,1.7-2.1,1.8l1-0.4c-0.9,1.1-2.2,2-3.3,3.1c-1.2,1-2.3,2-3,3.3l0.5,0.2
			c-1,1.9-1.6,0.7-3.1,2.5l0-0.1c0,0.6-0.3,1.2-0.8,1.6c0.1-0.8-1.6-0.1-1.4-1c-1.1,2.1-0.4,1.2-0.2,3.6l-0.8-0.4
			c0.1,0.9,0.4,1.2-0.3,2.1c0.2-1.2-1.4-0.5-1.3-1.9c-1.5,0.1-1.9,1-2.2,1.7c-0.3,0.7-0.6,1.3-2,0.5c0.8,2.5,2.6-0.3,2.4,0.5
			c0.9,0.3,0.5,1.9-0.2,2.2c-0.6,0.5-3.2-1.6-4.7-0.4c0.2-0.1,0-0.3,0.2-0.4c-1-0.1-0.5,1.5-1.9,1.3c0.7,1.5-1,0.6,0.3,2.3l1-1.5
			c-0.4,1,0.5,3.5-1.6,3.6c-0.2-0.4-0.2-1.2-0.1-1.6c-0.8-0.2-0.4,0.9-1.3,0.7c-1.3-1.7,1.4-1.7,1.1-3.6c-1-0.4-0.6,2.4-1.7,0.3
			c1.3,2.7-1.7,0.9-1.3,3.4l-0.8-1c0,0.3,0,1-0.3,1.2l-0.6-1.7c0.1,0.9-0.5,0.9-1.2,0.9c-0.7,0-1.4-0.1-1.5,0.5
			c1.7-1.2,1.4,1,2.8,1.2c-0.9,2.9-3.5-1.8-5.4,0.3c0.2-0.4,1.7-0.2,1.6,0.6c-0.6,0.1-1.6,0.1-2.3-0.3c-1.4,1.3,1.2,0.9,1,2.1
			c-1.6-0.9-0.3,1.1-0.6,2l-0.9-1.1c-2.4,0.6,1.4,2.7-0.8,3l-0.6-2.1l-0.5,1l-0.9-1.4c-0.1,1.6-0.6,1.6-1.8,1.9
			c0.9,0.7,1.6,2.2,0.8,2.9c-1.1-0.3-0.6-1.4-1.6-0.4c-0.3-0.9-0.8-2.1,0.5-1.3c-0.3-0.4-0.3-0.9-0.6-1.3c-1.2-0.4-1.6,0.9-2,1.1
			c0.2-0.1,0.4-0.1,0.7,0l-0.3,2.8c-0.6-0.3-0.7-0.8-0.8-1.3c-0.2,0.4,0,1.1-0.4,1.5c-0.6-1.1-1.5-2.1-1.1-3l-0.7,2.2
			c-0.4-0.4-1.7-0.7-1.8-1.2c-1.3,0-0.6,3.4-2.4,3.4c0.1,0.2,0.1,0.5,0,0.8c-1.2,0.5-3.2-0.2-3.4,2.2l-2.1-1.4
			c-0.7,1.1,2.7,1.8,1.6,3.6c-0.8,1.4-1.6-1.4-2.4-1.7c0.1,1.4,0.5,4.1-1.7,3.2C683.7,801.1,684.1,801.2,684.4,800.9z M672.5,809.8
			c0.1-0.5-0.1-1.7,0.7-0.9C673.9,810.7,673.2,810,672.5,809.8z M655,825c-0.1-0.6,0.3-0.5,1-0.1C655.8,825.1,655.5,825.2,655,825z
			 M599.7,859.8C599.7,859.7,599.7,859.7,599.7,859.8C600.5,860,600.3,859.9,599.7,859.8z M598.2,859.7c-0.1,0.2,0,0.3,0.1,0.5
			c0-0.3,0.3-0.4,0.7-0.4C598.8,859.4,598.5,859.3,598.2,859.7z M725.9,785.2l-0.4-0.1C725.7,784.5,725.8,784.8,725.9,785.2z"/>
		<path class="st0" d="M656.1,821.6c0.2,0.2,0.4,0.5,0.6,0.8C656.6,822.1,656.4,821.8,656.1,821.6z"/>
		<path class="st0" d="M691.6,795C691.6,795,691.6,795,691.6,795c0-0.1,0-0.2-0.1-0.3L691.6,795z"/>
		<path class="st0" d="M614.2,841.9c0.3,0.1,0.6,0.3,0.8,0.5C614.9,842.1,614.6,841.8,614.2,841.9z"/>
		<path class="st0" d="M591.6,863l0.8-0.4c-0.4,0.1-0.6-0.1-0.9-0.2C591.6,862.6,591.8,862.9,591.6,863z"/>
		<path class="st0" d="M582.4,859.2c-0.1,0.1-0.3,0.1-0.3,0.2l0.1,0.4C582.7,859.6,583,859.2,582.4,859.2z"/>
		<path class="st0" d="M589.8,859.9c-0.3-0.8-0.8-0.4-1.3-0.1c0,0,0.1,0,0.1,0C588.7,861,589.2,860.5,589.8,859.9z"/>
		<path class="st0" d="M588.3,859.9c-0.2,0.1-0.4,0.2-0.5,0.2C587.8,860.5,588,860.1,588.3,859.9z"/>
		<path class="st0" d="M596.7,860.7c-0.4-0.2,0.2,1.2-0.1,0.9C596.7,862.7,598.1,859.7,596.7,860.7z"/>
		<polygon class="st0" points="588.4,857.4 589,858.3 589,857.4 		"/>
		<path class="st0" d="M593.3,856.7l-1,0c0.1,0.2,0,0.3-0.1,0.4C592.7,857,593.4,857,593.3,856.7z"/>
		<path class="st0" d="M592.2,857.2c-0.3,0.1-0.6,0.2-0.7,0.4C591.6,857.5,591.9,857.4,592.2,857.2z"/>
		<polygon class="st0" points="589.6,856.7 590,856.8 590.7,856.7 		"/>
		<path class="st0" d="M603.4,853.7l0.9-0.7c-0.1-0.5-0.4-0.6-0.7-0.3C603.5,853,603.1,853.3,603.4,853.7z"/>
		<path class="st0" d="M599.2,851.4c0.4,0.1,0.5,0.4,0.8,0.7l-0.5-1.5L599.2,851.4z"/>
		<path class="st0" d="M602,850c-0.1-0.5,1-1.8-0.2-1.2C601.8,849.2,601,850,602,850z"/>
		<polygon class="st0" points="617.7,846 617.4,846.2 618.6,849 		"/>
		<path class="st0" d="M627.3,833c-1.4-0.2,0.6,2-0.8,1.6c0.1,0.9,1.2,0.3,1.2,1.1C628,834.6,628.5,834.9,627.3,833z"/>
		<path class="st0" d="M627.7,835.7c-0.1,0.2-0.1,0.4-0.1,0.6C627.6,836.1,627.7,835.9,627.7,835.7z"/>
		<path class="st0" d="M757.9,746.3c0.2-0.2,0.3-0.5,0.4-0.7c-0.1,0.1-0.2,0.3-0.3,0.4L757.9,746.3z"/>
		<path class="st0" d="M758.7,745c0,0,0.1-0.1,0.1-0.1c0.1-0.1,0.2-0.3,0.3-0.4C758.9,744.5,758.7,744.8,758.7,745z"/>
		<path class="st0" d="M668.1,807l0.2,0.5c0.4,0.4,0.6,0.4,1,0.3L668.1,807z"/>
		<polygon class="st0" points="678.1,802.8 677.9,802.8 679.4,804.4 		"/>
		<path class="st0" d="M684.2,795.9c-0.4,0.1-0.5,0.7-0.8,0.8C683.9,796,685.8,797.8,684.2,795.9z"/>
	</g>
	<g>
		<path class="st0" d="M844.8,482.9c0.1,2.3,0.1,1.6,0.1,1.9C844.7,480.8,844.8,483,844.8,482.9z"/>
		<polygon class="st0" points="840.5,443.2 840.7,443.9 839.5,438.2 		"/>
		<path class="st0" d="M832.6,406.7c0.2,1.8,1.1,5,2.2,8.7c0.9,3.7,1.9,7.7,2.5,11l0.1,1.1l1,2.9c-0.9-4-2-8.5-3-12.7
			c-0.3-1.1-0.5-2.1-0.7-3.1c-0.3-1-0.6-2-0.8-2.9C833.4,409.8,833,408.1,832.6,406.7z"/>
		<path class="st0" d="M828.3,387.1c0.1,1.3-1.5-4.1,1.3,4.5c-0.1-0.4-0.1-0.6-0.2-0.8C829.2,390,828.8,388.9,828.3,387.1z"/>
		<path class="st0" d="M829.4,390.8C830.6,394.6,828.8,388.2,829.4,390.8L829.4,390.8z"/>
		<path class="st0" d="M823.4,373.5l2,4.8c-0.2-1.1-1.8-5.5-1-3.9C822.5,369.4,822.7,370.5,823.4,373.5z"/>
		<path class="st0" d="M821.2,369.1l1,2.5C822.1,371.1,821.9,370.4,821.2,369.1z"/>
		<path class="st0" d="M824.4,376.9l-2.2-5.3c0.1,0.8-0.1,0.9,1,2.4C822.8,373.6,823.4,374.6,824.4,376.9z"/>
		<path class="st0" d="M825.4,379.9c0.5,1.4,0.9,3,1,3.7c0.1,0.7-0.1,0.3-1-2.1c1.6,4.7,2.3,6.7,2.4,6.3c0-0.2-0.2-1-0.6-2.3
			c-0.2-0.7-0.4-1.5-0.7-2.4C826.2,382.2,825.9,381.1,825.4,379.9z"/>
		<path class="st0" d="M831.5,405l0.9,3.8l1.1,3.2C833,410.4,831.6,404.8,831.5,405z"/>
		<path class="st0" d="M811.4,343.2c-0.3-0.2,0.3,1.8,0.2,2.3l1.9,3.4C812.7,347.1,811.2,343.6,811.4,343.2z"/>
		<path class="st0" d="M811.6,345.5l-2.8-5C810.9,345.2,811.5,345.9,811.6,345.5z"/>
		<path class="st0" d="M820,368.5l3.9,8.6c-1.5-3.5-3-6.9-4.5-10.3L820,368.5z"/>
		<polygon class="st0" points="801.4,323.5 803.4,326.1 800,321.4 		"/>
		<path class="st0" d="M794,310.8c1.6,1.8-1-3.3,0.5-1.2c-1.1-1.7-2.1-3.2-3.1-4.6c-0.5-0.7-1-1.4-1.5-2c-0.5-0.6-1-1.2-1.5-1.8
			c0.5,0.7,1,1.3,1.5,2c0.5,0.7,0.9,1.5,1.4,2.3C792.1,307,793,308.8,794,310.8z"/>
		<path class="st0" d="M785,297.1c1,1.3,2.1,2.6,3.3,4C787.3,299.7,786.2,298.4,785,297.1z"/>
		<path class="st0" d="M804.5,331.7c-0.1-0.5-0.2-1.4-1.6-4.3l0.5,2.3C803.7,330.3,804.1,330.9,804.5,331.7z"/>
		<path class="st0" d="M803.4,329.7L803.4,329.7c-1.2-2.3-2-3.8-2.3-4.4C801.4,325.9,802.1,327.2,803.4,329.7z"/>
		<path class="st0" d="M804.7,332.2c-0.1-0.2-0.2-0.3-0.3-0.5C804.5,331.9,804.5,332,804.7,332.2z"/>
		<path class="st0" d="M814.6,354.5c-0.8-1.5-2-3.8-2.7-5c-0.4-0.6-0.6-0.8-0.6-0.6c0,0.1,0.1,0.4,0.2,0.8c0.1,0.4,0.3,1,0.6,1.8
			C813.5,353.7,812.2,350,814.6,354.5z"/>
		<path class="st0" d="M805.4,335l2.6,5.6c0.1-0.2-0.2-1.3,0.7,0.2L805.4,335z"/>
		<path class="st0" d="M803.8,332.5c0.5,0.8,1.1,1.7,1.6,2.6c-0.3-0.7-0.6-1.4-1-2L803.8,332.5z"/>
		<path class="st0" d="M790.2,306.3c-1.6-2.1-3.3-4.5-5.1-7.2c0.9,1.5,1.9,3,2.8,4.5c0.9,1.5,1.8,3.1,2.7,4.5
			C791.1,308.4,792.2,309.5,790.2,306.3z"/>
		<path class="st0" d="M796.8,317.6c-0.1-0.2-0.2-0.3-0.3-0.5C796.6,317.4,796.8,317.7,796.8,317.6z"/>
		<path class="st0" d="M766.1,273c0.1,0.2,0.1,0.3,0.2,0.5c0.1,0,0.1,0,0.2,0L766.1,273z"/>
		<path class="st0" d="M790.8,308.7c1.3,2.3,2.2,3.6,3.2,4.8c-1.1-1.7-2.2-3.4-3.4-5.3C790.4,308,790.4,308,790.8,308.7z"/>
		<path class="st0" d="M779.7,289.8c0.6,1.2,1.4,2.6,2.2,4.1C781.4,292.6,780.2,290.1,779.7,289.8z"/>
		<path class="st0" d="M796.2,316.3c0.1,0.1,0.1,0.2,0.2,0.3C796.1,315.8,796.1,315.9,796.2,316.3z"/>
		<path class="st0" d="M796.2,316.3c-0.8-1.1-1.5-1.9-2.2-2.8c0.9,1.3,1.7,2.6,2.5,3.6C796.4,316.8,796.2,316.5,796.2,316.3z"/>
		<path class="st0" d="M755.8,269c0.9-0.2,5.9,4.6,9,9.7c2,2.1,2.9,2.1,3,0.8c0.1-0.6,0-1.5-0.3-2.6c-0.3-1-0.7-2.2-1.3-3.5
			c-0.4,0.1-0.6,0.3-4.8-4.1c1,1.9,7.8,11,4,7.5c-5.4-5.9-4-5.2-6.2-8.5c0.7,1.6-1.2-0.1-3.3-2c-1-0.9-2.1-1.8-3-2.3
			c-0.8-0.5-1.4-0.7-1.4-0.1c0.8,0.8,1.7,1.6,2.5,2.4l2.4,2.5C756.6,269.1,754.7,267.4,755.8,269z"/>
		<path class="st0" d="M773.3,282.7l1.6,1.9c-1.6-2.4-2.6-4.2-4.4-7.6c-1.4-1.6-2.3-2.4-2.9-2.9c-0.6-0.5-0.9-0.6-1.1-0.7l1.9,2.4
			c0.6,0.8,1.2,1.7,1.8,2.5l3.6,5L773.3,282.7z"/>
		<path class="st0" d="M781.4,293.8c-0.9-0.6-2.2-2.1-3.1-3c-0.5-0.5-0.9-0.7-1-0.7c-0.2,0-0.1,0.4,0.2,1.3c4.2,6,3.4,3.9,6.1,7.3
			c-6.8-9.7,2.2,2.6-2.2-4.7c1.4,1.9,2.6,3.6,3.7,5.2c-1.1-1.8-2.2-3.6-3.1-5.3c0,0.1,0.1,0.2,0.1,0.3l0,0c0,0,0,0,0,0
			c0.2,0.5,0.3,0.7,0,0.1c0,0-0.1-0.1-0.2-0.2C781.8,294.1,781.6,294,781.4,293.8c-1.8-2.9-0.1-0.6,0.5,0.3c0.1,0,0.1,0.1,0.2,0.1
			c0,0,0,0,0,0c-1.2-1.6-2.3-3.2-3.5-4.8l-3.7-4.6C776.2,286.8,778.3,289.2,781.4,293.8z"/>
		<path class="st0" d="M808.3,346.5c-0.1-0.3-0.1-0.4,0-0.4C807.9,345.5,807.7,345.2,808.3,346.5z"/>
		<path class="st0" d="M806.5,342c0.5,0.7,1,1.3,2.2,3.8c0.9,2.2-0.3,0.1-0.4,0.3c0.9,1.4,3,5.1,0.9,0.2l-0.4-0.7
			c-1.9-4.3-4-10.1-3.5-9.4C805.3,337.7,805.5,339,806.5,342z"/>
		<path class="st0" d="M794.4,317.4l-5.4-8.2l2.1,4.6l0.2-0.4C794.1,318.2,793.8,316.9,794.4,317.4z"/>
		<polygon class="st0" points="765.7,271.9 767.2,272.3 762.7,268.7 		"/>
		<polygon class="st0" points="757.5,262 758.4,261.8 755.8,259.6 		"/>
		<path class="st0" d="M159.6,348.7l-0.9,2.7C159.1,350.1,159.4,349.3,159.6,348.7z"/>
		<path class="st0" d="M169.2,330.9l-0.4-0.8C168.7,331.1,168.8,331.6,169.2,330.9z"/>
		<path class="st0" d="M477.9,133.9c-4.3-1.2-9.1-3.1-8.6-1.6l1.4,1.4C473.7,133.4,476,133.6,477.9,133.9z"/>
		<path class="st0" d="M277.1,203.7c0.4-0.1,0.8-0.2,1.3-0.3c0.6-1,1.1-2,1.5-2.8C279,201.6,278.1,202.6,277.1,203.7z"/>
		<path class="st0" d="M278.2,210.7l-5,2.3C274.4,212.5,276,211.8,278.2,210.7z"/>
		<path class="st0" d="M127.3,454l1,3.4C129,452.4,127.9,454.5,127.3,454z"/>
		<path class="st0" d="M655.3,179.7c-1.5-1.1-2.8-2.1-4.1-2.9c-1.3-0.8-2.5-1.5-3.6-2.1C651.3,177.3,653.8,180,655.3,179.7z"/>
		<path class="st0" d="M148.9,334c-0.6,1.7-0.7,2.5-0.3,2.6C149.2,334.9,149.4,333.9,148.9,334z"/>
		<path class="st0" d="M638.1,170c0.5,0.4,1.1,0.7,1.6,1.1c2.5,1,5,2.1,7.9,3.6C644.9,172.8,641.7,170.9,638.1,170z"/>
		<path class="st0" d="M275.4,807.2c0.2,0.2,0.5,0.4,0.7,0.6C276.2,807.8,275.9,807.5,275.4,807.2z"/>
		<path class="st0" d="M381.3,861.2c-1.1-0.3-3-0.8-4.8-1.3C377.4,860.1,378.8,860.5,381.3,861.2z"/>
		<path class="st0" d="M721.4,224.9C723.5,226.6,721.8,225.1,721.4,224.9L721.4,224.9z"/>
		<path class="st0" d="M728.6,236.7c-0.5-0.3-0.9-0.5-1.1-0.4C727.8,236.3,728.2,236.5,728.6,236.7z"/>
		<path class="st0" d="M610.3,166.3c-0.1,0-0.1-0.1-0.2-0.1C610.7,166.7,610.6,166.7,610.3,166.3z"/>
		<path class="st0" d="M724.1,228c-0.7-0.8-1.5-1.7-2.4-2.6C722.1,225.8,722.8,226.7,724.1,228z"/>
		<path class="st0" d="M724,227.3c0.7,0.7,1.2,1.2,1.7,1.7C726.1,229.1,725.9,228.8,724,227.3z"/>
		<path class="st0" d="M718.4,222.5c1.2,1,2.3,2,3.3,2.9c-0.4-0.4-0.5-0.6-0.4-0.5C720.7,224.4,719.9,223.7,718.4,222.5z"/>
		<path class="st0" d="M141.8,638.9c0,0.2,0.1,0.4,0.1,0.6C143.4,641.8,142.8,640.7,141.8,638.9z"/>
		<path class="st0" d="M409.7,155.8c0.1,0,0.2-0.1,0.3-0.1c-0.1,0-0.3,0-0.4,0L409.7,155.8z"/>
		<path class="st0" d="M400.7,158.9c1.8-1.3,3.2-2.1,4.6-2.5c0.7-0.2,1.4-0.4,2.1-0.5c0.7-0.1,1.4-0.1,2.2-0.2
			c-1.3-1.2-2.6-2.4-3.9-3.6C404,154.4,402.4,156.6,400.7,158.9z"/>
		<path class="st0" d="M141.1,393.6l3.5-5.8c-0.1,2.1-0.4,3.9-0.7,5.5c-0.3,1.5-0.5,2.8-0.6,3.6c-0.2,1.7,0.1,1.6,1.9-1
			c-1-0.6-1.1-2.4-0.5-4.8c0.5-2.4,1.5-5.5,2.6-8.5c0.5-1.5,1.1-3,1.6-4.4c0.5-1.4,1-2.8,1.3-4c0.6-2.4,0.7-4.2-0.3-4.9
			c0.9-1.2,1.8-2.4,2.7-3.6c-0.5,1.1-0.4,1.4-0.9,2.5c2.8-3.4,2.6-5.2,2.4-7.4c-0.2-2.1-0.4-4.7,2.3-9.5c2-3.3,3.9-5.3,3.2-2.8
			l1.4-4.1l1.5-4c1.2-2.1,1.7-1.2,0.5,0.9c1.9-3.9,3.9-7.7,5.9-11.6l0.1,0.2c0.3-2,1.4-6.2,2.1-8.2c2.3-2.5-0.4,1.7,0.5,1.3
			c0.4-1.1,0.9-2.3,1.4-3.4l1.4-3.4c1.3-0.9,1.4,0.1,0.9,1.8c-0.6,1.7-1.8,4.1-3.1,6.3c3.8-1.7,4.3-3,5.1-5.4c0.4-1.2,0.9-2.6,2-4.4
			c1.1-1.8,2.7-3.9,5.2-6.5c-1.1,2-2.2,4-3.2,6c2.4-1.1,4-2.8,5.9-5c0.9-1.1,1.9-2.2,3-3.4c0.5-0.6,1.1-1.2,1.7-1.9
			c0.6-0.6,1.3-1.3,2-1.9c-0.4,0.2-1.5,0.9-2.6,1.8c-1.2,0.9-2.5,1.9-3.7,2.6c-2.4,1.5-4.2,2.1-2.5-1.5c1.6-1.6,3.3-3.9,5-7.8
			c1.4,1,3.5-2.6,6.5-6.7l1.6,1.7c2.8-4.8,1.7-5.1,2.9-8.3c1-1.2,1.9-2,2.7-2.7c0.8-0.6,1.6-1,2.2-1.3c1.3-0.5,2.4-0.5,3.4-0.6
			c3.3-3.6,1.7-2.8,0.1-2.2c-1.6,0.6-3.1,1,0.6-3.6c3.1-2.8,5.4-5.4,7.7-8.3c1.2-1.4,2.3-3,3.5-4.7c1.2-1.7,2.6-3.5,4.1-5.5
			c4.7-3.5,0.3,1.7,2.2,0.7l2.4-4.9c0.9-0.8,1-0.2,1.1,0.2c2.6-3.5-1.4-1.9,3.2-7c-0.1-0.8,0.7-1.6,1.9-2.5c1.2-0.9,3-1.9,4.9-3
			c1-0.6,1.9-1.1,2.9-1.8c1-0.6,2-1.3,2.9-2c1.9-1.4,3.6-3.1,4.7-4.9c2-0.8,0.1,1.7,1.2,2c3.9-4.3,5.6-6.2,7.1-7.8
			c0.8-0.8,1.4-1.7,2.3-2.8c0.4-0.6,0.9-1.2,1.5-1.9c0.6-0.7,1.2-1.5,2-2.5c2.5-1.2,4.9-2.4,7.5-3.5c-2.9,1-3.2,0-2-1.9
			c0.6-1,1.4-2.1,2.5-3.4c1-1.3,2.2-2.6,3.4-3.9c-2.3,0.5-4.2,0.9-5.4,1.4c2.7-2.4,5.6-4.7,8.4-7.1c1.3-0.4,0.8,0.9-0.1,2.6
			c0.5-0.6,1-1.1,1.4-1.6c1.9-0.7,2.6-0.5,2.6,0.2c0,0.7-0.6,1.9-1.4,3.2c-1.3,0.3-2.7,0.7-4,0.9c-0.7,1.3-1.4,2.6-1.7,3.7
			c-0.3,1.1-0.3,2,0.3,2.4c0.4-0.6,1.4-1.6,2.6-2.5c-0.4,0.7-0.5,1.2-0.2,1.2c0.4,0,1.1-1,2.2-2.5l3.4,0.8l-0.1-1.2
			c2.1-1.1,4.2-2,6.3-3c2.1-1,4.2-2,6.3-2.9c1.8-1.8,3.5-3.7,5.3-5.5c1.8-1.8,3.6-3.8,5.7-5.6c4.1-3.8,9.1-7.7,16.1-11.6
			c-2.8,3.4,0.5,3.1,1.3,5.2c-2.5-0.2-5.1,1.5-8.1,3.5c-0.7,0.5-1.5,1-2.3,1.6c-0.8,0.6-1.6,1.1-2.4,1.7c-1.6,1.1-3.4,2.1-5.2,3
			c3.9-1.8,3.5-0.4,2.8,0.4l5.9-4.3l6.1-4.2c0.5,1.7,3.4-0.1,7.1-1.1c-4.1-2,8.9-6.8,14.1-9.9c0.4,0.5,0.4,1.1-0.6,2
			c-1,0.9-2.9,1.8-6.3,3.2c2.1-0.2,3.6-0.8,4.9-1.5c1.3-0.8,2.3-1.7,3.2-2.7c2-2,4-4,8-4.3c-1.7,0.7-2.6,0.8-3,1.6
			c1.8-1.2,5.1-2.6,7.7-3.3c2.7-0.7,4.6-0.9,3.7,0l-1.7,0.6c5.6-1.8,14.1-4.5,21.4-7.1c3.7-1.2,7-2.5,9.5-3.6
			c2.5-1.1,4.2-2.1,4.4-2.9c0.2,0.3-0.7,3.8-1.2,4.6c1.5-1.2,3-2.5,4.5-3.7l4.6-3.5c3.1-2.4,6.3-4.6,9.5-6.9c-0.7,1.4,1,3.2,1.7,5.1
			c0.7,1.9,0.3,3.8-4.3,5.5c2.8-0.2,6.2-0.5,11.9-2.3c-1.9,0-5.3-2.8-2.7-3.4c7.5,1.5,5.2,0.6,14.2,1.7c-2.9-0.1-0.3-4.5,4.3-4.8
			c-0.6,0.7,0.8,3.8-0.8,4.3l5.4-2.5c1.8-0.8,3.6-1.6,5.5-2.4c-2.8,0.9-0.2,3.2,2.4,4.1c-1.2-0.7,9.7-0.7,12.6-1.2
			c-1.6-0.2-3.2-0.4-4.8-0.6c12.7-0.1,12.4-6,25.2-5.7c-1.6,0.7-3.8,4.6,2.6,5.2c1.5-0.9,4.8-3.1,9.2-5.2c1.1-0.5,2.3-1.1,3.5-1.5
			c1.2-0.4,2.5-0.8,3.9-1.2c2.7-0.7,5.5-1.2,8.4-1.3l2.1,1.2c3-0.2,5.9-0.2,8.9-0.2c-1.4,0.5-3.5,1.1-5.9,1.8
			c-2.4,0.8-5.2,1.7-8,2.5c-2.8,0.8-5.7,1.7-8.4,2.4c-0.7,0.2-1.3,0.4-2,0.5c-0.6,0.2-1.3,0.4-1.9,0.6c-1.2,0.4-2.4,0.7-3.4,1
			c2.4,0.5,2.7,0.8,3.3,1c0.6,0.2,1.5,0.2,5.1,0.5c2.4,1.2-3.9,1.2-6,1.3c2.7,0.1,5.5,0.4,8.2,0.7l8.2,0.9c-0.1-0.5,0.6-0.9,1.8-1.2
			c0.6-0.1,1.3-0.2,2-0.3c0.7-0.1,1.5-0.1,2.3-0.1c3.2-0.1,6.4-0.2,6.2-1.1l-4.5,0l-2.3,0c-0.8,0-1.5,0-2.3,0.1l-9,0.5
			c-0.3-1.1,2.4-2.5,6.7-3.4c1.1-0.2,2.2-0.4,3.5-0.6c1.2-0.1,2.6-0.2,3.9-0.2c2.7,0,5.7,0.2,8.6,0.6c2.9,1.2-2.7,3.5-2.6,4.2
			c0.8-0.3,3.6-0.3,6.4-0.2c0.7,0,1.4,0.1,2,0.2c0.6,0.1,1.2,0.2,1.8,0.3c1.1,0.2,1.8,0.4,2.1,0.5l-5.1,0.3c3.2,0.9,5.9,0.7,8.8,0.6
			c1.4,0,2.9,0,4.5,0.2c0.8,0.1,1.6,0.3,2.5,0.5c0.9,0.2,1.7,0.5,2.6,1c2.6,0.7,7.3,4.3,8.1,3.2c-3.8-3.2-3.2-10.6,0.1-11.6
			c0.5,0.2,3.9,1.5,7.6,3.1c1.8,0.7,3.7,1.7,5.3,2.5c1.6,0.8,2.9,1.5,3.6,2c2,1.5,0,2.1-2,2.6c-2,0.5-4,1.1-2.4,2.3
			c0.3-0.5,2.9-0.5,3.9-0.5c2.6,1.2-1.6,1.3,4.5,2.7c0.4-0.4,1.3-0.4,2.4-0.2c0.5,0.1,1.1,0.2,1.6,0.4c0.5,0.2,1,0.3,1.5,0.5
			c1.7,0.6,2.2,0.8-2.2-1.5c3,0.6,4.5,1.2,6.1,1.9c1.6,0.7,3.3,1.5,6.8,2.5c-0.9-1,1-1.5,3.9-1.6c1.4-0.1,3.1,0.1,4.8,0.3
			c1.7,0.2,3.4,0.6,4.9,1c-0.5,0.3,0.6,1.4,1.1,1.9c1.5,0.6,2.8,1.1,4.2,1.7c1.3,0.5,2.6,1,3.7,1.6c2.3,1.1,4.5,2.2,6.6,3.2
			c2.1,1,4.2,2.1,6.5,3.1c1.1,0.5,2.2,1.1,3.4,1.7c1.2,0.6,2.4,1.2,3.7,1.9c0.8,0.9,5.6,3.8,3.1,3.5c1.6,0.5,3.3,0.5,6.6,2.1
			c2.7,2.4,0.9,1.5-1.1,0.5c-2-0.9-4.3-1.8-2.3,0.2c0.2-0.2,0.9-0.1,1.9,0.1c0.9,0.3,2.2,0.8,3.5,1.3c2.7,1.1,5.9,2.5,8.3,3.5
			c-0.3-1.1-2.9-2.6-6-4c-1.5-0.7-3.2-1.4-4.8-2.1c-1.6-0.6-3.2-1.1-4.4-1.5c0.3-0.5,1-0.8,2.2-0.8c1.2,0,2.8,0.1,4.7,0.6
			c3.8,0.9,8.9,2.8,14.6,5.4c8.7,4.7,2.9,3.5,4.5,4.1c3.9,2.5,6.8,4.1,9.1,5.2c2.3,1.1,4.1,1.9,5.8,2.5c1.7,0.7,3.3,1.3,5.2,2.5
			c1,0.6,2,1.2,3.1,2.1c0.6,0.4,1.2,0.9,1.8,1.4c0.6,0.5,1.3,1.1,2,1.8c4.1,4.7-1.3,2.3-0.8,3.9c-0.8-0.5-1.6-1.1-2.3-1.6
			c-0.7-0.5-1.4-1-2-1.5c-1.3-0.9-2.4-1.9-3.5-2.7c-2.1-1.8-3.9-3.4-6.2-4.9l5.2,4.3c-2.4-1.1-6.9-3.8-9.1-5.7
			c0.9,0.9,2.9,2.5,5.7,4.5c1.4,1,2.9,2.1,4.6,3.2c0.8,0.6,1.7,1.2,2.6,1.8c0.4,0.3,0.9,0.6,1.3,0.9c0.4,0.3,0.9,0.7,1.3,1
			c3.5,2.7,7.3,5.5,10.9,8.3c0.9,0.7,1.7,1.4,2.6,2.1c0.8,0.7,1.6,1.4,2.4,2.1c1.6,1.4,3,2.7,4.3,3.9c2.2,1.3,5.8,3.7,4.6,2
			l-3.6-2.7c-2.5-3.4,7.4,4.3,3.3,0.3c2.6,1.6,5.2,3.5,8,5.7c1.4,1.1,2.8,2.2,4.3,3.5c0.7,0.6,1.5,1.3,2.2,2
			c0.4,0.4,0.7,0.7,1.1,1.1c0.4,0.4,0.7,0.8,1.1,1.2l0.2,2.1c0.1-0.2-0.8-1.3-1.9-2.6c-1.2-1.2-2.6-2.5-3.6-3.2
			c3.1,1.9,8.1,10.3,12.1,11.8l-3.6-4.9c2.4,1.9,5.1,4,7.9,6.3c2.7,2.3,5.4,5.1,7.8,8c-1.4-3.4-1.3-1.2-3.8-6.2
			c0.4,1.2-0.1,0.9-1.2-0.2c-1-1.1-2.7-2.7-4.3-4.3c-3.2-3.2-6.1-6.2-4.1-2.8c-1.3-2.6-2.9-4.4-4.6-6.4c-1.8-1.9-3.8-3.9-5.9-7
			c-0.1,0.5,1.3,2.4-3.2-2.1c-0.3-0.1-0.9-0.4-1.3-0.7c-0.1-0.1-0.2-0.2-0.3-0.3c0.1,0.1,0.1,0.2,0.2,0.3c-0.2-0.1-0.3-0.1,0.1,0.1
			c1,1.2,1.7,2.2,1.9,2.7c-0.8-0.3-1.8-1-3-1.9c-1.2-0.9-2.4-1.9-3.8-2.9c-2.7-2-5.4-4.1-6.9-4.9c-2.8-2.6,1.6,0.6,0.3-1.1l-4.5-2.6
			c0.1-0.3-0.3-0.9-0.8-1.6c-0.5-0.7-1.2-1.4-1.6-2c-0.8-1.1-0.7-1.5,3,1c-2.1-1.7-4.2-3.3-6.4-5c-1.7-1.7-3.8-3.6-5.9-5.3
			c-1-0.9-2.2-1.6-3.2-2.3c-1-0.7-2-1.3-2.9-1.8c-3-2.4-8.6-4.4-5.4-3.3l-2.7-1.7c-0.9-0.6-1.8-1.1-2.7-1.6l-5.5-3.1l0.1-0.3
			c-2.6-1.7-5.4-3.3-8.1-4.9c-2.9-1.4-5.8-2.9-8.7-4.4c-1.5-0.8-3-1.5-4.4-2.3c-0.7-0.4-1.5-0.8-2.2-1.2c-0.8-0.4-1.5-0.8-2.3-1.2
			c-3-1.6-6-3.5-9-5.6c-3.9-1.7-8-3-14.3-6.2l-0.8-1.6c-1.3-0.5-2.8-1.2-4.4-2c-1.7-0.7-3.4-1.5-5.1-2.3c-3.4-1.5-6.4-2.8-7.7-2.7
			c-2.2-2.6-8.4-4.8-15.1-6.9c-1.7-0.5-3.4-1.1-5.1-1.5c-1.7-0.4-3.4-0.9-5.1-1.3c-3.3-0.8-6.2-1.6-8.5-2.4l-0.7,1.4
			c-3.1-1-6.3-1.5-9.7-2.2c-3.4-0.6-6.9-1.1-10.9-1.7l0.2,1.5c-3.5-0.1-7.9-1.1-12.7-2.3c-1.2-0.3-2.5-0.6-3.7-1
			c-0.6-0.2-1.3-0.3-1.9-0.5c-0.7-0.1-1.3-0.3-2-0.4c-2.6-0.5-5.4-1-8.1-1.3c0.8-0.4,3.6,0.1,5.5,0.6c-3.2-1.2-6.5-1.9-9.9-2.3
			c-0.9-0.1-1.7-0.2-2.6-0.3c-0.9-0.1-1.7-0.1-2.6-0.1c-1.7,0-3.5,0-5.2,0.1c-3.4,0.1-6.8,0.2-10.1,0.1c-0.8,0-1.6,0-2.4-0.1
			c-0.8,0-1.6-0.1-2.4-0.1c-1.6-0.1-3.1-0.3-4.6-0.7c-3,0.4-5.2,0.2-7.2-0.2c0.3,0,0.5,0,0.7-0.1c-0.3,0-0.8,0-1.2-0.1
			c-0.7-0.1-1.3-0.3-2-0.5c-0.7-0.2-1.4-0.3-2.1-0.4c0.6,0.2,1.2,0.3,1.8,0.5c0.6,0.2,1.1,0.3,1.7,0.4c-0.6,0-1.2,0-1.9,0
			c-0.7,0-1.5,0.1-2.3,0.1c-1.6,0.1-3.3,0.3-5,0.5l-1.5-1.6c-0.3,0-0.5,0-0.8,0.1c-3.4-0.5-2.7,0.8-0.9,2c-1.7,0.3-3.3,0.7-4.5,1.1
			c-1.4-1.2-3.7-1-6-0.6c-2.4,0.3-4.8,0.7-6.8-0.6c-1.1,0.7-5.4,1.4-9.5,2.2c-4.2,0.9-8.2,2-8.9,3.5c-0.2-0.4-1.2-0.4,0.6-0.7
			c-3.8,0.1-7.6,0.4-10.9,1.6l-1.9-1.8c-2.6,1.4-5.2,2.7-7.7,4.1c-5.2-0.3-7.4-0.7-2.7-3.2c-2.9,1.2-4.9,1.9-6.5,2.5
			c-1.6,0.6-2.7,0.9-3.7,1.3c-2.1,0.7-4,1.3-8.7,3.7l0.2-1.4c-1.8,0.5-4,1.4-6,2.3c-2,0.9-3.9,1.6-5.2,1.3
			c-4.3-0.2-14.1,2.5-25.3,6.4c-11.2,3.8-23.6,8.9-33.7,12.3c2.7,1,0.3,1.6-2.7,2.4c-3,0.8-6.6,1.8-6.3,3.5
			c-1.5-0.3-4.5,0.5-1.8-1.8c-2.3,1.4-4.4,2.6-6.3,3.5c-1.9,0.9-3.7,1.7-5.3,2.6c-3.3,1.6-6.1,3.2-8.6,6.3c-1.6-0.2,1.3-2.4,0-2.4
			c-0.6,0.6-2.5,2.5-3.8,2.6c-1.3,0.1,0.9-1.5,2.2-2.8c-4.8,2.9-6.9,5.2-7.8,7.1c-0.9,1.9-0.5,3.4-0.1,4.8c-2.7,0.9-4.6,1.8-6.1,3
			c-1.5,1.1-2.7,2.5-3.8,4.4c-2.1,0.3-5.3,1.4,0.1-2.8c-1.6,1.1-6.7,4-11.1,7.3c-1.1,0.8-2.2,1.6-3.2,2.3c-1,0.8-1.8,1.5-2.5,2.2
			c-1.4,1.4-2.2,2.4-2,2.9c-1.3,0.2-4.3,3.2-4.9,4c-1.7,1.3-3,2.3-4.1,3.2c-1.1,0.9-2,1.6-2.9,2.3c-1.8,1.5-3.6,2.9-6.7,5.8l2-1.3
			c-0.3,2.2-1.5,3.4-3.3,4.8c-1.7,1.3-3.9,2.8-6.3,5.2l-0.1-0.3c-1.6,1.1-2.8,2.1-3.8,2.9c-1,0.8-1.7,1.5-2.3,2
			c-1.2,1.1-1.7,1.8-2.2,2.4c-0.5,0.7-1,1.3-2.2,2.4c-0.6,0.5-1.3,1.2-2.3,2c-1,0.8-2.2,1.8-3.7,3l1.8,0.6c0.9,1.8-1.9,3.9-5.4,6.5
			c-1.7,1.3-3.7,2.8-5.5,4.4c-1.8,1.6-3.5,3.4-4.6,5.4l2.8-1.8c-1.1,2.3-4.3,4-7.5,5.8c-1.6,0.9-3.3,1.7-4.8,2.6
			c-1.5,0.9-2.8,1.8-3.6,2.7c-0.9,0.7,0.6-1.7,1.4-3c-4.8,4.5-4.6,5.2-3.9,5.7c0.4,0.3,0.8,0.5,0.9,1.2c0.1,0.7-0.3,1.8-1.6,3.8
			c-2,0.7-1.1-3.7-5.1,1.5c-1.4,1-3.3,5.5-5.7,10.4c-1.2,2.5-2.4,5.1-3.8,7.5c-1.4,2.4-2.9,4.6-4.5,6.2c1.8-1.2,3.6-2.3,1.9,1.8
			c-0.8,1.5-2,3.1-3.3,4.9c-0.7,0.9-1.4,1.7-2.1,2.6c-0.7,0.9-1.4,1.8-2.1,2.7c-1.3,1.9-2.6,3.7-3.6,5.6c-0.9,1.9-1.5,3.7-1.6,5.4
			c-0.6,0.7-1,0.8-1.2,0.8c-0.9,2.5-2.4,6.5-3.9,10.2c-1.3,3.8-2.4,7.4-2.4,9.1c-1.8,0.5-3.4,2.7-4.7,5.7c-0.7,1.5-1.3,3.2-1.9,4.9
			c-0.6,1.8-1.1,3.6-1.7,5.4c-1,3.7-1.9,7.1-2.8,9.6c-0.9,2.5-1.9,3.9-3.1,3.5c-0.4,1.3-0.9,2.5-1.2,3.8l-1.2,3.9l-1.2,3.9
			c-0.4,1.3-0.7,2.6-1.1,3.9L123,400c-0.8,2.4-1.4,4.5-1.8,6.3c-0.4,1.8-0.6,3.3-0.8,4.7c-0.3,2.7-0.1,4.6,0,6.5
			c-0.9,2.2-1,0.4-1.2,0.2c-2.3,7.2-3.3,11.2-3.9,15c-0.3,1.9-0.3,3.8-0.4,5.9c0,1.1,0,2.3,0,3.5c0,1.3,0.1,2.7,0.1,4.3l-1.8,1
			c0.1,0.9-0.3,2.6-0.8,5c-0.5,2.4-1.2,5.4-1.9,8.7c-1.3,6.7-2.5,15-2,22.4c-0.2-0.2-0.5-0.5-0.6-1.7c0.3,8.3-1,18.2-1.5,26.8
			c-0.2,4.3-0.2,8.3,0.1,11.6c0.2,1.6,0.4,3.1,0.9,4.3c0.4,1.2,1.1,2.2,1.8,2.9l2.2,10.8c-0.3-7,0.4-6.5,1.1-5
			c0.8,1.5,1.7,4,1.9,1.1c0.2,1.4,0.2,2.9,0.2,4.4c-0.1,1.5-0.2,2.9-0.3,3.9c-0.3,2.1-0.8,2.6-1.3-0.7c0-0.4,0.1-0.7,0.2-1.1
			c-3.2-2.2,1,17.4-1,17.3c2.2,13.7,4.3,27.3,7.5,40.4c0.4,1.6,0.8,3.3,1.1,4.9c0.4,1.6,0.7,3.3,1.2,4.9c0.9,3.2,1.8,6.4,2.7,9.6
			c0.5,1.6,0.9,3.2,1.4,4.8c0.5,1.6,1.1,3.1,1.6,4.7c1.1,3.1,2.1,6.2,3.2,9.3l0.9-3.5c0.5,1.4,1,2.9,1.5,4.3l1.6,4.2
			c0.5,2.4-0.2,3.5-2.6-2.5c0.3,3.6,5,9.7,5.4,9.7c0.5,1.5,0.8,2.6,1,3.3c0.2,0.7,0.2,1.1,0.2,1.2c-0.1,0.3-0.8-0.4-1.4-1.4
			c-1.3-2-3-5-2.3-3.2c0.7,1.6,1.4,3.2,2.2,4.8c-0.1-0.4-0.2-0.8-0.3-1.2c2.5,3.6,3.4,3.6,6.6,10.7c1.7,4.6,0,2.8,0.8,4.6
			c-0.1,0,0.1,0.7,1.3,2.7l5.1,10.2l-0.8-4.7c1.5,2.1,2.6,4.5,3.4,5.7c0.8,1.2,1,1.2,0.4-1.5c0.4,2,1.8,5.3,3.8,9.2
			c1,2,2.1,4.1,3.4,6.3c1.3,2.1,2.7,4.3,4,6.5c1.4,2.2,2.7,4.3,4,6.3c1.4,2,2.7,3.8,3.8,5.5c2.3,3.3,4,5.9,4.5,6.9
			c2.5,2.6,4.8,5.2,7.1,8.1c1.2,1.4,2.3,3,3.5,4.5c1.2,1.5,2.5,3.1,3.9,4.8c-1.2-1.8-0.9-3.7,3.7,2.2c-1.9-0.2-0.1,2.7,2.7,6.2
			c2.9,3.5,6.5,7.7,7.8,10.6c-0.7-1.2-0.1-0.8,1.1,0.3c1.2,1.1,3,2.9,4.8,4.6c3.6,3.4,6.9,6.5,4.5,2.9c4.2,4.6-0.4,0.9,2.5,4.7
			c5.8,4.7,11.5,10.5,18,16.1c1.6,1.4,3.2,2.9,4.8,4.4c1.7,1.4,3.4,2.8,5.1,4.2c1.7,1.4,3.5,2.8,5.3,4.2c0.9,0.7,1.8,1.4,2.7,2.1
			c0.9,0.7,1.9,1.3,2.8,2c0.4,0-1.8-2.2,1.6-0.2c2.3,2.2,4.7,4.5,7.1,6.7c0.7,0.5,1.4,0.8,1.9,1c0.6,0.2,1.1,0.4,1.6,0.6
			c1.1,0.5,2.5,1.2,5,3.4c-0.7-0.7-1.7-1.7,0.4-0.4c14.6,10.2,30.8,18.9,47.5,26.4c4.2,1.8,8.4,3.6,12.6,5.4
			c2.1,0.9,4.2,1.7,6.4,2.5l6.4,2.5c4.2,1.7,8.6,3.1,12.9,4.6c2.2,0.7,4.3,1.5,6.5,2.2c2.2,0.6,4.4,1.3,6.5,1.9
			c-4.7-1.4-1.5-0.6,2.1,0.4c-2.3-0.7,0.1-0.2-0.3-0.4l7.2,2.2c2.4,0.6,4.9,1.2,7.3,1.8c1.4,0.2,5.3,1.1,9.1,2
			c3.8,0.7,7.5,1.4,8.3,1.5l-4.7-0.9c3.1,0.5,1,0.1-1.9-0.5c-0.7-0.2-1.5-0.3-2.2-0.5c-0.7-0.2-1.4-0.4-2-0.6
			c-1.2-0.3-1.9-0.6-1.7-0.6c-3.5-0.8-8-2-13-3.5c-2.5-0.8-5.1-1.7-7.8-2.6c-1.4-0.4-2.7-0.8-4.1-1.3c-0.7-0.2-1.4-0.4-2.1-0.6
			c-0.7-0.2-1.4-0.4-2.1-0.6c-2.4-1,2.1,0.6,0.9,0c-2.8-0.8-6.2-1.9-12.4-4.3l0.7,0.2c-2.2-0.7-4.2-1.6-6.1-2.4
			c-1.9-0.8-3.6-1.5-5.4-2.2c-1.7-0.7-3.3-1.4-4.9-2.1c-1.6-0.7-3.1-1.5-4.7-2.2c-3.1-1.5-6.3-3-9.8-4.8c-3.5-1.9-7.4-4-11.9-6.4
			l1.1,1.2c-4-2.1-4.7-2.7-6.4-3.9c-2.4-0.9,0.3,0.7,3.1,2.2c2.8,1.5,5.7,3,3.4,2.3c-2.5-1.7-9.3-5.7-15.9-9.5
			c-0.4-0.2-0.8-0.5-1.2-0.7c-0.4-0.3-0.8-0.5-1.2-0.8c-0.8-0.5-1.6-1-2.3-1.5c-1.5-1-2.9-1.9-4.2-2.8c-2.5-1.7-4.4-3.1-5.1-4
			c-5.6-3.9,1.3,1.8-4.4-2.2l-1.3-1.4l-1.7-0.5c-3.7-2.6-5.2-4.4-5.1-4.8c0.9,0.7,2.6,1.7,3.6,2.3c-1.1-0.9-2.5-2-4-3.1
			c-1.5-1.1-3-2.3-4.5-3.3c-2.9-2.1-5.5-3.9-6.3-4.6l5.1,4.2c-1.9-1.4-3.8-2.8-5.8-4.3c-1-0.7-1.9-1.5-2.9-2.3
			c-1-0.8-1.9-1.6-2.9-2.4c-1.9-1.6-3.9-3.2-5.9-4.9c-1-0.8-2-1.7-2.9-2.5l-2.9-2.6c-1.9-1.7-3.8-3.4-5.7-5.1
			c-0.5-0.4-1-0.8-1.4-1.3c-0.5-0.4-0.9-0.9-1.4-1.3c-0.9-0.9-1.8-1.7-2.7-2.6c-3.6-3.4-7.2-6.6-10.5-9.8l0.6,1.3
			c-5-4.8-6.9-6.8-8.7-9.1c-1.8-2.3-3.6-4.8-8.8-10.4l0.4,0.3c-0.6-0.5-1.2-1-1.8-1.7c-0.6-0.6-1.2-1.3-1.9-2
			c-1.3-1.4-2.6-3-3.9-4.6c2.8,2.6-3.6-6.3,0-2.8c-1.2-1.4-2.3-2.5-3.1-3.4c-0.8-1-1.4-1.7-1.9-2.3c-1-1.2-1.6-1.7-2-2.1
			c-1-0.8-1.6-1-5.3-4.5l-0.7-2.3c-2.5-2.4-3-2.4-7.4-8.6c4.1,4.8-1.6-4.7,3.1,0.5c-0.9-1.8-1.8-3.4-2.7-4.9
			c-0.9-1.5-1.7-2.9-2.5-4.2c-1.6-2.6-3.2-4.8-4.6-6.7c-0.7-1-1.4-1.9-2-2.8c-0.6-0.9-1.1-1.8-1.5-2.7c-0.9-1.8-1.5-3.5-1.8-5.5
			c-5.7-5.2,5.4,12.7,3,9.4c0.3,0.8,0.1,1-0.3,0.7c-0.4-0.3-1.1-1.1-1.9-2.1c-1.5-2.1-3.5-5.1-4.6-7.4c-0.6-1.1-1-2.3-1.3-3.5
			c-0.2-0.6-0.3-1.3-0.5-2c-0.1-0.7-0.3-1.4-0.4-2.2c-0.7-3.2-1.8-7.2-4.6-12.9c0.5,1.1,0.8,1.1,1.3,2.3c-0.8-2.3-1.9-4.3-3-6.5
			c-1.1-2.2-2.3-4.5-3-7.4c-0.7-0.6-1.2-1.3-1.7-2.1c-0.4-0.8-0.7-1.6-1.1-2.3c-0.6-1.5-1.2-2.7-2.3-2.7c0.8,1.8,1.6,3.6,2.4,5.3
			l2.6,5.2c-0.8-1.5-1.7-2.8-2.6-4.3c-0.5-0.7-0.9-1.4-1.4-2.2c-0.5-0.8-0.9-1.5-1.4-2.4c-0.9-1.6-1.9-3.4-2.8-5.5
			c-0.4-1-0.9-2.1-1.3-3.3c-0.2-0.6-0.4-1.2-0.6-1.8c-0.2-0.6-0.3-1.3-0.5-2c0.4,0.3,0.9,1.2,1.6,2.3c0.7,1,1.4,2.2,1.9,3.2
			c-0.3-1.6-1-3-1.6-4.4c-0.6-1.4-1.2-2.9-1.4-4.6c0.6,0,1.2,0.9,1.8,2.2c0.3,0.7,0.6,1.5,1,2.3c0.4,0.9,0.8,1.8,1.2,2.8
			c1.6,4,3.4,8.7,5.5,11.7c-0.4-3.5-6.3-11.9-2.9-9.4c-1.1-0.9-2-2.1-2.7-3.5c-0.3-0.7-0.7-1.4-0.9-2.2c-0.3-0.8-0.5-1.6-0.7-2.5
			c-1-3.4-2-7.3-4.5-11l1.4,0.1c-0.7-1.2-2-3.7-2.7-6.1l2.9,3.8c-1.7-3.1-2.3-6.4-2.8-9.7c-0.3-1.6-0.5-3.3-0.8-4.9
			c-0.3-1.6-0.6-3.2-1.2-4.8c0.4,1.7,0.7,3,0.9,4c0.2,1,0.4,1.7,0.4,2.3c0.1,1-0.1,1.2-0.3,1.2c-0.6-0.1-1.6-1.1-1.2,1.9
			c-0.4-1-0.8-1.9-1.1-2.8c-0.2-0.4-0.3-0.8-0.4-1.2c-0.1-0.4-0.2-0.8-0.3-1.1c-0.4-1.4-0.6-2.6-0.7-3.6c-0.3-2-0.1-3.4,0.1-4.9
			c0.2-1.4,0.4-3,0.2-5.3c-0.1-1.1-0.2-2.5-0.4-4.2c-0.2-1.7-0.6-3.6-1.1-5.9c0.7,2.5,1,9.7-0.4,5.9c-0.4-3.7-0.8-8.5-0.5-10.8
			c-0.2-0.8-0.3-1.4-0.5-2c-0.1-0.6-0.2-1.1-0.3-1.5c-0.2-0.8-0.3-1.3-0.4-1.5c-0.2-0.5-0.4,0-0.5,0.8c-0.2,1.5-0.4,3.8-1.2,1.2
			c1-4.6-1.6-6.1-3-11.5l1.4-0.2c-0.1-0.9-0.2-1.7-0.2-2.4c-0.1-0.7-0.1-1.4-0.2-1.9c-0.1-1.1-0.3-1.9-0.5-2.5
			c-0.4-1.2-0.8-1.6-1.2-1.9c-0.8-0.7-1.6-1.2-1.7-7.8l2.6,5.3l-1.2-6.7l1.8,1.2c-0.5-1.8-0.8-3.3-1-4.7c-0.2-1.4-0.4-2.6-0.4-3.8
			c-0.2-2.4-0.1-4.8-0.1-8.4c-0.5,0.9-1.2,0.7-1.8-0.6c-0.6-1.2-1.1-3.5-1.2-6.7c0.8-4.4,1.5,2.4,1.1-6.7c1,2.1,2.2,4.3,0.9,8.3
			c0.5,0.4,1,2,1.5,2.4c1-4.7,0.1-11.8,0-15.1c-0.1,1.3-0.1,2.8-0.3,3.6c-0.2-1.1-0.4-2.2-0.6-3.3l-0.5-3.3
			c-0.3-2.2-0.7-4.4-0.9-6.6c0.7-2.1,1.1-0.4,1.5,1.2c-0.1-2.7-0.7-4.5-0.6-8.5c1.2,1.1,2.5,0.9,2.9,6.4l-0.4-6.3
			c-0.1-2.1-0.2-4.2-0.3-6.3c0.3-0.4,0.8-2,1.3-3.2c0.5-1.3,0.9-2.2,1.1-1.4c0.7-3.4,0.4-7.7,0.4-12.2c-0.1-4.6,0.1-9.4,1.2-13.9
			c-0.2-0.5-0.2-1.5-0.1-3.4c0.4-2.1,0.9-4.2,1.5-6.2c0.6-2,1.1-4,1.7-6.1c0.5-2.1,1.1-4.2,1.5-6.4c0.2-1.1,0.4-2.3,0.5-3.5
			c0.1-1.2,0.3-2.4,0.4-3.7l3.7-5c0.8-3.9-0.4-2.2-1.6-1.2c-1.1,1-2.1,1.5-0.8-5.1c0.4-2.3,0.9-3.7,1.3-4.4c0.4-0.7,0.8-0.9,1.1-0.9
			c0.7,0.1,1.3,0.9,2.1-0.5c0.1-2.4,0.1-5.8,0.8-9.5c0.3-1.8,0.8-3.8,1.5-5.7c0.7-1.9,1.6-3.9,2.8-5.8
			C143,389,141.9,391,141.1,393.6z M184.7,304.9c-0.4,0.9-0.9,2.3-1.5,3.5c-0.6,1.3-1.3,2.4-2.1,2.7
			C180.7,308.2,182.4,307.3,184.7,304.9z M291.4,198.5c-0.9,1.3-3,2.2-5.5,3C287.4,200.4,289.2,199.4,291.4,198.5z M697.5,206.8
			c-0.1,0-0.1-0.1-0.2-0.1C694,203.7,695.2,204.8,697.5,206.8z M704.5,212.9c0.8,0.4,0.9,0.3,0.7-0.1c-0.7-0.2-2.3-1.4-4.2-2.9
			C701.3,210.5,702.2,211.4,704.5,212.9z M145.5,668.7c-0.2-0.6-0.4-1.2-0.5-1.7C147.1,670.4,146.3,669.5,145.5,668.7z"/>
		<path class="st0" d="M278.1,209.9c-0.6,0.1-0.9-0.1-1.2-0.3C276.5,210.2,276.7,210.5,278.1,209.9z"/>
		<path class="st0" d="M127.1,453.4c0,0.1,0,0.2-0.1,0.3c0.1,0.2,0.2,0.3,0.2,0.3L127.1,453.4z"/>
		<path class="st0" d="M574.3,160.6c-1.7-0.7-2.7-1.2-3.2-1.6C570.9,159.3,571.6,159.8,574.3,160.6z"/>
		<path class="st0" d="M742.2,244.1l-4.3-4c2,2,2.6,2.9,3.5,4C741.4,243.9,740.8,242.8,742.2,244.1z"/>
		<path class="st0" d="M770.9,286.6c0.6,0.6,1.1,1.4,1.7,2l0.2-0.4C770.6,285.4,768.8,283.6,770.9,286.6z"/>
		<path class="st0" d="M743.6,250.4c-0.2,0.5,0.5,1.3,1.5,2.4c1,1.1,2.4,2.5,3.8,3.9c-0.2-0.2-0.3-0.3-0.5-0.5
			c0.8,0,0.4-0.7-0.6-1.8c-0.5-0.6-1.2-1.2-1.9-1.9c-0.4-0.3-0.8-0.7-1.1-1.1C744.4,251.1,744,250.8,743.6,250.4z"/>
		<path class="st0" d="M749.6,257.4c0.9,0.9,1.8,1.9,2.6,2.8C752.8,260.3,751.2,259,749.6,257.4z"/>
		<path class="st0" d="M714,219.7c1.3,1.5,1.7-0.1,2.3,0.9C718.8,221.1,705.4,213.3,714,219.7z"/>
		<path class="st0" d="M743.9,254.7l-0.2-1.8c-0.7-0.4-1.5-0.7-2.2-1l1.3,1.4C743.1,253.8,743.4,254.3,743.9,254.7z"/>
		<path class="st0" d="M721.1,231.9l4.6,4.6c0.1-0.2,0.7,0.3,1.6,0.9C724.3,234.7,721.2,231.5,721.1,231.9z"/>
		<path class="st0" d="M727.3,237.4c1.5,1.4,3,2.7,4,3.4C730.5,240,728.6,238.4,727.3,237.4z"/>
		<polygon class="st0" points="737.3,248.7 736.1,247.1 732.9,243.9 		"/>
		<path class="st0" d="M664.3,190.6c-2.1-1.1-4.3-2.1-6.4-3.1c-0.9,0,0.7,1.2,3.1,2.3c0.8,0.3,1.8,0.7,2.6,0.9
			C664.3,191,664.7,191,664.3,190.6z"/>
		<path class="st0" d="M680.7,204.9c-1.4-1.3-1.4-1.6-2.1-2.5l-1,1.2L680.7,204.9z"/>
		<path class="st0" d="M663,194.4c-0.2,0-0.9-0.3-1.7-0.6c-0.8-0.3-1.8-0.6-2.4-0.8c-1.3-0.4-1.5-0.3,2.4,1.8
			C662.1,194.7,668.3,198.1,663,194.4z"/>
		<polygon class="st0" points="565,152.9 566.8,153.3 567.3,150.2 		"/>
		<path class="st0" d="M471.7,151.1c4.1,0.3,4.6-0.2,5-0.7c0.2-0.2,0.4-0.5,0.9-0.6c0.6-0.1,1.6-0.2,3.5,0.1c1-0.4-0.6-0.6-2.1-0.8
			c-1.5-0.2-3-0.3-2-0.7C471.9,149.3,469.3,148.9,471.7,151.1z"/>
		<path class="st0" d="M476.9,148.4c0.8-0.1,1.6-0.3,2.6-0.6C478,148.1,477.4,148.3,476.9,148.4z"/>
		<polygon class="st0" points="400.6,865.7 406,866.6 402.5,866 		"/>
		<path class="st0" d="M410.9,867.4l1.3,0.3l3.2,0.6C414.2,868,411.8,867.6,410.9,867.4z"/>
		<path class="st0" d="M197.1,295.8l-0.2-0.7c-1,0.3-1.8,1.2-3.3,3.2C194.8,297.5,195.9,296.6,197.1,295.8z"/>
		<polygon class="st0" points="158.6,355.6 159.2,354.5 156.3,355.7 		"/>
		<path class="st0" d="M139.8,412.3c0.7-2.3,1.2-5.2,2-7.5c-0.6,2.6-1.7,4.4-2.4,5.7C138.6,411.7,138.5,412.3,139.8,412.3z"/>
	</g>
	<polygon class="st1" points="687.8,539.1 728.1,539.1 707.9,415.4 	"/>
	<path class="st1" d="M818.8,593.8c0-0.1,0.1-0.2,0.1-0.3c-0.1,0.2-0.3,0.5-0.4,0.7c-0.4,0.7-0.8,1.4-1.2,2
		c-3.1,5.6-6,12.5-8.3,19.8c-0.2,0.6-0.4,1.2-0.6,1.7c1.6-3.3,3.2-6.6,4.6-9.8C815.7,602,817.5,597.4,818.8,593.8z"/>
	<g>
		<polygon class="st0" points="353.8,343.2 296,343.2 230.4,455.1 230.4,343.2 176.3,343.2 176.3,657.3 230.4,657.3 230.4,558.1 
			246.3,530 302.9,657.3 366.3,657.3 279.9,471.6 		"/>
		<path class="st0" d="M543.8,609.6c2.9,4.5,3,10.9,0.1,20.2c-1.7,5.6-3.8,11-5.9,15.7l2.1,11.8H593l57-313.7h-57.6l-26.8,168.1
			l-28.8-168.1h-57.6l-26.4,168.1L424,343.5h-57.6l61,313.7H480l29.2-171.2l21.3,117.4c0.6-0.1,1.2-0.1,1.8-0.1
			C537.1,603.4,541.2,605.6,543.8,609.6z"/>
		<path class="st0" d="M788.5,611.9c1.5-5,3.4-10.1,5.8-15.5l-48.6-252.8h-75l-61.1,313.7h56.6l13.3-72.1h56.8l12.9,72.1h31.6
			c0.1-5.1,0.6-10.6,1.5-16.8C783.5,631,785.7,621.1,788.5,611.9z M687.8,539.1l20.2-123.7l20.2,123.7H687.8z"/>
	</g>
	<path class="st0" d="M893.5,666.3c-0.2-0.8-0.7-1.5-1.4-2c-0.8-0.5-1.6-0.6-2.6-0.5c-20,5.1-40,10.4-60.1,14.6
		c-7.8,1.6-24,6.9-29.4,2.7c-2.2-1.7-3.8-7.6-4.5-14.3c8-11.9,15.6-24.2,22.2-36.8c6.1-11.6,11.7-23.9,15.9-36.3
		c2.2-6.6,5.5-16,2.8-22.4c-1.1-2.5-3.3-3.9-6.1-3.6c-12.1,0.9-18.8,12.1-24.5,21.5c-3.9,7.9-7.2,15.8-9.7,24
		c-2.7,8.9-4.9,18.3-6.2,27.5c-1.1,8.1-1.8,16.6-1.3,25.1c-6,8.2-12.1,16.4-19.6,23.3c-6,5.6-12.1,8.9-14.8,8.1
		c-2-0.6-3.5-3-3.4-4.5c0.2-2.3,2.4-5.1,6.5-8.5c4.1-3.4,8.4-6.2,13-8.6c0.8-0.5,1.4-1.1,1.8-2c0.4-0.9,0.4-1.7,0.1-2.5
		c-0.3-0.8-0.9-1.3-1.7-1.6c-0.8-0.2-1.7-0.1-2.7,0.3c-1.5,0.8-3.3,1.8-5.2,2.9c-1.6,1-3.5,2.3-5.9,4c-0.3-0.7-0.9-1.2-1.7-1.4
		c-0.9-0.2-1.8-0.1-2.6,0.4c-2.9,1.6-6.3,3.5-10.4,5.7c-6.5,3.4-13.3,6.5-19.9,9.4c-6.5,2.8-13.5,6-20.7,7.2c-0.1,0-0.1,0-0.2,0
		c-5.6,0.9-10.5-0.2-14.8-3.4c0.5-1.3,0.7-2.4,0.7-3.5c0-0.6,0-1.1-0.1-1.6c-0.1-0.5-0.2-0.9-0.4-1.4c-0.2-0.4-0.4-0.8-0.8-1.1
		c-0.4-0.3-0.7-0.5-1.1-0.7c-0.4-0.2-0.8-0.4-1.3-0.5c-0.5-0.2-1-0.2-1.6-0.1c-2.3,0.1-4,1.1-5,2.8c-1.2,2-1.1,4.2,0.4,6.7
		c0.2,0.4,0.5,0.9,0.9,1.5c-0.2,0.4-0.5,0.7-0.7,1c-2.4,3.1-4.6,4.8-6.6,5.2c-1.7,0.3-2.7,0.2-3.2-0.2c-0.5-0.4-0.7-1.9-0.7-4.5
		c0-0.3,0-0.4,0-0.7c0-0.6,0.2-1.3,0.5-2.1c0.3-0.1,0.5-0.3,0.8-0.4c1-0.5,1.6-1.2,1.9-2.2c0.2-0.7,0.3-1.4,0.1-2.1
		c0.7-0.8,1.3-1.4,1.7-1.6c0.8,0,1.6-0.4,2.4-1c0.8-0.7,1.2-1.5,1.3-2.3c0.2-1,0.1-1.8-0.4-2.4c-0.5-0.6-1.3-1-2.2-1.1
		c-1.9-0.1-4.1,1.1-6.3,3.1c-1.4,1.4-2.8,3.1-4,5.2c-2.2,1.3-4.8,2.7-7.6,4.2c-6.4,3.5-13.2,6.7-19.9,9.6c-6.6,2.8-13.5,6-20.7,7.2
		c-0.1,0-0.1,0-0.2,0c-5.6,0.8-10.5-0.4-14.8-3.6c0.5-1.3,0.7-2.4,0.7-3.5c0-0.6,0-1.1-0.1-1.6c-0.1-0.5-0.2-0.9-0.4-1.4
		c-0.2-0.4-0.4-0.8-0.8-1.1c-0.4-0.3-0.7-0.6-1.1-0.7c-0.4-0.2-0.8-0.4-1.3-0.5c-0.5-0.2-1-0.2-1.6-0.1c-2.3,0.1-4,1-5,2.7
		c-1.2,1.9-1.1,4.2,0.4,6.7c0.2,0.4,0.5,0.9,0.9,1.5c-0.2,0.4-0.5,0.7-0.7,1c-2.4,3.1-4.6,4.7-6.6,5c-1.7,0.2-2.7,0.1-3.2-0.3
		c-0.5-0.4-0.7-1.9-0.7-4.5c0-0.3,0-0.4,0-0.7c0-0.7,0.2-1.5,0.6-2.4c0.8-0.4,1.4-0.9,1.9-1.7c0.4-0.7,0.5-1.3,0.4-2
		c0.1-0.1,0.2-0.2,0.2-0.3c0.8-0.9,1.4-1.5,1.9-1.7c0.8,0,1.6-0.3,2.4-1c0.8-0.6,1.2-1.4,1.3-2.2c0.2-0.9,0.1-1.8-0.4-2.4
		c-0.5-0.6-1.3-1.1-2.2-1.1c-1.9-0.2-4.1,1-6.3,3c-1.3,1.2-2.5,2.7-3.6,4.6c-3.9,1.6-8.6,3.4-14.1,5.6c-11.6,4.5-23.5,8.5-35.4,12.2
		c-14.1,4.4-28.5,8.5-43.1,11.3c1.3-4.7,2.6-9.3,3.9-13.7c0.4-0.3,0.7-0.6,0.9-0.9c3.9-5.8,7.8-11.7,11.5-17.7
		c5-7.9,9.7-15.9,14.4-23.9c5-8.7,10.1-17.6,14.4-26.6c3.4-7.2,6.7-14.6,9-22.3c2.1-7,2.3-11.7,0.7-14.2c-1.6-2.4-4.1-3.4-7.7-2.7
		c-4,0.8-8.5,5.2-13.5,12.9c-6.1,9.4-10.6,19.9-14.7,30.3c-5,12.6-9.6,25.5-13.8,38.4c-4.5,13.7-8.5,27.7-12.3,41.7
		c-6.7,0.9-12.4,1.4-17.3,1.4c-0.4,0.1-0.5,0.1-0.9,0.2c-3,0.9-4.8,2.5-5.2,4.8c-0.4,2.3,0.8,4.9,3.4,7.5c2.6,2.6,7.1,6.1,13.6,10.3
		c-3.5,14.3-9.7,30.7-9.1,44.8c0.1,1.2,0.4,2.4,1,3.4c0.5,0.9,1.2,1.6,2,1.9c0.8,0.3,1.6,0.5,2.4,0.5c0.1,0,0.1,0,0.2,0
		c7-2.2,11.6-8.7,15.5-14.4c4.5-6.6,9.3-14,11.1-21.9c0.5-0.9,0.7-1.7,0.7-2.5c0-1.3-0.7-2.7-2.1-4.2c-1.4-1.5-3-2.9-5-4.4
		c-2-1.5-5-3.5-9.2-6.2c1.3-4.8,2.7-9.9,4.1-15.3c14.8-2.6,29.5-6.6,43.8-11c12.3-3.8,24.7-7.9,36.7-12.6c4.2-1.6,8-3.2,11.4-4.5
		c0,0.1,0,0.2,0,0.3c0,0.3,0,0.4,0,0.7c0,4.4,0.9,7.4,2.7,8.9c1.8,1.6,4.4,2.1,7.9,1.6c4.2-0.6,8.2-3.4,12-8.4
		c5.4,3.8,11.5,5.1,18.4,4.1c0.1,0,0.1,0,0.2,0c7.6-1.3,14.9-4.3,21.8-7.4c6.9-3.1,13.9-6.2,20.5-9.8c1.2-0.6,2.3-1.2,3.4-1.8
		c0,4.4,0.9,7.3,2.7,8.8c1.8,1.5,4.4,2,7.9,1.4c4.2-0.7,8.2-3.6,12-8.7c5.4,3.7,11.5,5,18.4,3.9c0.1,0,0.1,0,0.2,0
		c7.6-1.3,14.8-4.4,21.8-7.5c6.9-3.1,13.8-6.1,20.5-9.6c1.3-0.7,2.5-1.3,3.7-1.9c-1.8,2.5-2.9,5-3.2,7.3c-0.5,4.3,1.8,7.8,6.8,10.5
		c0.1,0.1,0.2,0.2,0.4,0.3c0.2,0,0.3,0.1,0.5,0.1c1.2,0.2,2.5,0.2,3.8,0c13.8-2.1,24.6-17.1,32.7-27.2c0.5-0.5,1-1.1,1.4-1.8
		c1.1,4.6,2.6,8.4,4.6,11.1c1.8,2.4,6.7,3.3,14.3,2.8c9.3-0.7,18.6-2.5,27.7-4.7c9.7-2.3,19.4-4.6,29-7c8.5-2.1,17.1-4.3,25.6-6.4
		c0.8-0.1,1.5-0.6,2-1.4C893.5,668,893.7,667.2,893.5,666.3z M514.9,640.1c3.6-8,7.7-19.8,16.6-23.7c0.2,0,0.4,0,0.5-0.1
		c0.3,0,0.4,0,0.7-0.1c1.3,1.1,0.7,5.2-2,12.2c-3.7,9.8-8.6,19.4-13.6,28.7c-7.1,13.3-14.9,26.3-22.9,39.2
		C500.5,677.3,506.7,658,514.9,640.1z M460.3,741.1c4.2,0,8.9-0.4,14.3-1.2c-0.8,3.2-1.7,6.8-2.7,10.6
		C465.3,746.1,461.5,743,460.3,741.1z M486.5,769.1c0,0.6,0,0.9,0,1.4c0,2.6-2.4,7.8-7.2,15.5c-4.8,7.7-8.7,12.5-11.7,14.6
		c1-13.3,5-26.6,8.2-39.5C481.6,765,485.2,767.6,486.5,769.1z M797.2,635.3c1.3-7.5,3.3-15.3,5.6-22.5c2.3-7.1,5.3-14.6,8.9-21.2
		c4.1-6.8,8.9-16.4,17.5-17.4c0.1,0,0.3,0,0.5,0c0.1,0,0.2,0,0.4,0c0.4,0.7,0.6,1.7,0.7,3.1c0.1,1.4-0.3,3.7-1.2,7.1
		c-0.9,3.3-2,7-3.4,10.9c-1.4,3.9-3.4,8.8-6,14.7c-2.8,6.2-5.8,12.4-9.1,18.4c-5.1,9.4-10.3,18.7-16.1,27.8
		C795.2,649.2,796,642,797.2,635.3z"/>
</g>
</svg>
