<?xml version="1.0" encoding="utf-8"?>
<!-- Generator: Adobe Illustrator 16.0.0, SVG Export Plug-In . SVG Version: 6.00 Build 0)  -->
<!DOCTYPE svg PUBLIC "-//W3C//DTD SVG 1.1//EN" "http://www.w3.org/Graphics/SVG/1.1/DTD/svg11.dtd">
<svg version="1.1" id="Layer_1" xmlns="http://www.w3.org/2000/svg" xmlns:xlink="http://www.w3.org/1999/xlink" x="0px" y="0px"
	 width="300px" height="300px" viewBox="0 0 300 300" enable-background="new 0 0 300 300" xml:space="preserve">
<g opacity="0.3">
	<path fill="#221A15" d="M172.927,278.615c-0.065,0-0.099,0-0.099,0C173.025,278.615,172.927,278.615,172.927,278.615z"/>
	<path fill="#221A15" d="M174.938,278.385L174.938,278.385c0.067,0,0.166-0.033,0.266-0.066L174.938,278.385z"/>
	<path fill="#221A15" d="M176.818,278.154c-0.232-0.166-0.66,0.131-1.023,0.098l-0.064-0.033l-0.133,0.133
		C175.994,278.285,176.521,278.121,176.818,278.154z"/>
	<path fill="#221A15" d="M177.938,278.516c-0.099-0.098,0.197-0.098-0.229,0c0.033,0,0.033,0,0.033,0.033
		C177.773,278.516,177.84,278.516,177.938,278.516z"/>
	<path fill="#221A15" d="M177.741,278.516C177.544,278.516,177.872,278.582,177.741,278.516L177.741,278.516z"/>
	<path fill="#221A15" d="M178.631,278.385l-0.23,0.098c0.066,0.066,0.297,0.033,0.23,0.101
		C178.895,278.516,178.829,278.482,178.631,278.385z"/>
	<path fill="#221A15" d="M178.861,278.186l-0.133,0.033C178.764,278.252,178.795,278.252,178.861,278.186z"/>
	<path fill="#221A15" d="M178.467,278.352l0.264-0.1c-0.033-0.033-0.065-0.131-0.133,0.033
		C178.598,278.186,178.564,278.285,178.467,278.352z"/>
	<path fill="#221A15" d="M178.268,278.318c-0.164-0.033-0.361-0.066-0.099-0.164C177.675,278.252,177.773,278.385,178.268,278.318z"
		/>
	<path fill="#221A15" d="M176.852,277.922l-0.199-0.031l-0.164,0.098C176.586,277.957,176.884,277.988,176.852,277.922z"/>
	<path fill="#221A15" d="M180.312,278.352c0-0.065-0.133-0.166-0.166-0.264l-0.166,0.098
		C180.08,278.252,180.279,278.252,180.312,278.352z"/>
	<path fill="#221A15" d="M180.146,278.121l0.265-0.164C180.146,277.988,180.115,278.055,180.146,278.121z"/>
	<path fill="#221A15" d="M178.829,277.857c-0.134,0.1-0.265,0.197-0.431,0.264c0.166-0.1,0.33-0.197,0.528-0.299L178.829,277.857z"
		/>
	<polygon fill="#221A15" points="181.466,278.252 181.334,278.449 181.564,278.154 	"/>
	<path fill="#221A15" d="M182.191,278.154c-0.065,0.164,0.229,0.229,0.132,0.361c0.196-0.033,0.329-0.197,0.462-0.33
		C182.619,278.252,182.454,278.252,182.191,278.154z"/>
	<path fill="#221A15" d="M182.982,277.957c-0.066,0.031-0.133,0.131-0.197,0.197C182.852,278.121,182.916,278.055,182.982,277.957z"
		/>
	<path fill="#221A15" d="M180.904,277.922c0.033,0.035,0.101,0.133,0.298,0.166l-0.164-0.197
		C181.005,277.922,180.938,277.922,180.904,277.922z"/>
	<path fill="#221A15" d="M181.038,277.922L181.038,277.922c0.131,0,0.229,0,0.264-0.031
		C181.234,277.891,181.169,277.891,181.038,277.922z"/>
	<path fill="#221A15" d="M180.872,277.922C180.904,277.922,180.904,277.922,180.872,277.922
		C180.904,277.922,180.872,277.891,180.872,277.922z"/>
	<path fill="#221A15" d="M179.619,277.891c0.133-0.133,0.461-0.297,0.1-0.396C179.619,277.658,179.816,277.691,179.619,277.891z"/>
	<path fill="#221A15" d="M180.675,277.691h-0.329c0.032,0.033,0.098,0.1,0.032,0.166L180.675,277.691z"/>
	<polygon fill="#221A15" points="180.807,277.625 180.675,277.691 180.807,277.691 	"/>
	<path fill="#221A15" d="M182.389,277.791c0.101-0.133,0.264-0.166,0.396-0.197c-0.198-0.033-0.363,0-0.561,0
		C182.257,277.691,182.191,277.822,182.389,277.791z"/>
	<path fill="#221A15" d="M181.729,277.822L181.729,277.822C181.729,277.791,181.695,277.791,181.729,277.822z"/>
	<polygon fill="#221A15" points="184.398,277.297 184.366,277.264 184.366,277.297 	"/>
	<path fill="#221A15" d="M182.225,277.594c-0.133-0.033-0.197,0.031-0.264,0.131c0.1-0.033,0.197-0.065,0.296-0.1
		C182.257,277.594,182.257,277.561,182.225,277.594z"/>
	<path fill="#221A15" d="M183.411,277.758c-0.099-0.033-0.165-0.066-0.265-0.1C183.213,277.725,183.411,277.822,183.411,277.758z"/>
	<path fill="#221A15" d="M181.795,277.857C181.795,277.857,181.795,277.891,181.795,277.857
		C181.861,277.922,181.828,277.891,181.795,277.857z"/>
	<path fill="#221A15" d="M181.795,277.857c0.066-0.035,0.1-0.101,0.133-0.166c-0.064,0.033-0.133,0.065-0.199,0.1
		C181.764,277.822,181.795,277.857,181.795,277.857z"/>
	<path fill="#221A15" d="M184.366,275.449c0.067,0.264-0.197,0.594-0.56,0.43c-0.23,0.264,0.196,0.988,0.56,1.385
		c-0.032-0.1-0.065-0.197,0.198-0.43c-0.131-0.098-0.758-0.164-0.562-0.428c0.362-0.23,0.33,0,0.562,0.1
		c-0.265-0.264,0.361-0.594,0.133-1.057l-0.299,0.264C184.398,275.648,184.465,275.516,184.366,275.449z"/>
	<path fill="#221A15" d="M183.773,277.361l-0.1,0.065c0.165,0,0.297,0.101,0.526,0.23c0.165-0.164,0.198-0.265,0.165-0.328
		l-0.627,0.098L183.773,277.361z"/>
	<path fill="#221A15" d="M183.113,277.527c0.033-0.264,0.298-0.428,0.033-0.66c-0.361,0.1-0.196,0.266-0.396,0.396
		C183.346,277.098,182.652,277.428,183.113,277.527c-0.131,0.033-0.229,0.065-0.328,0.098c0.099,0,0.23,0.033,0.328,0.066
		c0,0,0,0-0.032,0l0,0l0,0c-0.032-0.033-0.032-0.033,0-0.033l0,0C183.113,277.594,183.113,277.561,183.113,277.527
		c0.199,0.033,0.033,0.065,0,0.098v0.033l0,0c0.199-0.064,0.363-0.131,0.562-0.23C183.542,277.395,183.377,277.461,183.113,277.527z
		"/>
	<path fill="#221A15" d="M179.883,277.033c0.033,0,0.033,0.033,0.033,0.033C179.949,277.033,179.98,277.033,179.883,277.033z"/>
	<path fill="#221A15" d="M180.182,277.098c-0.035,0.035-0.065,0.133-0.199,0.133c-0.131-0.032-0.032-0.098-0.032-0.164
		c-0.066,0.066-0.265,0.197,0.032,0.23l0.033-0.033c0.264,0,0.627,0.197,0.594,0.23C180.443,277.33,180.378,277.23,180.182,277.098z
		"/>
	<path fill="#221A15" d="M181.63,277.197l0.462-0.199l-0.297-0.131l0.033,0.1C181.531,276.967,181.63,277.098,181.63,277.197z"/>
	<polygon fill="#221A15" points="184.499,277.428 184.532,277.725 184.697,277.264 	"/>
	<polygon fill="#221A15" points="185.125,277.264 185.189,277.527 185.289,277.33 	"/>
	<path fill="#221A15" d="M215.456,257.943l0.032-0.197C215.456,257.846,215.456,257.912,215.456,257.943z"/>
	<path fill="#221A15" d="M214.598,258.473l0.1,0.197C214.664,258.57,214.632,258.473,214.598,258.473z"/>
	<path fill="#221A15" d="M200.389,272.615c0.363,0.297,0.857,0.791,0.627,0.33l-0.264-0.396
		C200.652,272.68,200.521,272.68,200.389,272.615z"/>
	<path fill="#221A15" d="M208.796,265.197c-0.032-0.033-0.099-0.064-0.132-0.1c0.033,0.166,0.1,0.362,0.132,0.495
		C208.764,265.461,208.764,265.33,208.796,265.197z"/>
	<path fill="#221A15" d="M207.84,263.252l0.396,0.166C208.137,263.318,208.004,263.252,207.84,263.252z"/>
	<path fill="#221A15" d="M219.807,254.449l-0.164-0.492C219.443,254.121,219.676,254.252,219.807,254.449z"/>
	<path fill="#221A15" d="M191.555,275.582c0.229,0.1,0.396,0.1,0.526,0.1C191.784,275.516,191.488,275.252,191.555,275.582z"/>
	<path fill="#221A15" d="M218.126,262.691c0.032-0.131,0-0.23-0.065-0.33C218.027,262.494,218.061,262.594,218.126,262.691z"/>
	<path fill="#221A15" d="M192.576,275.516c-0.033-0.031-0.1-0.031-0.133-0.065c-0.1,0.1-0.229,0.198-0.396,0.198
		C192.279,275.779,192.51,275.812,192.576,275.516z"/>
	<path fill="#221A15" d="M236.323,242.549c0.032,0,0.032,0,0.065,0C236.389,242.516,236.355,242.516,236.323,242.549z"/>
	<path fill="#221A15" d="M241.434,239.086c-0.033,0.066-0.1,0.135-0.132,0.199C241.334,239.252,241.367,239.186,241.434,239.086z"/>
	<path fill="#221A15" d="M187.729,276.867C187.598,276.9,187.729,276.9,187.729,276.867L187.729,276.867z"/>
	<path fill="#221A15" d="M186.674,275.779c0.034-0.033,0.034-0.098,0-0.164C186.708,275.682,186.708,275.746,186.674,275.779z"/>
	<path fill="#221A15" d="M192.971,272.715C192.971,272.715,193.005,272.715,192.971,272.715
		C192.938,272.648,192.938,272.68,192.971,272.715z"/>
	<path fill="#221A15" d="M187.466,276.77c0.066,0.031,0.132,0.031,0.197,0.064C187.631,276.801,187.598,276.77,187.466,276.77z"/>
	<path fill="#221A15" d="M187.564,276.9c-0.066,0-0.1,0-0.131,0C187.434,276.967,187.466,276.998,187.564,276.9z"/>
	<path fill="#221A15" d="M187.928,276.801c-0.066,0.033-0.166,0.033-0.23,0c0.033,0,0.064,0.033,0.033,0.033
		C187.762,276.834,187.828,276.834,187.928,276.801z"/>
	<path fill="#221A15" d="M228.379,250.098h0.032C228.443,249.9,228.411,249.967,228.379,250.098z"/>
	<path fill="#221A15" d="M201.443,266.582L201.443,266.582c0,0.033,0,0.033,0.033,0.033L201.443,266.582z"/>
	<path fill="#221A15" d="M201.708,266.021c0.099,0.658-0.033,0.625-0.231,0.594l0.758,1.219L201.708,266.021z"/>
	<path fill="#221A15" d="M217.434,256.494l-0.527-0.199c-0.1-0.824,0.298-0.756-0.329-1.119c0.856,1.318-0.989,0.824-0.132,2.143
		l-0.363-0.166c0.064-0.032,0.034-0.098,0.064-0.131c-0.789-0.395,0.363,1.119-0.196,1.254c-0.229,0-0.462-0.1-0.462-0.332
		l-0.131,0.562c-0.133,0.035-0.265-0.196-0.133-0.262l-0.461,0.461l-0.033-0.033c0.065,0.265,0.1,0.692,0.1,0.892
		c-0.264-0.101-0.033-0.197-0.165-0.33l-0.099,0.526c-0.363-0.264-0.332-0.758-0.066-0.856c-1.154-1.154-0.032,0.494-1.154,0.1
		l0.166-0.363c-0.691-0.66-0.726-0.229-1.352-0.527c0.229,0.197,1.417,0.824,1.316,1.353c-0.164-0.032-0.328-0.032-0.328,0.363
		c-0.297-0.496-0.396-0.265-0.627-0.101l-0.396-0.658c-0.131,0.328,0.1,0.658,0.165,1.021c-0.296,0.1-0.659-0.363-0.989-0.76
		c-0.494,0.166,0.792,0.627,0.362,1.057c-0.493-0.033-0.593,0.396-0.791,1.055c-0.396-0.065-0.197-0.428-0.396-0.561l0.099,0.66
		c-0.063,0.033-0.132-0.166-0.164-0.232c-0.065,0.33,0.396,0.66,0.198,1.021c0.363,0.793-1.254-0.725-1.121,0.332
		c-0.199-0.133-0.199-0.43-0.363-0.66c-0.198,0.824-0.198,0.625-0.198,1.615l-0.593-0.23c0.561,0.361,0.561,1.121,0.527,1.779
		c0.229,0.197,0.428,0.363,0.527,0.43l-0.265,0.625c-0.132-0.064-0.198-0.328-0.263-0.658c0,0.064,0,0.131,0,0.197
		c-0.297-0.164-0.43-0.594-0.528-1.021c0.131,0.099,0.265,0.197,0.396,0.33c-0.099-0.463-0.265-0.989-0.494-1.354
		c0,0.1,0,0.199-0.065,0.264c-0.032-0.131-0.065-0.229-0.131-0.295s-0.034,0.098,0,0.328l-0.528-0.691l0.133,0.298l-0.856-0.132
		c-0.033,0.988,0.229,2.338-0.331,2.998c-0.1-0.625-0.428-0.922-0.79-1.582c0.562,0.595,0.396-0.561,0.824-0.657
		c-0.231,0.03-0.362-0.298-0.362-0.431c-0.1,0.33-0.197,0.66-0.298,0.988c-0.263-0.527-0.362-0.328-0.625-0.461
		c0.69,0.99-0.101,0.957-0.198,1.418c-0.199-0.33-0.33-0.725,0.033-0.824c-0.76-0.594,0.197,1.484-0.527,0.988
		c0.065-0.064,0.131-0.031,0.098-0.197c-0.031,0.396-0.592,0.396-0.658,0.033l0.066-0.033c-0.595,0.166-1.582,0.824-1.221,1.746
		c-0.064-0.098-0.463-1.086-0.527-1.285c0.166,1.154,0.362,2.31,0.494,3.463c-0.296-0.793-1.482-2.44-1.254-3.065
		c-0.164-0.033-0.395-0.101-0.525,0.297c0.132,0.065,0.726,0.988,0.66,1.121c-0.727-0.692-0.431-0.33-1.188-0.856
		c0.196,0.1,0.627,1.352,0.396,1.418c-0.064-0.199-0.561-1.154-0.561-1.318l0.033,1.385c0.033-0.266-0.428-0.99-0.692-1.254
		c0.166,0.197-0.461,0.197-0.526,0.363l0.33,0.164c-0.66,0.1,0.164,1.879-0.461,2.076c-0.035-0.263-0.463-1.517-0.824-1.517
		c0.131,0.658,0.625,3.033,0.295,3.692l-0.23-0.297l-0.264,0.527c-0.1-0.924-0.198-3.066-0.133-3.955
		c-0.328-0.166-0.229-0.363-0.527-0.166c-0.229-0.264-0.032-0.561,0.066-0.627l-0.823,0.197c0.329,0.66-0.298,0.924-0.032,1.451
		c0.164-0.363,0.361-0.691,0.525-1.055c0.164,0.33,0.264,0.856,0.23,1.317s-0.197,0.856-0.494,0.892
		c-0.263-0.197-0.396-1.222-0.494-1.418c0.033,0.264-0.33,0.66-0.429,0.526l0.065-0.461c-0.396-0.101-0.131,1.088-0.758,0.627
		c-0.133,0-0.693-0.659-0.562-0.264c0.494,0.627,1.483,2.866,1.55,3.461c-0.066-0.033-0.957-0.431-1.253-0.726
		c-0.43-0.463-0.231-1.483-0.594-1.881c0.065,0.166,0.033,0.43,0,0.527c-0.197-0.098-0.164-0.559-0.396-0.361
		c0.197,0.658-0.594,0.197,0.065,0.594c-0.198,0.297-0.362,0-0.659,0.164c0.264,0.361,0.229,1.484,0,1.781
		c-0.033-0.166-0.197-0.332-0.264-0.43c-0.627,0.166-1.021,0-1.583,0.197c-0.099-0.131-0.429-0.197-0.396-0.494
		c-0.033,0.131-0.033,0.363-0.197,0.43c-0.494-0.363,0.361-0.232-0.131-0.727c0.099,0.363-0.265,0.627-0.431,0.924
		c0.265,0.494,0.595-0.1,0.759-0.43c0.265,0.727,0.133,1.615-0.363,2.143c-0.396,0.33-0.362-0.395-0.396-0.264
		c-0.923,0.166-0.329,1.418-1.253,1.154c-0.428-0.33-0.296-0.824-0.462-1.119c0.331-0.299,0.66,0.063,0.923-0.035l-0.395-0.098
		c0.066-0.199,0.296-0.396,0.462-0.298c-0.363-0.297-1.483,0.461-2.275,0.33c-0.065,0.164-0.229,0.363-0.099,0.494l0.197-0.131
		c0.297,0.262-0.264,0.559,0.065,0.625c-0.229,0.297-0.43,0.725-0.923,0.659l-0.197-0.396c0.032,0.134,0.362,0.197,0.428,0.033
		c-0.099,0.229-0.823-0.396-0.823,0.196l0.396,0.197c-0.232,0.297-0.462,0.824-0.891,0.76c0.296,0.361,0.066-0.065,0.494,0.361
		c-0.428-0.527,0.955-0.164,0.396-0.725c0.462,0.494,0.56,0.133,1.054,0.561c-0.064-0.133-0.229-0.264,0.133-0.229
		c0-0.033,0.033-0.101,0.033-0.134c0,0,0,0,0.033,0c0,0,0,0-0.033,0c0-0.032,0-0.032,0,0c-0.1-0.032-0.197-0.098-0.23-0.196
		c0.033-0.363,0.562-0.494,0.66-0.69c0.197,0.03-0.033,0.196,0.131,0.327l0.165-0.327c0.132,0.327,0.692,0.461,0.296,0.758
		c0.134-0.033,0.266-0.033,0.396-0.066c0.297,0.133,0.66,0.133,0.791-0.064c0.197,0.031,0.33-0.529,0.264-0.199l0.527-0.396
		l0.033,0.101c0.625-0.101,1.021-0.988,1.944-0.494c0.164-0.166,0.329-0.33,0.726-0.33l0.197,0.33
		c0.1-0.101,0.329-0.066,0.527-0.066c0.197,0,0.361-0.033,0.361-0.23c0.66,0.857,1.354-0.196,1.881-0.196l-0.166-0.496
		c0.33-0.063,0.562-0.328,0.856-0.658l-0.196-0.43c0.196-0.462,0.988,0,1.483-0.229c0.033,0.164-0.133,0.197-0.265,0.131
		c0.527,0.361,0.791,0.099,1.022-0.264c0.229-0.33,0.427-0.727,0.855-0.463c0.067-0.229,0.198-0.197,0.329-0.131l-0.032,0.033
		c0.032,0,0.032,0,0.065-0.033c0.1,0.066,0.197,0.1,0.297,0.164c-0.1-0.098-0.197-0.164-0.265-0.164
		c0.101-0.066,0.231-0.164,0.362-0.361l0.298,0.461c0,0,0.033,0,0.033-0.033c0.229,0.099,0.032-0.297-0.231-0.627
		c0.034-0.1,0.066-0.229,0.066-0.396c0.494,0.728,0.296-0.429,0.857,0.33c-0.101-0.462,0.658-0.658,0.328-1.55
		c0.066,0.101,0.133,0.134,0.066,0.197c0.229,0.033,0.429,0.033,0.494-0.264l0.361,0.594l-0.031-1.021
		c0.428,0.298,0.627,0.464,0.627,1.056c0.197-1.021,0.296-0.494,0.395-1.483l0.165,0.43c0.165-0.1,0.132-0.791,0.429-0.496
		c0.76,0.596,1.879-0.791,3.231-0.525c-0.824-1.123,0.726,0.328,0.263-0.627c0.198,0.264,0.428,0.361,0.428,0.691
		c0.332-0.561,0.959,0.066,0.857-0.922c0.23,0.264,0.133,0.494,0.266,0.625c0-0.098,0-0.33,0.164-0.197
		c0.133,0.131,0.065,0.297,0.065,0.463c0.462-0.332,0.033-1.254-0.431-2.078c0.464,0.264,0.562,0.131,0.431-0.527
		c0.229,0.23,0.528,0.429,0.296,0.693c0.199-0.068,1.254-0.166,0.891-0.857c0.166,0.131,0.266-0.1,0.266-0.198
		c0.395-0.164,0.461-0.132,0.791-0.396l-0.164-0.066c-0.331-0.889,0.197-0.362,0.428-0.627l0.033,0.101
		c1.021,0.164,0.131-0.461,1.188-0.196l-0.33-0.464c-0.594-1.088,0.955,0.265,1.088-0.395l-0.297-0.197
		c-0.032-0.496,1.483,1.056,1.748,1.056c0.099,0.063,0.031,0.196,0,0.297c0.955,0.264-0.33-0.693,0-1.088
		c0.295,0.295,0.461,0.922,0.758,0.823c0.33,0.197,0.099-1.616,0.891-1.221c-0.264-0.199-0.495-0.429-0.43-0.726
		c0.232-0.299,1.418,0.428,1.121-0.561c0.1,0.033,0.133,0.098,0.197,0.164c0.065-0.363,0.461-0.824,0.297-1.352
		c1.287,1.448,0.791-1.713,1.812-0.23l0.594-0.561l0.1,0.166c0.494-0.199,0.396-0.66,0.298-1.121
		c0.164,0.033,0.196,0.196,0.229,0.297c0.791-0.166,0.824-0.297,0.824-1.354l0.362,0.396c-0.066-0.362,1.385,0,1.582-0.955
		c0.032,0.064,0.065,0.132,0.065,0.229c0.131-0.493,0.758-0.526,1.221-0.625c0.461-0.133,0.758-0.362,0.297-1.188l0.132-0.725
		c-0.627,0.328-0.429-0.693-0.824-0.76c0.132-0.262,0.89-0.031,0.692,0.264l-0.1-0.031c0.494,0.824,0.891-0.297,1.285,0.197
		c1.021-0.955,2.373-1.451,3.33-2.373l-0.527-0.396l0.362-0.297c0.197,0.032,0.461,0.264,0.197,0.495
		c0.362,0.164,0.196-0.627,0.099-0.727c0.627-0.264,0.331,0.758,0.463,0.627l0.164-0.231h-0.099
		c-0.033-0.361-0.197-0.56,0.099-0.824c0.264-0.063,0.362,0.199,0.43,0.166c0.033,0.033,0.065,0.033,0.132-0.101l0.429-0.36
		l-0.494-0.197c0.033-0.362,0.396-0.362-0.166-0.594c0.43,0.164,0.857-0.134,1.221-0.496c0.362-0.36,0.66-0.789,0.824-0.789
		c0.032-0.496,0.264-0.728,0.594-1.022c-0.133,0.033-0.494-0.265-0.198-0.494c0.562,0.791,0.759-0.197,1.419,0.033
		c-0.462-0.101,0.626-0.857-0.066-0.955c0.264-0.166,0.23,0.196,0.528,0.164c0.131-0.396,0.461-0.66,0.79-0.924
		c0.33-0.298,0.658-0.595,0.923-0.988c-0.065-0.066-0.265-0.066-0.229-0.297c0.197-0.033,0.43-0.033,0.627-0.066
		c0.064-0.164-0.231-0.461,0.164-0.527c-0.065,0-0.197-0.033-0.133-0.133c0.727-0.559,1.221-1.35,1.78-2.076
		c0.265-0.395,0.528-0.758,0.824-1.121c0.297-0.363,0.594-0.69,0.89-1.055c-0.164,0.166-0.099,0.033,0-0.133
		c-0.064,0.102-0.031-0.033-0.099-0.033c0.165-0.197,0.33-0.361,0.495-0.559c0.033-0.166,0.462-0.693,0.494-0.758l-0.133,0.196
		c0.065-0.133,0-0.065-0.099,0.033s-0.263,0.196-0.263,0.164c-0.102,0.131-0.299,0.297-0.496,0.461
		c-0.229,0.166-0.463,0.33-0.594,0.596c-0.133,0.064,0.033-0.102-0.032-0.102c-0.065,0.133-0.164,0.299-0.429,0.495v-0.032
		c-0.66,0.66-1.022,0.892-1.912,1.483l0.197,0.064c-0.197,0.133-0.265,0.133-0.363,0.166c0,0.361,0.496-0.396,0.529-0.066
		c-0.231,0-0.529,0.23-0.824,0.494c-0.297,0.264-0.596,0.494-0.857,0.396c-0.264,0.23,0.264,0.098,0,0.328l-0.164-0.033l0.064,0.166
		c-0.197,0.133-0.396,0.064-0.494,0c0.066-0.033,0.099-0.133,0.132-0.166c-0.362,0.066-0.593,0.562-0.726,0.594l0.33-0.131
		c-0.297,0.361-0.727,0.691-1.121,1.021c-0.396,0.33-0.791,0.66-0.99,1.088l0.166,0.065c-0.33,0.625-0.527,0.229-1.021,0.824v-0.033
		c0,0.197-0.1,0.396-0.298,0.527c0.033-0.265-0.525-0.033-0.461-0.33c-0.363,0.726-0.133,0.43-0.064,1.188l-0.266-0.132
		c0.032,0.296,0.131,0.396-0.1,0.726c0.065-0.396-0.495-0.166-0.428-0.627c-0.529,0.033-0.627,0.33-0.759,0.561
		c-0.099,0.23-0.196,0.428-0.659,0.166c0.264,0.855,0.856-0.1,0.823,0.164c0.329,0.098,0.198,0.66-0.065,0.758
		c-0.196,0.164-1.056-0.527-1.549-0.131c0.065-0.035,0-0.102,0.065-0.133c-0.33-0.033-0.165,0.527-0.66,0.428
		c0.231,0.527-0.329,0.199,0.099,0.76l0.363-0.496c-0.132,0.33,0.164,1.154-0.527,1.222c-0.065-0.134-0.065-0.396-0.032-0.527
		c-0.265-0.065-0.132,0.295-0.429,0.229c-0.43-0.561,0.461-0.561,0.396-1.188c-0.329-0.131-0.197,0.791-0.56,0.1
		c0.428,0.892-0.594,0.297-0.431,1.121l-0.264-0.363c0,0.101,0,0.33-0.099,0.396l-0.198-0.559c0.032,0.297-0.165,0.329-0.396,0.297
		c-0.23,0-0.462-0.033-0.527,0.164c0.561-0.429,0.494,0.33,0.923,0.396c-0.296,0.988-1.153-0.627-1.813,0.098
		c0.066-0.131,0.596-0.063,0.562,0.199c-0.198,0.031-0.527,0.031-0.76-0.1c-0.461,0.463,0.396,0.328,0.362,0.691
		c-0.526-0.328-0.099,0.363-0.229,0.692l-0.297-0.362c-0.791,0.197,0.494,0.891-0.297,1.021l-0.197-0.69l-0.165,0.33l-0.296-0.494
		c-0.033,0.561-0.197,0.526-0.594,0.625c0.297,0.229,0.526,0.76,0.262,0.957c-0.361-0.101-0.196-0.461-0.525-0.133
		c-0.1-0.328-0.264-0.691,0.164-0.429c-0.1-0.133-0.1-0.297-0.197-0.461c-0.396-0.133-0.527,0.295-0.658,0.396
		c0.065-0.033,0.131-0.033,0.229,0l-0.099,0.922c-0.198-0.099-0.23-0.265-0.264-0.428c-0.066,0.133,0,0.362-0.133,0.495
		c-0.197-0.362-0.494-0.692-0.363-1.022l-0.561,0.955c-0.133-0.131-0.561-0.229-0.594-0.396c-0.428,0-0.198,1.154-0.791,1.121
		c0.033,0.065,0.033,0.166,0,0.265c-0.43,0.166-1.055-0.066-1.119,0.727l-0.693-0.496c-0.23,0.363,0.924,0.594,0.527,1.221
		c-0.264,0.461-0.561-0.461-0.824-0.561c0.032,0.461,0.166,1.352-0.594,1.055C217.169,256.594,217.334,256.627,217.434,256.494z
		 M213.443,259.494c0.033-0.166-0.033-0.561,0.23-0.33C213.938,259.789,213.675,259.561,213.443,259.494z M207.576,264.57
		c-0.034-0.197,0.1-0.164,0.328-0.033C207.873,264.637,207.773,264.67,207.576,264.57z M189.113,276.209L189.113,276.209
		C189.378,276.273,189.279,276.242,189.113,276.209z M188.586,276.176c-0.031,0.066,0,0.098,0.033,0.164
		c0-0.098,0.102-0.131,0.23-0.131C188.785,276.109,188.721,276.076,188.586,276.176z M231.346,251.252l-0.132-0.031
		C231.279,251.021,231.312,251.152,231.346,251.252z"/>
	<path fill="#221A15" d="M207.973,263.449c0.065,0.066,0.131,0.166,0.196,0.264C208.137,263.615,208.07,263.516,207.973,263.449z"/>
	<path fill="#221A15" d="M219.84,254.549L219.84,254.549c0-0.033,0-0.066-0.033-0.1L219.84,254.549z"/>
	<path fill="#221A15" d="M193.961,270.242c0.1,0.033,0.197,0.098,0.264,0.164C194.158,270.307,194.092,270.209,193.961,270.242z"/>
	<path fill="#221A15" d="M186.378,277.297l0.265-0.133c-0.133,0.033-0.197-0.031-0.297-0.066
		C186.378,277.164,186.477,277.264,186.378,277.297z"/>
	<path fill="#221A15" d="M183.312,276.01c-0.035,0.033-0.101,0.033-0.133,0.066l0.032,0.133
		C183.411,276.176,183.51,276.01,183.312,276.01z"/>
	<path fill="#221A15" d="M185.751,276.273c-0.099-0.265-0.263-0.131-0.428-0.031h0.032
		C185.423,276.637,185.587,276.439,185.751,276.273z"/>
	<path fill="#221A15" d="M185.289,276.273c-0.064,0.035-0.131,0.065-0.197,0.065C185.125,276.473,185.189,276.34,185.289,276.273z"
		/>
	<path fill="#221A15" d="M188.093,276.506c-0.132-0.066,0.065,0.395-0.032,0.295C188.093,277.23,188.555,276.209,188.093,276.506z"
		/>
	<polygon fill="#221A15" points="185.323,275.418 185.488,275.746 185.521,275.418 	"/>
	<path fill="#221A15" d="M186.971,275.219h-0.361c0.033,0.066,0,0.1-0.033,0.133C186.773,275.285,187.005,275.318,186.971,275.219z"
		/>
	<path fill="#221A15" d="M186.575,275.352c-0.099,0.033-0.197,0.066-0.229,0.133C186.378,275.449,186.51,275.418,186.575,275.352z"
		/>
	<polygon fill="#221A15" points="185.719,275.186 185.85,275.219 186.048,275.186 	"/>
	<path fill="#221A15" d="M190.333,274.164l0.298-0.23c-0.033-0.164-0.132-0.197-0.23-0.098
		C190.333,273.967,190.234,274.064,190.333,274.164z"/>
	<path fill="#221A15" d="M188.949,273.439c0.133,0.033,0.164,0.133,0.264,0.264l-0.165-0.494L188.949,273.439z"/>
	<path fill="#221A15" d="M189.872,272.945c-0.032-0.166,0.33-0.594-0.065-0.396C189.807,272.68,189.509,272.945,189.872,272.945z"/>
	<polygon fill="#221A15" points="195.113,271.625 195.016,271.658 195.411,272.615 	"/>
	<path fill="#221A15" d="M198.346,267.273c-0.494-0.066,0.197,0.692-0.265,0.528c0.032,0.296,0.396,0.099,0.396,0.361
		C198.575,267.803,198.74,267.9,198.346,267.273z"/>
	<path fill="#221A15" d="M198.443,268.164c-0.032,0.066-0.032,0.131-0.032,0.197C198.443,268.295,198.443,268.23,198.443,268.164z"
		/>
	<path fill="#221A15" d="M242.027,238.262c0.064-0.063,0.099-0.164,0.164-0.229l-0.1,0.131L242.027,238.262z"/>
	<path fill="#221A15" d="M242.291,237.801l0.032-0.031c0.032-0.033,0.065-0.1,0.099-0.133
		C242.391,237.67,242.323,237.77,242.291,237.801z"/>
	<path fill="#221A15" d="M211.961,258.57l0.1,0.166c0.131,0.164,0.197,0.131,0.328,0.098L211.961,258.57z"/>
	<polygon fill="#221A15" points="215.323,257.152 215.257,257.186 215.752,257.68 	"/>
	<path fill="#221A15" d="M217.367,254.846c-0.133,0.033-0.164,0.23-0.264,0.297C217.27,254.879,217.895,255.504,217.367,254.846z"/>
</g>
<g opacity="0.3">
	<path fill="#221A15" d="M271.104,150.109c0.035,0.725,0.035,0.527,0.035,0.625C271.07,149.416,271.104,150.142,271.104,150.109z"/>
	<polygon fill="#221A15" points="269.688,136.856 269.752,137.086 269.355,135.142 	"/>
	<path fill="#221A15" d="M267.018,124.625c0.064,0.594,0.395,1.682,0.725,2.901c0.297,1.22,0.626,2.571,0.857,3.692l0.031,0.363
		l0.33,0.956c-0.296-1.319-0.659-2.835-0.988-4.253c-0.1-0.363-0.166-0.692-0.265-1.055c-0.099-0.329-0.198-0.659-0.265-0.956
		C267.279,125.647,267.146,125.086,267.018,124.625z"/>
	<path fill="#221A15" d="M265.564,118.064c0.033,0.429-0.494-1.352,0.43,1.517c-0.033-0.132-0.033-0.198-0.064-0.264
		C265.861,119.021,265.764,118.691,265.564,118.064z"/>
	<path fill="#221A15" d="M265.961,119.284C266.355,120.57,265.764,118.427,265.961,119.284L265.961,119.284z"/>
	<path fill="#221A15" d="M263.949,113.515l0.693,1.616c-0.066-0.363-0.596-1.846-0.363-1.319
		C263.62,112.13,263.686,112.526,263.949,113.515z"/>
	<path fill="#221A15" d="M263.191,112.031l0.363,0.824C263.521,112.691,263.456,112.46,263.191,112.031z"/>
	<path fill="#221A15" d="M264.279,114.636l-0.725-1.78c0.031,0.264-0.033,0.297,0.328,0.824
		C263.752,113.548,263.949,113.877,264.279,114.636z"/>
	<path fill="#221A15" d="M264.643,115.658c0.164,0.462,0.297,1.022,0.328,1.22c0.035,0.231-0.031,0.099-0.328-0.692
		c0.527,1.582,0.791,2.242,0.791,2.11c0-0.066-0.064-0.33-0.197-0.758c-0.065-0.231-0.131-0.495-0.229-0.792
		C264.906,116.416,264.773,116.053,264.643,115.658z"/>
	<path fill="#221A15" d="M266.654,124.064l0.296,1.253l0.362,1.055C267.146,125.877,266.686,123.966,266.654,124.064z"/>
	<path fill="#221A15" d="M259.928,103.394c-0.1-0.066,0.1,0.626,0.066,0.758l0.626,1.121
		C260.355,104.68,259.861,103.526,259.928,103.394z"/>
	<path fill="#221A15" d="M259.994,104.152l-0.956-1.681C259.764,104.02,259.962,104.284,259.994,104.152z"/>
	<polygon fill="#221A15" points="262.796,111.867 264.115,114.734 262.6,111.273 	"/>
	<polygon fill="#221A15" points="256.6,96.768 257.257,97.658 256.104,96.075 	"/>
	<path fill="#221A15" d="M254.126,92.515c0.56,0.626-0.331-1.088,0.165-0.429c-0.361-0.56-0.693-1.087-1.057-1.549
		c-0.164-0.231-0.33-0.461-0.493-0.692c-0.165-0.197-0.362-0.396-0.527-0.593c0.165,0.23,0.33,0.429,0.494,0.692
		c0.164,0.231,0.298,0.495,0.462,0.758C253.467,91.262,253.795,91.855,254.126,92.515z"/>
	<path fill="#221A15" d="M251.125,87.965c0.331,0.429,0.693,0.857,1.122,1.319C251.884,88.823,251.521,88.361,251.125,87.965z"/>
	<path fill="#221A15" d="M257.62,99.504c-0.032-0.165-0.065-0.461-0.528-1.451l0.165,0.758
		C257.355,99.042,257.489,99.273,257.62,99.504z"/>
	<path fill="#221A15" d="M257.257,98.877L257.257,98.877c-0.396-0.758-0.657-1.253-0.79-1.483
		C256.564,97.559,256.796,98.02,257.257,98.877z"/>
	<path fill="#221A15" d="M257.688,99.668c-0.033-0.066-0.066-0.099-0.1-0.165C257.62,99.57,257.652,99.636,257.688,99.668z"/>
	<path fill="#221A15" d="M261.016,107.152c-0.264-0.495-0.658-1.286-0.89-1.648c-0.132-0.198-0.198-0.264-0.198-0.198
		c0,0.099,0.1,0.362,0.297,0.89C260.62,106.889,260.191,105.636,261.016,107.152z"/>
	<path fill="#221A15" d="M257.916,100.625l0.857,1.847c0.033-0.066-0.065-0.429,0.229,0.066L257.916,100.625z"/>
	<path fill="#221A15" d="M257.391,99.768c0.164,0.297,0.361,0.561,0.525,0.857c-0.1-0.23-0.229-0.461-0.328-0.692L257.391,99.768z"
		/>
	<path fill="#221A15" d="M252.84,91.031c-0.527-0.726-1.088-1.517-1.715-2.407c0.298,0.495,0.627,1.022,0.956,1.517
		c0.298,0.495,0.627,1.022,0.925,1.517C253.137,91.757,253.499,92.12,252.84,91.031z"/>
	<path fill="#221A15" d="M255.049,94.79c-0.031-0.066-0.066-0.099-0.099-0.165C254.982,94.757,255.018,94.855,255.049,94.79z"/>
	<path fill="#221A15" d="M244.764,79.888c0.032,0.066,0.032,0.099,0.065,0.165c0.032,0,0.032,0,0.065,0L244.764,79.888z"/>
	<path fill="#221A15" d="M253.038,91.823c0.429,0.791,0.757,1.187,1.055,1.583c-0.362-0.561-0.725-1.154-1.122-1.781
		C252.904,91.592,252.904,91.592,253.038,91.823z"/>
	<path fill="#221A15" d="M249.346,85.493c0.198,0.429,0.463,0.89,0.727,1.352C249.906,86.449,249.477,85.591,249.346,85.493z"/>
	<path fill="#221A15" d="M254.852,94.361c0.032,0.033,0.032,0.065,0.065,0.099C254.818,94.196,254.818,94.229,254.852,94.361z"/>
	<path fill="#221A15" d="M254.852,94.361c-0.265-0.363-0.494-0.66-0.726-0.923c0.296,0.461,0.56,0.857,0.824,1.219
		C254.884,94.526,254.852,94.427,254.852,94.361z"/>
	<path fill="#221A15" d="M241.334,78.537c0.297-0.066,1.945,1.549,3.032,3.23c0.659,0.693,0.958,0.693,1.022,0.297
		c0.033-0.197,0-0.494-0.099-0.857c-0.101-0.363-0.231-0.758-0.429-1.154c-0.133,0.033-0.198,0.099-1.616-1.385
		c0.331,0.66,2.604,3.66,1.353,2.506c-1.812-1.979-1.318-1.748-2.045-2.835c0.231,0.528-0.396-0.033-1.087-0.659
		c-0.33-0.297-0.726-0.594-0.989-0.792c-0.295-0.165-0.461-0.231-0.461-0.033c0.297,0.263,0.561,0.527,0.855,0.791l0.824,0.824
		C241.598,78.57,240.971,78.009,241.334,78.537z"/>
	<path fill="#221A15" d="M247.17,83.152l0.527,0.659c-0.527-0.792-0.858-1.385-1.45-2.539c-0.462-0.527-0.759-0.824-0.99-0.989
		c-0.196-0.166-0.296-0.231-0.362-0.231l0.66,0.791l0.627,0.824l1.219,1.648L247.17,83.152z"/>
	<path fill="#221A15" d="M249.873,86.844c-0.297-0.197-0.727-0.692-1.055-0.989c-0.332-0.297-0.528-0.396-0.266,0.198
		c1.385,2.011,1.155,1.286,2.045,2.439c-2.274-3.231,0.76,0.857-0.726-1.583c0.461,0.626,0.856,1.187,1.252,1.747
		c-0.362-0.593-0.726-1.186-1.054-1.78c0,0.033,0.031,0.066,0.031,0.099l0,0l0,0c0.066,0.165,0.1,0.231,0,0.033
		c0,0-0.031-0.033-0.065-0.066C250.005,86.943,249.938,86.91,249.873,86.844c-0.594-0.989-0.033-0.197,0.164,0.099
		c0.033,0,0.033,0.033,0.066,0.033l0,0c-0.396-0.527-0.758-1.088-1.153-1.615l-1.253-1.549
		C248.159,84.504,248.852,85.295,249.873,86.844z"/>
	<path fill="#221A15" d="M258.904,104.482c-0.031-0.132-0.031-0.132,0-0.132C258.74,104.12,258.708,104.053,258.904,104.482z"/>
	<path fill="#221A15" d="M258.279,102.999c0.164,0.23,0.33,0.429,0.725,1.253c0.298,0.758-0.1,0.033-0.131,0.099
		c0.297,0.461,0.988,1.681,0.297,0.066l-0.132-0.23c-0.66-1.451-1.319-3.396-1.188-3.166
		C257.916,101.547,257.982,101.976,258.279,102.999z"/>
	<path fill="#221A15" d="M254.257,94.724l-1.812-2.736l0.726,1.517l0.065-0.132C254.126,95.02,254.061,94.592,254.257,94.724z"/>
	<polygon fill="#221A15" points="244.631,79.493 245.158,79.657 243.609,78.438 	"/>
	<polygon fill="#221A15" points="241.895,76.196 242.191,76.163 241.302,75.405 	"/>
	<path fill="#221A15" d="M41.85,105.207l-0.297,0.89C41.685,105.702,41.784,105.438,41.85,105.207z"/>
	<path fill="#221A15" d="M45.081,99.273l-0.132-0.263C44.915,99.339,44.948,99.504,45.081,99.273z"/>
	<path fill="#221A15" d="M148.334,33.338c-1.418-0.363-3.066-0.989-2.869-0.495l0.462,0.462
		C146.916,33.207,147.707,33.24,148.334,33.338z"/>
	<path fill="#221A15" d="M81.146,56.712c0.132-0.033,0.297-0.066,0.429-0.099c0.197-0.33,0.363-0.66,0.527-0.924
		C81.806,55.987,81.476,56.35,81.146,56.712z"/>
	<path fill="#221A15" d="M81.542,59.02l-1.681,0.758C80.256,59.68,80.817,59.416,81.542,59.02z"/>
	<path fill="#221A15" d="M31.036,140.449l0.33,1.154C31.597,139.922,31.234,140.614,31.036,140.449z"/>
	<path fill="#221A15" d="M207.708,48.668c-0.494-0.363-0.956-0.693-1.385-0.956c-0.429-0.264-0.824-0.495-1.22-0.692
		C206.355,47.844,207.214,48.767,207.708,48.668z"/>
	<path fill="#221A15" d="M38.256,100.328c-0.198,0.593-0.198,0.857-0.1,0.89C38.355,100.625,38.421,100.262,38.256,100.328z"/>
	<path fill="#221A15" d="M201.938,45.404c0.166,0.132,0.362,0.264,0.528,0.363c0.824,0.33,1.647,0.692,2.638,1.22
		C204.214,46.361,203.125,45.701,201.938,45.404z"/>
	<path fill="#221A15" d="M80.586,258.637c0.065,0.066,0.165,0.131,0.23,0.197C80.85,258.834,80.751,258.736,80.586,258.637z"/>
	<path fill="#221A15" d="M115.993,276.703c-0.396-0.1-0.989-0.264-1.582-0.428C114.707,276.34,115.168,276.473,115.993,276.703z"/>
	<path fill="#221A15" d="M229.795,63.8C230.521,64.361,229.93,63.867,229.795,63.8L229.795,63.8z"/>
	<path fill="#221A15" d="M232.202,67.756c-0.164-0.099-0.298-0.165-0.362-0.132C231.939,67.625,232.07,67.657,232.202,67.756z"/>
	<path fill="#221A15" d="M192.643,44.185c-0.033,0-0.033-0.034-0.065-0.034C192.773,44.317,192.74,44.284,192.643,44.185z"/>
	<path fill="#221A15" d="M230.718,64.822c-0.229-0.264-0.493-0.561-0.788-0.857C230.061,64.097,230.291,64.361,230.718,64.822z"/>
	<path fill="#221A15" d="M230.686,64.591c0.231,0.231,0.396,0.396,0.562,0.561C231.378,65.185,231.346,65.086,230.686,64.591z"/>
	<path fill="#221A15" d="M228.807,62.976c0.396,0.33,0.76,0.659,1.123,0.989c-0.135-0.132-0.166-0.198-0.135-0.165
		C229.598,63.635,229.302,63.372,228.807,62.976z"/>
	<path fill="#221A15" d="M35.882,202.328c0,0.066,0.033,0.131,0.033,0.199C36.41,203.283,36.212,202.922,35.882,202.328z"/>
	<path fill="#221A15" d="M125.554,40.69c0.033,0,0.066-0.033,0.099-0.033c-0.033,0-0.099,0-0.132,0L125.554,40.69z"/>
	<path fill="#221A15" d="M122.52,41.745c0.594-0.461,1.088-0.725,1.55-0.857c0.231-0.066,0.461-0.132,0.692-0.165
		c0.23-0.034,0.495-0.034,0.725-0.066c-0.429-0.396-0.89-0.824-1.319-1.22C123.608,40.196,123.081,40.954,122.52,41.745z"/>
	<path fill="#221A15" d="M35.685,120.24l1.154-1.945c-0.165,2.769-1.022,4.483,0.231,2.736c-0.33-0.197-0.363-0.791-0.198-1.615
		s0.462-1.846,0.858-2.835c0.758-2.011,1.516-3.989,0.857-4.451c0.296-0.396,0.593-0.792,0.89-1.187
		c-0.198,0.363-0.132,0.462-0.33,0.824c1.879-2.275-0.198-2.374,1.583-5.637c0.692-1.088,1.318-1.78,1.087-0.923l0.956-2.703
		c0.396-0.725,0.561-0.396,0.165,0.296c0.593-1.318,1.319-2.571,2.011-3.857l0.033,0.066c0.1-0.66,0.461-2.077,0.66-2.77
		c0.758-0.824-0.132,0.56,0.198,0.428l0.231-0.56l0.231-0.561l0.495-1.121c0.428-0.297,0.494,0.033,0.296,0.593
		c-0.197,0.561-0.626,1.385-1.055,2.077c1.253-0.561,1.451-1.022,1.714-1.813c0.297-0.792,0.693-1.913,2.406-3.66
		c-0.362,0.66-0.692,1.352-1.055,2.011c0.396-0.165,0.726-0.429,1.022-0.692c0.33-0.296,0.594-0.626,0.923-0.956
		c0.626-0.692,1.319-1.549,2.275-2.406c-0.297,0.165-1.319,0.989-2.143,1.483c-0.824,0.494-1.417,0.692-0.824-0.495
		c0.527-0.527,1.121-1.286,1.681-2.637c0.495,0.329,1.121-0.89,2.176-2.242l0.527,0.56c0.956-1.583,0.561-1.714,0.989-2.802
		c0.329-0.396,0.626-0.692,0.89-0.923c0.263-0.231,0.527-0.363,0.758-0.429c0.461-0.165,0.824-0.165,1.154-0.198
		c2.242-2.407-2.208,1.121,0.231-1.945c1.978-1.912,3.132-3.461,5.077-6.197c1.583-1.154,0.099,0.56,0.726,0.23l0.824-1.616
		c0.33-0.263,0.363-0.066,0.363,0.066c0.89-1.154-0.462-0.626,1.055-2.374c-0.033-0.264,0.231-0.527,0.626-0.857
		c0.396-0.33,1.022-0.626,1.648-0.989c1.286-0.726,2.769-1.648,3.527-2.901c0.692-0.264,0.033,0.56,0.396,0.659
		c1.319-1.451,1.912-2.044,2.406-2.604c0.264-0.296,0.462-0.561,0.759-0.923c0.132-0.198,0.297-0.396,0.494-0.626
		c0.198-0.231,0.429-0.494,0.692-0.824l2.506-1.154c-0.989,0.33-1.055,0-0.692-0.626c0.198-0.33,0.461-0.725,0.824-1.154
		c0.33-0.429,0.725-0.89,1.154-1.319c-0.758,0.132-1.384,0.33-1.813,0.462l0.692-0.626c0.231-0.198,0.461-0.396,0.692-0.594
		l1.417-1.154c0.429-0.132,0.264,0.297-0.066,0.891c0.165-0.198,0.33-0.363,0.461-0.528c1.253-0.461,0.923,0.264,0.363,1.121
		c-0.461,0.099-0.89,0.197-1.352,0.297c-0.231,0.428-0.461,0.857-0.594,1.219c-0.099,0.363-0.099,0.66,0.1,0.791
		c0.066-0.099,0.197-0.23,0.329-0.396c0.165-0.131,0.33-0.296,0.528-0.429c-0.132,0.231-0.198,0.396-0.066,0.396
		c0.132,0,0.363-0.33,0.758-0.824l1.154,0.264l-0.033-0.396l2.11-1.022c0.363-0.165,0.692-0.362,1.055-0.494l1.088-0.462
		c0.593-0.593,1.187-1.22,1.78-1.846c0.297-0.297,0.593-0.626,0.923-0.956c0.297-0.33,0.627-0.66,0.989-0.956
		c0.693-0.627,1.451-1.253,2.341-1.913c0.89-0.659,1.846-1.352,3.066-1.978c-0.956,1.12,0.165,1.021,0.428,1.747
		c-0.824-0.066-1.714,0.495-2.703,1.187c-0.989,0.692-2.077,1.517-3.33,2.077c1.318-0.593,1.187-0.131,0.923,0.132l4.022-2.868
		c0.165,0.593,1.121-0.033,2.406-0.33c-0.692-0.33,0.066-0.89,1.187-1.517c0.56-0.297,1.22-0.626,1.846-0.956
		c0.627-0.296,1.22-0.561,1.682-0.857c0.131,0.165,0.131,0.396-0.198,0.66c-0.33,0.297-0.989,0.593-2.11,1.055
		c0.363-0.033,0.659-0.099,0.923-0.198c0.264-0.099,0.495-0.198,0.726-0.33c0.429-0.264,0.758-0.561,1.087-0.89
		c0.66-0.66,1.319-1.319,2.67-1.45c-0.56,0.23-0.857,0.296-1.022,0.56c0.593-0.396,1.682-0.89,2.572-1.121
		c0.89-0.229,1.549-0.296,1.252,0l-0.56,0.198c0.956-0.297,2.11-0.66,3.362-1.088c0.297-0.099,0.626-0.23,0.957-0.329
		c0.329-0.099,0.659-0.198,0.956-0.297c0.626-0.198,1.286-0.429,1.879-0.626c0.594-0.198,1.187-0.429,1.714-0.626
		c0.528-0.198,1.022-0.428,1.451-0.594c0.857-0.362,1.384-0.659,1.483-0.956c0.065,0.099-0.231,1.286-0.396,1.517
		c2.011-1.583,4.055-3.264,6.231-4.714c-0.231,0.461,0.33,1.087,0.561,1.714c0.231,0.626,0.099,1.286-1.45,1.813
		c0.956-0.066,2.11-0.132,3.989-0.758c-0.627,0-1.78-0.89-0.923-1.121c2.506,0.495,1.748,0.198,4.78,0.593
		c-0.956-0.066-0.099-1.483,1.451-1.616c-0.198,0.231,0.264,1.253-0.264,1.451l1.813-0.89c0.593-0.264,1.22-0.528,1.813-0.792
		c-0.923,0.296-0.066,1.088,0.791,1.385c-0.198-0.099,0.593-0.165,1.583-0.231c0.989-0.033,2.143-0.132,2.637-0.198
		c-0.527-0.099-1.055-0.132-1.615-0.198c1.055-0.066,1.846-0.131,2.505-0.329c0.66-0.165,1.187-0.396,1.682-0.66
		c0.527-0.23,1.055-0.494,1.714-0.659c0.33-0.099,0.692-0.165,1.121-0.231c0.428-0.066,0.89-0.066,1.417-0.033
		c-0.527,0.231-1.286,1.549,0.857,1.747c0.495-0.297,1.615-1.055,3.1-1.747c0.361-0.165,0.758-0.363,1.187-0.495
		c0.429-0.132,0.856-0.264,1.285-0.396c0.892-0.231,1.847-0.396,2.803-0.429l0.692,0.396c0.988-0.065,1.979-0.065,2.968-0.099
		c-0.495,0.165-1.188,0.396-1.979,0.626c-0.823,0.264-1.746,0.56-2.67,0.824c-0.955,0.296-1.912,0.56-2.802,0.824
		c-0.229,0.065-0.462,0.131-0.659,0.165c-0.23,0.066-0.429,0.132-0.627,0.198c-0.396,0.132-0.791,0.23-1.121,0.33
		c0.793,0.165,0.892,0.263,1.088,0.329c0.199,0.066,0.528,0.099,1.683,0.165c0.823,0.396-1.317,0.396-2.011,0.429
		c0.923,0.033,1.812,0.132,2.736,0.23l2.734,0.297c-0.032-0.198,0.199-0.297,0.595-0.396c0.197-0.033,0.429-0.066,0.691-0.099
		c0.264-0.033,0.526-0.033,0.792-0.033c1.055-0.033,2.142-0.066,2.076-0.363c-1.021,0-2.01,0-3.032,0.033l-3.033,0.165
		c-0.101-0.362,0.791-0.824,2.242-1.121c0.362-0.066,0.757-0.132,1.153-0.198c0.428-0.033,0.856-0.066,1.318-0.066
		c0.924,0,1.879,0.066,2.867,0.198c0.956,0.395-0.923,1.153-0.855,1.417c0.264-0.099,1.219-0.099,2.142-0.066
		c0.923,0.066,1.813,0.198,1.979,0.329l-1.716,0.1c1.056,0.296,1.979,0.23,2.935,0.197c0.955,0,1.979,0,3.197,0.561
		c0.892,0.23,2.474,1.45,2.703,1.055c-1.252-1.055-1.055-3.527,0.033-3.89c0.165,0.066,1.316,0.527,2.539,1.022
		c0.626,0.231,1.219,0.561,1.779,0.824c0.527,0.264,0.955,0.494,1.187,0.66c1.286,0.989-2.571,0.791-1.45,1.648
		c0.1-0.166,0.957-0.166,1.318-0.166c0.891,0.396-0.525,0.461,1.484,0.89c0.264-0.263,1.285,0,1.846,0.198
		c0.561,0.197,0.727,0.263-0.758-0.495c2.012,0.396,2.012,0.791,4.318,1.483c-0.297-0.33,0.33-0.495,1.285-0.56
		c0.955-0.033,2.241,0.131,3.23,0.428c-0.165,0.099,0.197,0.495,0.361,0.659c0.496,0.198,0.957,0.396,1.385,0.561
		c0.43,0.197,0.857,0.329,1.254,0.527c0.791,0.396,1.482,0.725,2.209,1.087c0.726,0.362,1.417,0.692,2.176,1.055
		c0.363,0.165,0.758,0.363,1.154,0.593c0.396,0.198,0.824,0.396,1.252,0.626c0.264,0.296,1.879,1.286,1.021,1.187
		c0.562,0.166,1.122,0.166,2.21,0.726c0.891,0.792,0.297,0.495-0.363,0.165c-0.69-0.297-1.416-0.594-0.789,0.066
		c0.064-0.066,0.295-0.033,0.625,0.033c0.33,0.099,0.726,0.263,1.188,0.428c0.891,0.363,1.979,0.857,2.77,1.154
		c-0.099-0.362-0.955-0.857-2.012-1.352c-0.527-0.23-1.088-0.495-1.615-0.692c-0.526-0.197-1.055-0.362-1.482-0.494
		c0.1-0.165,0.329-0.264,0.727-0.297c0.395,0,0.922,0.033,1.582,0.197c1.252,0.33,2.967,0.923,4.879,1.78
		c2.9,1.583,0.955,1.154,1.517,1.385c1.286,0.824,2.274,1.352,3.065,1.714c0.791,0.396,1.385,0.626,1.945,0.857
		c0.561,0.23,1.088,0.461,1.715,0.824c0.328,0.198,0.659,0.429,1.055,0.692c0.197,0.132,0.395,0.297,0.627,0.461
		c0.197,0.198,0.428,0.396,0.658,0.594c1.385,1.582-0.429,0.758-0.265,1.286c-0.56-0.362-1.021-0.725-1.45-1.055
		c-0.428-0.33-0.824-0.626-1.152-0.923c-0.693-0.593-1.319-1.121-2.077-1.648l1.715,1.418c-0.792-0.363-2.31-1.253-3.067-1.913
		c0.299,0.33,0.989,0.857,1.881,1.517c0.461,0.329,0.955,0.692,1.517,1.087c0.562,0.396,1.153,0.758,1.747,1.22
		c1.188,0.89,2.439,1.846,3.626,2.769c0.297,0.231,0.594,0.462,0.856,0.693c0.264,0.231,0.527,0.461,0.791,0.692
		c0.528,0.461,0.99,0.89,1.418,1.319c0.727,0.428,1.945,1.22,1.518,0.659l-1.188-0.923c-0.857-1.154,2.473,1.451,1.121,0.099
		c0.857,0.528,1.747,1.187,2.67,1.879c0.461,0.363,0.956,0.759,1.418,1.187c0.23,0.198,0.494,0.429,0.725,0.659
		c0.266,0.231,0.494,0.495,0.727,0.758l0.064,0.692c0.033-0.065-0.262-0.461-0.625-0.857c-0.396-0.395-0.856-0.824-1.221-1.055
		c1.055,0.626,2.703,3.461,4.057,3.956l-1.188-1.616c0.79,0.627,1.713,1.319,2.67,2.11c0.924,0.792,1.813,1.682,2.604,2.671
		c-0.462-1.154-0.429-0.396-1.286-2.077c0.165,0.396-0.032,0.296-0.395-0.066c-0.363-0.362-0.892-0.923-1.418-1.451
		c-1.056-1.088-2.045-2.077-1.386-0.923c-0.428-0.857-0.956-1.483-1.549-2.143c-0.594-0.659-1.253-1.319-1.979-2.34
		c-0.032,0.165,0.43,0.791-1.088-0.726c-0.099-0.033-0.295-0.132-0.43-0.231c-0.031-0.033-0.064-0.066-0.099-0.099
		c0.032,0.033,0.032,0.066,0.065,0.099c-0.099-0.033-0.099-0.033,0.032,0.034c0.331,0.395,0.595,0.725,0.66,0.923
		c-0.265-0.099-0.593-0.33-0.988-0.627c-0.396-0.296-0.823-0.659-1.284-0.989c-0.892-0.66-1.813-1.352-2.31-1.648
		c-0.923-0.857,0.526,0.198,0.099-0.362l-1.484-0.89c0.035-0.099-0.098-0.297-0.262-0.527c-0.164-0.231-0.396-0.462-0.527-0.66
		c-0.264-0.363-0.231-0.495,0.988,0.33l-2.109-1.648c-0.562-0.56-1.285-1.187-1.979-1.78c-0.363-0.297-0.726-0.56-1.057-0.791
		c-0.361-0.23-0.689-0.429-0.988-0.593c-0.988-0.792-2.867-1.484-1.812-1.088c-0.595-0.362-1.187-0.758-1.813-1.087l-1.846-1.022
		l0.032-0.099c-0.89-0.561-1.779-1.088-2.736-1.616c-0.955-0.494-1.944-0.989-2.935-1.483c-0.493-0.264-0.988-0.528-1.482-0.792
		c-0.23-0.132-0.495-0.263-0.727-0.429c-0.264-0.132-0.493-0.264-0.758-0.396c-1.021-0.561-2.011-1.154-3-1.846
		c-1.285-0.56-2.67-0.989-4.779-2.077l-0.264-0.527c-0.431-0.166-0.957-0.396-1.483-0.66c-0.562-0.264-1.155-0.527-1.716-0.758
		c-1.119-0.495-2.143-0.923-2.57-0.89c-0.727-0.857-2.803-1.615-5.077-2.308c-0.562-0.165-1.121-0.363-1.714-0.527
		c-0.561-0.132-1.154-0.297-1.682-0.429c-1.088-0.264-2.076-0.528-2.836-0.791l-0.23,0.461c-1.055-0.33-2.109-0.527-3.229-0.726
		c-1.123-0.198-2.31-0.396-3.66-0.593l0.064,0.495c-1.187-0.033-2.637-0.363-4.253-0.792c-0.823-0.197-1.647-0.461-2.539-0.626
		c-0.89-0.165-1.812-0.33-2.702-0.429c0.266-0.165,1.188,0.033,1.848,0.198c-2.11-0.792-4.484-0.956-6.76-0.857
		c-1.153,0.033-2.274,0.066-3.361,0.033c-1.09-0.033-2.145-0.066-3.133-0.296c-0.988,0.132-1.715,0.066-2.439-0.066
		c0.1,0,0.165,0,0.264-0.033c-0.099,0-0.264,0-0.396-0.033c-0.428-0.099-0.89-0.198-1.384-0.263
		c0.198,0.065,0.429,0.099,0.626,0.131c0.198,0.066,0.396,0.099,0.561,0.132c-0.198,0-0.396,0-0.66,0
		c-0.231,0-0.495,0.033-0.758,0.066c-0.527,0.033-1.121,0.099-1.682,0.165l-0.494-0.527c-0.099,0-0.165,0-0.264,0.033
		c-1.121-0.166-0.891,0.263-0.297,0.659c-0.56,0.099-1.088,0.231-1.483,0.363c-0.462-0.429-1.22-0.363-2.011-0.231
		c-0.792,0.132-1.616,0.231-2.275-0.165c-0.362,0.264-1.813,0.429-3.197,0.692c-1.385,0.296-2.736,0.692-3,1.22
		c-0.066-0.132-0.396-0.132,0.197-0.231c-1.286,0.066-2.539,0.099-3.626,0.527l-0.626-0.593l-2.572,1.417
		c-1.714-0.131-2.472-0.263-0.923-1.087c-0.956,0.396-1.648,0.626-2.176,0.824c-0.527,0.198-0.89,0.329-1.253,0.461
		c-0.692,0.23-1.352,0.461-2.934,1.253l0.066-0.495c-0.297,0.066-0.626,0.198-0.989,0.33c-0.33,0.131-0.692,0.297-1.055,0.428
		c-0.693,0.297-1.319,0.561-1.714,0.461c-0.726-0.033-1.913,0.198-3.363,0.527c-0.363,0.066-0.758,0.198-1.154,0.33
		c-0.396,0.132-0.824,0.264-1.252,0.396c-0.857,0.264-1.748,0.561-2.703,0.89c-0.461,0.165-0.956,0.297-1.417,0.495
		c-0.461,0.165-0.956,0.362-1.451,0.561c-0.956,0.363-1.945,0.725-2.9,1.088c-0.495,0.165-0.989,0.33-1.451,0.528
		c-0.461,0.197-0.923,0.362-1.384,0.527c-0.923,0.363-1.813,0.659-2.67,0.923c0.923,0.33,0.099,0.527-0.923,0.792
		c-1.022,0.263-2.209,0.626-2.11,1.187c-0.528-0.1-1.484,0.165-0.594-0.594c-0.758,0.494-1.483,0.857-2.143,1.154
		c-0.659,0.297-1.252,0.56-1.78,0.857c-1.087,0.561-2.011,1.121-2.868,2.143c-0.527-0.066,0.429-0.792,0-0.792
		c-0.23,0.198-0.857,0.824-1.286,0.857c-0.429,0,0.33-0.495,0.758-0.923c-1.615,0.923-2.308,1.747-2.604,2.373
		c-0.297,0.627-0.165,1.154-0.033,1.616c-0.89,0.297-1.55,0.594-2.044,0.989c-0.527,0.363-0.89,0.824-1.253,1.484
		c-0.692,0.099-1.78,0.461,0.033-0.956c-0.527,0.363-2.208,1.384-3.692,2.439c-0.363,0.264-0.726,0.528-1.055,0.758
		c-0.329,0.264-0.593,0.527-0.857,0.758c-0.462,0.461-0.759,0.824-0.659,0.989c-0.429,0.099-1.451,1.055-1.648,1.352
		c-0.561,0.429-1.022,0.758-1.385,1.055c-0.363,0.297-0.659,0.561-0.956,0.792c-0.594,0.494-1.187,0.989-2.242,1.945l0.692-0.429
		c-0.132,0.726-0.527,1.121-1.121,1.583c-0.296,0.23-0.626,0.461-0.989,0.726c-0.363,0.296-0.726,0.626-1.121,1.021l-0.033-0.099
		c-2.11,1.549-2.473,2.011-2.835,2.44c-0.33,0.461-0.659,0.89-2.736,2.472l0.626,0.198c0.296,0.593-0.626,1.286-1.813,2.176
		c-1.153,0.923-2.604,2.011-3.395,3.296l0.956-0.593c-0.363,0.758-1.451,1.319-2.539,1.945c-1.088,0.593-2.242,1.154-2.835,1.748
		c-0.296,0.23,0.231-0.561,0.461-0.989c-1.616,1.483-1.582,1.714-1.319,1.912c0.132,0.099,0.297,0.165,0.297,0.396
		c0,0.099-0.033,0.264-0.099,0.461c-0.066,0.198-0.231,0.462-0.429,0.824c-0.66,0.264-0.396-1.252-1.714,0.495
		c-0.428,0.363-1.121,1.813-1.912,3.461c-0.758,1.682-1.682,3.527-2.802,4.583c0.626-0.396,1.22-0.758,0.626,0.626
		c-0.527,1.022-1.55,2.208-2.473,3.428c-0.461,0.627-0.89,1.253-1.219,1.846c-0.297,0.626-0.495,1.253-0.528,1.813
		c-0.198,0.23-0.33,0.296-0.396,0.264c-0.296,0.824-0.857,2.143-1.318,3.396c-0.429,1.286-0.792,2.473-0.758,3.066
		c-0.594,0.165-1.121,0.891-1.616,1.879c-0.264,0.495-0.429,1.055-0.626,1.648c-0.198,0.593-0.363,1.219-0.527,1.813
		c-0.33,1.22-0.659,2.374-0.956,3.198s-0.627,1.319-1.022,1.187l-0.824,2.571l-0.395,1.286c-0.132,0.429-0.231,0.857-0.363,1.286
		l-0.132-0.198c-0.527,1.648-0.758,2.802-0.857,3.692c-0.099,0.89-0.066,1.517,0,2.176c-0.296,0.758-0.33,0.132-0.395,0.066
		c-0.726,2.406-1.088,3.758-1.319,5.011c-0.165,1.286-0.132,2.473-0.066,4.616l-0.626,0.33c0.033,0.297-0.099,0.89-0.264,1.681
		c-0.165,0.792-0.363,1.813-0.593,2.935c-0.099,0.56-0.231,1.153-0.33,1.78s-0.23,1.253-0.264,1.879
		c-0.099,1.286-0.165,2.604-0.099,3.825c-0.066-0.066-0.165-0.165-0.198-0.561c0.033,0.692,0,1.417-0.033,2.176
		c-0.033,0.759-0.066,1.517-0.099,2.273c-0.099,1.551-0.296,3.1-0.396,4.518c-0.066,1.449-0.066,2.77,0.034,3.892
		c0.066,0.56,0.165,1.021,0.296,1.449c0.132,0.396,0.363,0.759,0.594,0.987l0.725,3.595c-0.197-4.714,0.857,0.627,1.022-1.318
		c0.066,0.462,0.066,0.989,0.066,1.482c-0.033,0.495-0.066,0.958-0.099,1.319c-0.1,0.691-0.264,0.856-0.429-0.264
		c0-0.133,0.033-0.232,0.066-0.363c-1.088-0.725,0.33,5.836-0.33,5.803c0.758,4.582,1.417,9.132,2.506,13.517
		c0.131,0.562,0.263,1.09,0.396,1.647c0.132,0.562,0.23,1.091,0.396,1.648c0.296,1.09,0.593,2.143,0.89,3.23
		c0.165,0.529,0.296,1.057,0.461,1.584s0.363,1.055,0.527,1.582c0.363,1.055,0.726,2.076,1.088,3.098l0.296-1.186
		c0.165,0.461,0.33,0.955,0.494,1.418l0.561,1.416c0.165,0.791-0.066,1.188-0.857-0.824c0.099,1.188,1.648,3.264,1.813,3.264
		c0.165,0.496,0.264,0.857,0.33,1.088c0.066,0.232,0.066,0.363,0.066,0.396c-0.033,0.1-0.264-0.131-0.495-0.463
		c-0.428-0.658-0.989-1.68-0.758-1.086c0.231,0.526,0.461,1.086,0.726,1.615c-0.033-0.132-0.066-0.265-0.099-0.396
		c0.824,1.219,1.153,1.219,2.208,3.592c0.561,1.551,0,0.924,0.264,1.517c-0.033,0,0.033,0.231,0.428,0.891l1.714,3.43l-0.263-1.582
		c0.494,0.691,0.89,1.516,1.153,1.879c0.264,0.396,0.33,0.396,0.132-0.496c0.132,0.66,0.626,1.781,1.286,3.101
		c0.329,0.659,0.692,1.385,1.121,2.108c0.429,0.728,0.89,1.451,1.352,2.176c0.461,0.728,0.923,1.451,1.352,2.109
		c0.461,0.66,0.89,1.287,1.286,1.848c0.758,1.121,1.352,1.979,1.516,2.34c0.824,0.857,1.616,1.748,2.374,2.736
		c0.396,0.494,0.758,0.99,1.154,1.519c0.428,0.526,0.857,1.055,1.286,1.614c-0.396-0.594-0.296-1.219,1.22,0.726
		c-0.659-0.065-0.033,0.892,0.923,2.078c0.957,1.151,2.176,2.569,2.637,3.524c-0.23-0.395-0.033-0.295,0.363,0.101
		c0.396,0.362,1.022,0.957,1.616,1.519c1.187,1.153,2.308,2.176,1.517,0.954c1.417,1.519-0.132,0.33,0.824,1.582
		c1.945,1.584,3.857,3.527,6,5.408c0.527,0.494,1.088,0.955,1.615,1.449c0.561,0.495,1.154,0.957,1.714,1.418
		c0.594,0.463,1.187,0.924,1.78,1.418c0.297,0.229,0.594,0.461,0.891,0.69c0.296,0.232,0.626,0.43,0.923,0.66
		c0.131,0-0.627-0.727,0.527-0.066c0.791,0.761,1.583,1.484,2.374,2.242c0.495,0.33,0.824,0.363,1.187,0.527
		c0.396,0.166,0.857,0.428,1.682,1.121c-0.23-0.23-0.561-0.561,0.132-0.131c4.912,3.428,10.319,6.295,15.89,8.834
		c1.417,0.594,2.802,1.188,4.22,1.814c0.692,0.328,1.417,0.561,2.142,0.854l2.144,0.823c1.417,0.562,2.868,1.021,4.319,1.519
		c0.725,0.229,1.45,0.494,2.143,0.726c0.725,0.199,1.451,0.428,2.176,0.627c-1.583-0.494-0.494-0.199,0.692,0.131
		c-0.791-0.23,0.033-0.066-0.099-0.131l2.44,0.725c0.824,0.197,1.648,0.396,2.473,0.594c0.461,0.066,1.78,0.396,3.066,0.66
		c1.286,0.23,2.539,0.461,2.769,0.494l-1.583-0.297c1.056,0.164,0.33,0.033-0.626-0.197c-0.231-0.068-0.494-0.1-0.726-0.166
		c-0.23-0.066-0.461-0.131-0.659-0.197c-0.396-0.1-0.627-0.197-0.561-0.197c-1.153-0.264-2.67-0.659-4.352-1.188
		c-0.824-0.264-1.714-0.561-2.637-0.857c-0.461-0.133-0.923-0.297-1.385-0.428c-0.231-0.065-0.461-0.133-0.692-0.197
		c-0.23-0.065-0.461-0.133-0.692-0.198c-0.792-0.33,0.692,0.198,0.296,0c-0.956-0.265-2.077-0.658-4.154-1.449l0.231,0.063
		c-0.725-0.264-1.385-0.526-2.044-0.791c-0.626-0.264-1.219-0.493-1.78-0.758c-0.56-0.229-1.12-0.461-1.648-0.692
		c-0.527-0.229-1.055-0.494-1.582-0.726c-1.055-0.494-2.11-1.021-3.297-1.582c-1.154-0.627-2.473-1.317-3.989-2.143l0.396,0.396
		c-1.318-0.693-1.549-0.924-2.143-1.32c-0.792-0.297,0.099,0.23,1.021,0.758c0.956,0.496,1.913,0.99,1.154,0.76
		c-0.824-0.561-3.1-1.912-5.308-3.166c-0.56-0.297-1.088-0.66-1.582-0.988c-0.495-0.33-0.989-0.627-1.418-0.924
		c-0.857-0.561-1.483-1.055-1.681-1.317c-1.879-1.318,0.428,0.594-1.483-0.726l-0.429-0.463l-0.56-0.197
		c-1.22-0.891-1.748-1.451-1.714-1.582c0.296,0.23,0.857,0.562,1.186,0.791c-0.362-0.328-0.857-0.66-1.352-1.021
		c-0.494-0.362-1.021-0.758-1.483-1.121c-0.99-0.726-1.847-1.317-2.11-1.549l1.682,1.416c-0.626-0.461-1.286-0.922-1.945-1.416
		c-0.659-0.496-1.286-1.058-1.945-1.582c-0.66-0.528-1.319-1.09-1.978-1.617c-0.33-0.264-0.659-0.562-0.989-0.854l-0.956-0.859
		c-0.627-0.561-1.286-1.152-1.913-1.713c-0.33-0.264-0.626-0.561-0.923-0.857c-0.297-0.295-0.593-0.594-0.923-0.856
		c-1.22-1.154-2.407-2.209-3.494-3.265l0.197,0.431c-1.681-1.582-2.307-2.275-2.901-3.033c-0.593-0.793-1.22-1.617-2.934-3.494
		l0.165,0.131c-0.396-0.329-0.824-0.758-1.22-1.219c-0.429-0.463-0.857-0.99-1.286-1.551c0.923,0.891-1.22-2.109,0-0.923
		c-0.428-0.463-0.758-0.823-1.021-1.155c-0.264-0.328-0.495-0.56-0.66-0.756c-0.33-0.396-0.527-0.562-0.692-0.693
		c-0.33-0.264-0.527-0.33-1.78-1.516l-0.23-0.793c-0.824-0.791-0.989-0.791-2.473-2.867c1.352,1.582-0.527-1.582,1.021,0.164
		c-0.296-0.595-0.593-1.154-0.89-1.647c-0.296-0.494-0.561-0.988-0.824-1.418c-0.527-0.855-1.055-1.582-1.549-2.24
		c-0.231-0.33-0.461-0.627-0.66-0.924c-0.198-0.298-0.363-0.595-0.527-0.89c-0.297-0.594-0.527-1.188-0.593-1.849
		c-1.912-1.715,1.78,4.252,0.989,3.134c0.099,0.264,0.033,0.327-0.099,0.229c-0.132-0.1-0.396-0.363-0.626-0.69
		c-0.495-0.693-1.154-1.718-1.517-2.474c-0.198-0.363-0.33-0.76-0.428-1.156c-0.066-0.196-0.1-0.428-0.165-0.657
		c-0.033-0.229-0.099-0.494-0.165-0.759c-0.231-1.057-0.594-2.405-1.517-4.284c0.165,0.396,0.264,0.36,0.429,0.756
		c-0.264-0.756-0.626-1.449-1.022-2.174c-0.396-0.728-0.758-1.519-0.989-2.474c-0.957-0.791-0.923-2.375-1.681-2.375l0.791,1.781
		l0.857,1.746c-0.264-0.492-0.561-0.955-0.89-1.416c-0.33-0.463-0.627-0.988-0.924-1.549c-0.296-0.562-0.626-1.154-0.923-1.848
		c-0.165-0.33-0.297-0.691-0.429-1.086c-0.066-0.199-0.131-0.398-0.197-0.597s-0.1-0.428-0.166-0.657
		c0.132,0.098,0.297,0.395,0.528,0.758c0.231,0.33,0.462,0.758,0.626,1.088c-0.099-0.527-0.33-0.99-0.527-1.484
		c-0.198-0.494-0.396-0.955-0.495-1.516c0.198,0,0.396,0.297,0.626,0.76c0.099,0.229,0.198,0.492,0.33,0.789
		s0.263,0.594,0.396,0.957c0.527,1.318,1.154,2.934,1.846,3.922c-0.165-1.152-2.11-3.988-0.956-3.164
		c-0.396-0.297-0.66-0.725-0.89-1.188c-0.099-0.23-0.231-0.492-0.297-0.758c-0.099-0.265-0.165-0.527-0.263-0.824
		c-0.33-1.154-0.66-2.439-1.484-3.691L34.563,196c-0.23-0.396-0.659-1.254-0.89-2.045l0.956,1.285
		c-0.56-1.055-0.758-2.143-0.923-3.23c-0.099-0.561-0.165-1.088-0.264-1.648c-0.099-0.526-0.197-1.088-0.395-1.612
		c0.132,0.56,0.23,0.987,0.296,1.351c0.066,0.33,0.132,0.594,0.132,0.76c0.033,0.363-0.034,0.428-0.1,0.395
		c-0.197-0.031-0.527-0.363-0.396,0.627c-0.56-1.352-0.758-2.242-0.857-2.934c-0.099-0.693-0.033-1.156,0.033-1.617
		c0.066-0.461,0.132-0.988,0.066-1.746c-0.033-0.396-0.066-0.857-0.132-1.385c-0.066-0.561-0.198-1.219-0.396-1.979
		c0.231,0.823,0.363,3.264-0.132,1.979c-0.132-1.219-0.263-2.836-0.165-3.627c-0.066-0.264-0.099-0.494-0.165-0.66
		c-0.033-0.197-0.066-0.361-0.099-0.493c-0.066-0.265-0.099-0.429-0.131-0.495c-0.066-0.164-0.132,0-0.166,0.264
		c-0.065,0.496-0.131,1.285-0.396,0.431c0.363-1.519-0.527-2.045-1.022-3.856l0.462-0.066c-0.066-0.594-0.099-1.088-0.132-1.451
		c-0.033-0.363-0.099-0.658-0.165-0.855c-0.132-0.396-0.264-0.529-0.396-0.66c-0.264-0.23-0.528-0.396-0.594-2.604l0.89,1.781
		l-0.428-2.242l0.594,0.43c-0.166-0.594-0.264-1.122-0.363-1.551c-0.066-0.461-0.132-0.856-0.132-1.253
		c-0.066-0.791-0.033-1.615-0.033-2.835c-0.165,0.297-0.396,0.231-0.593-0.197c-0.23-0.396-0.363-1.153-0.396-2.241
		c0.264-1.483,0.495,0.824,0.363-2.242c0.33,0.692,0.726,1.418,0.297,2.77c0.165,0.133,0.33,0.66,0.495,0.791
		c0.33-1.582,0-3.955,0-5.043c-0.033,0.43-0.033,0.922-0.099,1.188c-0.066-0.362-0.132-0.727-0.198-1.09l-0.132-1.087l-0.297-2.21
		c0.231-0.691,0.363-0.131,0.495,0.43c-0.033-0.891-0.23-1.517-0.264-2.836c0.396,0.363,0.857,0.297,0.989,2.145l-0.165-2.11
		c-0.066-0.692-0.033-1.385-0.066-2.108c0.198-0.264,0.692-2.11,0.792-1.55c0.099-0.561,0.132-1.219,0.132-1.912
		c0-0.33-0.034-0.692,0-1.055c0-0.362,0-0.725,0-1.121c0-1.517,0.033-3.165,0.396-4.648c-0.066-0.165-0.066-0.494-0.034-1.154
		c0.297-1.417,0.726-2.736,1.055-4.121c0.132-0.692,0.363-1.385,0.495-2.143c0.132-0.758,0.264-1.549,0.297-2.407l1.22-1.681
		c0.296-1.319-0.132-0.726-0.528-0.396c-0.363,0.363-0.725,0.495-0.23-1.714c0.626-3.132,0.989-0.956,1.516-1.945
		c0-0.396,0.033-0.89,0.033-1.418c0.033-0.527,0.132-1.121,0.231-1.748c0.23-1.22,0.66-2.604,1.45-3.857
		C36.278,118.691,35.915,119.35,35.685,120.24z M50.256,90.57c-0.132,0.297-0.33,0.758-0.527,1.187
		c-0.198,0.428-0.429,0.791-0.693,0.89c-0.065-0.495,0.033-0.824,0.231-1.121C49.498,91.229,49.86,90.965,50.256,90.57z
		 M85.927,54.965c-0.297,0.428-0.989,0.758-1.813,1.021C84.608,55.625,85.201,55.262,85.927,54.965z M221.816,57.734
		c-0.031,0-0.031-0.033-0.064-0.033C220.664,56.68,221.025,57.075,221.816,57.734z M224.159,59.746
		c0.263,0.131,0.296,0.099,0.229-0.033c-0.229-0.066-0.791-0.461-1.385-0.956C223.104,58.987,223.367,59.284,224.159,59.746z
		 M37.102,212.285c-0.066-0.197-0.132-0.396-0.165-0.594C37.663,212.846,37.399,212.549,37.102,212.285z"/>
	<path fill="#221A15" d="M81.509,58.756c-0.198,0.033-0.297-0.033-0.396-0.099C80.948,58.888,81.015,58.987,81.509,58.756z"/>
	<path fill="#221A15" d="M30.97,140.251c0,0.033,0,0.066-0.033,0.099c0.033,0.066,0.066,0.099,0.066,0.099
		C31.003,140.383,30.97,140.317,30.97,140.251z"/>
	<path fill="#221A15" d="M180.607,42.272c-0.592-0.23-0.89-0.396-1.088-0.56C179.455,41.844,179.686,42.009,180.607,42.272z"/>
	<path fill="#221A15" d="M236.752,70.229l-1.451-1.352c0.693,0.66,0.858,0.956,1.188,1.352
		C236.521,70.13,236.323,69.767,236.752,70.229z"/>
	<path fill="#221A15" d="M246.378,84.438c0.198,0.198,0.362,0.461,0.562,0.692l0.065-0.131
		C246.279,84.009,245.688,83.416,246.378,84.438z"/>
	<path fill="#221A15" d="M237.246,72.306c-0.064,0.165,0.165,0.429,0.495,0.792c0.329,0.363,0.792,0.824,1.284,1.318
		c-0.065-0.066-0.099-0.131-0.164-0.165c0.264,0,0.164-0.231-0.197-0.594c-0.165-0.197-0.396-0.396-0.627-0.626
		c-0.131-0.099-0.264-0.231-0.395-0.363C237.51,72.57,237.378,72.438,237.246,72.306z"/>
	<path fill="#221A15" d="M239.225,74.68c0.297,0.296,0.594,0.626,0.856,0.923C240.312,75.603,239.784,75.207,239.225,74.68z"/>
	<path fill="#221A15" d="M227.355,62.053c0.463,0.495,0.562-0.033,0.791,0.297C228.938,62.514,224.455,59.91,227.355,62.053z"/>
	<path fill="#221A15" d="M237.312,73.79l-0.065-0.594l-0.759-0.329C236.785,73.13,237.082,73.46,237.312,73.79z"/>
	<path fill="#221A15" d="M229.695,66.108l1.551,1.549c0.033-0.066,0.264,0.099,0.527,0.297
		C230.785,67.064,229.764,66.009,229.695,66.108z"/>
	<path fill="#221A15" d="M231.773,67.954c0.526,0.461,1.021,0.923,1.352,1.121C232.861,68.844,232.234,68.317,231.773,67.954z"/>
	<polygon fill="#221A15" points="235.137,71.746 234.74,71.218 233.652,70.13 	"/>
	<path fill="#221A15" d="M210.708,52.295c-0.692-0.363-1.419-0.692-2.144-1.055c-0.297,0,0.23,0.396,1.056,0.792
		c0.264,0.099,0.627,0.23,0.856,0.33C210.708,52.427,210.839,52.459,210.708,52.295z"/>
	<path fill="#221A15" d="M216.182,57.108c-0.496-0.428-0.463-0.527-0.693-0.857l-0.362,0.396L216.182,57.108z"/>
	<path fill="#221A15" d="M210.279,53.581c-0.065,0-0.297-0.099-0.562-0.198c-0.264-0.099-0.594-0.198-0.792-0.264
		c-0.427-0.132-0.527-0.099,0.792,0.594C209.982,53.68,212.061,54.8,210.279,53.581z"/>
	<polygon fill="#221A15" points="177.509,39.701 178.07,39.833 178.234,38.811 	"/>
	<path fill="#221A15" d="M146.257,39.108c1.384,0.099,1.55-0.099,1.681-0.264c0.066-0.099,0.132-0.165,0.33-0.198
		c0.197-0.033,0.527-0.066,1.153,0.033c0.33-0.132-0.197-0.231-0.692-0.264s-1.022-0.099-0.692-0.23
		C146.355,38.547,145.465,38.416,146.257,39.108z"/>
	<path fill="#221A15" d="M148.004,38.218c0.264-0.066,0.561-0.099,0.857-0.198C148.4,38.085,148.169,38.151,148.004,38.218z"/>
	<polygon fill="#221A15" points="122.487,278.219 124.268,278.516 123.114,278.318 	"/>
	<path fill="#221A15" d="M125.916,278.781l0.428,0.098l1.088,0.197C127.004,278.979,126.246,278.846,125.916,278.781z"/>
	<path fill="#221A15" d="M54.377,87.504l-0.066-0.231c-0.33,0.099-0.593,0.396-1.088,1.055
		C53.619,88.064,53.981,87.768,54.377,87.504z"/>
	<polygon fill="#221A15" points="41.52,107.548 41.685,107.186 40.762,107.581 	"/>
	<path fill="#221A15" d="M35.223,126.504c0.264-0.759,0.363-1.748,0.626-2.506C35.487,125.746,34.366,126.504,35.223,126.504z"/>
</g>
<polygon fill="none" points="218.555,168.934 232.07,168.934 225.312,127.526 "/>
<path fill="none" d="M262.398,187.23c0-0.033,0.035-0.066,0.035-0.101c-0.035,0.101-0.101,0.166-0.134,0.229
	c-0.131,0.23-0.264,0.461-0.396,0.66c-1.021,1.879-1.979,4.154-2.769,6.625c-0.065,0.199-0.134,0.396-0.198,0.594
	c0.561-1.088,1.056-2.209,1.549-3.297C261.346,189.967,261.973,188.416,262.398,187.23z"/>
<g opacity="0.3">
	<polygon fill="#010101" points="106.795,103.361 87.476,103.361 65.52,140.812 65.52,103.361 47.421,103.361 47.421,208.461 
		65.52,208.461 65.52,175.262 70.828,165.9 89.784,208.461 111.015,208.461 82.069,146.35 	"/>
	<path fill="#010101" d="M170.389,192.504c0.988,1.484,0.988,3.66,0.065,6.76c-0.56,1.879-1.285,3.658-1.978,5.273l0.726,3.924
		h17.67l19.056-104.968h-19.285l-8.968,56.243l-9.627-56.243h-19.286l-8.835,56.243l-9.626-56.243h-19.286l20.406,104.968h17.604
		l9.759-57.266l7.12,39.264c0.197-0.031,0.428-0.031,0.627-0.031C168.146,190.428,169.531,191.186,170.389,192.504z"/>
	<path fill="#010101" d="M252.279,193.264c0.527-1.682,1.152-3.363,1.945-5.209l-16.287-84.562H212.85l-20.438,104.968h18.924
		l4.417-24.133h19.021l4.285,24.133h10.551c0.033-1.715,0.197-3.561,0.494-5.639C250.564,199.691,251.323,196.361,252.279,193.264z
		 M218.555,168.934l6.758-41.375l6.758,41.375H218.555z"/>
</g>
<path opacity="0.3" fill="#010101" enable-background="new    " d="M287.391,211.494c-0.065-0.264-0.23-0.496-0.494-0.66
	c-0.265-0.164-0.561-0.23-0.857-0.164c-6.693,1.715-13.387,3.494-20.109,4.879c-2.605,0.527-8.045,2.309-9.824,0.891
	c-0.727-0.594-1.252-2.539-1.484-4.813c2.705-3.987,5.209-8.108,7.452-12.328c2.044-3.856,3.923-8.014,5.308-12.166
	c0.725-2.209,1.846-5.374,0.924-7.516c-0.363-0.857-1.121-1.286-2.045-1.222c-4.056,0.297-6.296,4.056-8.177,7.188
	c-1.285,2.67-2.405,5.272-3.263,8.01c-0.924,2.97-1.615,6.134-2.077,9.199c-0.396,2.703-0.626,5.569-0.429,8.373
	c-2.012,2.771-4.055,5.474-6.562,7.813c-2.011,1.847-4.056,2.965-4.944,2.701c-0.66-0.197-1.188-0.988-1.121-1.516
	c0.065-0.758,0.791-1.715,2.177-2.834c1.384-1.121,2.802-2.078,4.317-2.869c0.264-0.166,0.494-0.396,0.594-0.66
	c0.132-0.297,0.132-0.561,0.033-0.824c-0.1-0.263-0.297-0.428-0.561-0.526c-0.266-0.101-0.594-0.033-0.891,0.133
	c-0.527,0.265-1.09,0.592-1.748,0.99c-0.527,0.327-1.188,0.756-1.979,1.315c-0.099-0.229-0.297-0.395-0.561-0.461
	c-0.297-0.066-0.594-0.031-0.856,0.133c-0.957,0.525-2.11,1.187-3.493,1.91c-2.178,1.154-4.453,2.176-6.66,3.133
	c-2.178,0.957-4.517,2.013-6.924,2.406c-0.033,0-0.033,0-0.064,0c-1.881,0.297-3.529-0.066-4.945-1.121
	c0.164-0.428,0.229-0.824,0.229-1.186c0-0.199,0-0.363-0.031-0.527c-0.033-0.166-0.066-0.297-0.133-0.461
	c-0.064-0.166-0.164-0.266-0.264-0.363c-0.133-0.1-0.23-0.166-0.361-0.231c-0.133-0.063-0.265-0.131-0.43-0.164
	c-0.166-0.063-0.33-0.063-0.527-0.033c-0.758,0.033-1.317,0.363-1.682,0.925c-0.396,0.657-0.361,1.418,0.131,2.241
	c0.066,0.131,0.166,0.297,0.299,0.494c-0.065,0.131-0.166,0.229-0.231,0.33c-0.791,1.053-1.549,1.614-2.208,1.713
	c-0.561,0.101-0.923,0.065-1.089-0.063c-0.165-0.133-0.229-0.627-0.229-1.519c0-0.101,0-0.131,0-0.229
	c0-0.197,0.064-0.429,0.164-0.693c0.1-0.031,0.166-0.098,0.264-0.131c0.33-0.164,0.527-0.428,0.627-0.725
	c0.066-0.232,0.1-0.461,0.066-0.693c0.229-0.297,0.428-0.461,0.592-0.527c0.266,0,0.562-0.131,0.793-0.328
	c0.264-0.232,0.396-0.496,0.461-0.76c0.066-0.33,0.033-0.594-0.166-0.824c-0.164-0.197-0.428-0.33-0.756-0.363
	c-0.66-0.033-1.386,0.363-2.078,1.056c-0.461,0.463-0.924,1.057-1.317,1.748c-0.759,0.43-1.583,0.891-2.539,1.418
	c-2.144,1.188-4.417,2.241-6.66,3.196c-2.209,0.957-4.516,2.013-6.922,2.408c-0.034,0-0.034,0-0.065,0
	c-1.879,0.264-3.527-0.133-4.945-1.188c0.165-0.43,0.23-0.824,0.23-1.154c0-0.197,0-0.363-0.033-0.527
	c-0.032-0.164-0.065-0.297-0.131-0.461c-0.066-0.164-0.166-0.266-0.265-0.396c-0.132-0.101-0.231-0.197-0.362-0.265
	c-0.133-0.065-0.265-0.131-0.43-0.164c-0.164-0.065-0.33-0.065-0.527-0.032c-0.759,0.032-1.317,0.33-1.682,0.891
	c-0.395,0.658-0.361,1.416,0.132,2.24c0.065,0.166,0.165,0.33,0.298,0.496c-0.065,0.131-0.164,0.229-0.231,0.328
	c-0.79,1.022-1.55,1.581-2.208,1.682c-0.561,0.065-0.924,0.033-1.088-0.101c-0.166-0.131-0.23-0.657-0.23-1.516
	c0-0.1,0-0.133,0-0.229c0-0.229,0.064-0.494,0.23-0.824c0.264-0.133,0.461-0.297,0.625-0.562c0.134-0.229,0.166-0.461,0.134-0.66
	c0.032-0.03,0.065-0.063,0.065-0.098c0.264-0.297,0.461-0.494,0.625-0.561c0.266,0,0.562-0.1,0.793-0.33
	c0.265-0.199,0.396-0.494,0.461-0.758c0.065-0.33,0.033-0.594-0.164-0.824c-0.166-0.23-0.43-0.363-0.758-0.363
	c-0.66-0.066-1.387,0.33-2.078,0.99c-0.428,0.395-0.856,0.922-1.219,1.516c-1.287,0.527-2.869,1.154-4.717,1.879
	c-3.889,1.517-7.879,2.836-11.834,4.088c-4.715,1.484-9.527,2.869-14.44,3.761c0.429-1.584,0.891-3.101,1.319-4.617
	c0.133-0.101,0.23-0.196,0.297-0.297c1.318-1.942,2.604-3.924,3.856-5.899c1.647-2.638,3.265-5.343,4.813-8.013
	c1.682-2.899,3.362-5.899,4.812-8.899c1.154-2.406,2.243-4.879,3.033-7.449c0.693-2.342,0.759-3.924,0.23-4.748
	c-0.527-0.793-1.384-1.121-2.57-0.891c-1.353,0.264-2.869,1.745-4.518,4.317c-2.011,3.166-3.561,6.66-4.945,10.121
	c-1.682,4.221-3.197,8.539-4.615,12.823c-1.483,4.582-2.834,9.265-4.12,13.945c-2.242,0.295-4.154,0.461-5.802,0.494
	c-0.132,0.033-0.165,0.033-0.296,0.066c-0.989,0.297-1.583,0.824-1.748,1.615c-0.132,0.758,0.264,1.647,1.121,2.506
	c0.89,0.856,2.407,2.043,4.55,3.461c-1.187,4.779-3.231,10.254-3.033,15c0.033,0.43,0.165,0.824,0.329,1.121
	c0.165,0.33,0.396,0.527,0.66,0.658c0.263,0.133,0.527,0.166,0.791,0.166c0.033,0,0.033,0,0.066,0c2.341-0.726,3.89-2.9,5.209-4.812
	c1.484-2.209,3.133-4.682,3.691-7.354c0.166-0.295,0.232-0.56,0.232-0.855c0-0.43-0.232-0.891-0.693-1.385
	c-0.461-0.496-1.021-0.988-1.682-1.484c-0.658-0.494-1.681-1.186-3.065-2.076c0.428-1.615,0.89-3.33,1.384-5.143
	c4.978-0.859,9.856-2.209,14.637-3.693c4.121-1.285,8.242-2.637,12.298-4.221c1.418-0.559,2.67-1.053,3.791-1.514
	c0,0.031,0,0.063,0,0.098c0,0.1,0,0.131,0,0.23c0,1.483,0.297,2.473,0.891,3c0.593,0.526,1.482,0.692,2.638,0.561
	c1.384-0.197,2.735-1.121,3.989-2.836c1.779,1.254,3.855,1.715,6.164,1.385c0.033,0,0.033,0,0.066,0
	c2.537-0.428,4.979-1.449,7.284-2.473c2.308-1.021,4.649-2.076,6.856-3.262c0.396-0.199,0.759-0.396,1.121-0.597
	c0,1.451,0.297,2.44,0.892,2.935c0.592,0.496,1.481,0.66,2.638,0.463c1.385-0.23,2.735-1.187,3.987-2.9
	c1.78,1.219,3.856,1.648,6.166,1.285c0.033,0,0.033,0,0.065,0c2.539-0.461,4.978-1.484,7.285-2.506
	c2.309-1.021,4.648-2.043,6.857-3.197c0.428-0.23,0.855-0.428,1.252-0.66c-0.593,0.824-0.955,1.648-1.055,2.439
	c-0.166,1.418,0.593,2.639,2.275,3.496c0.031,0.033,0.064,0.065,0.131,0.098c0.065,0,0.099,0.033,0.164,0.033
	c0.396,0.066,0.824,0.066,1.254,0c4.614-0.691,8.24-5.736,10.944-9.1c0.165-0.164,0.33-0.361,0.461-0.595
	c0.363,1.552,0.857,2.804,1.55,3.693c0.627,0.79,2.242,1.12,4.779,0.924c3.133-0.231,6.23-0.856,9.266-1.582
	c3.23-0.761,6.494-1.552,9.726-2.342c2.868-0.728,5.703-1.416,8.571-2.144c0.264-0.033,0.494-0.197,0.658-0.494
	C287.391,212.055,287.456,211.789,287.391,211.494z M160.729,202.691c1.22-2.67,2.571-6.627,5.571-7.912
	c0.065,0,0.132,0,0.166-0.033c0.099,0,0.132,0,0.229-0.031c0.429,0.361,0.23,1.746-0.659,4.053c-1.254,3.297-2.867,6.496-4.55,9.594
	c-2.406,4.451-4.979,8.804-7.648,13.121C155.883,215.186,157.993,208.725,160.729,202.691z M142.433,236.516
	c1.384,0,3-0.131,4.78-0.395c-0.264,1.088-0.593,2.275-0.89,3.561C144.147,238.197,142.828,237.143,142.433,236.516z
	 M151.234,245.879c0,0.197,0,0.297,0,0.494c0,0.891-0.792,2.604-2.406,5.176c-1.615,2.572-2.934,4.188-3.923,4.881
	c0.329-4.453,1.681-8.902,2.736-13.223C149.586,244.494,150.773,245.385,151.234,245.879z M255.182,201.109
	c0.428-2.506,1.12-5.109,1.879-7.519c0.758-2.373,1.779-4.879,3-7.088c1.385-2.274,2.967-5.505,5.869-5.836c0.031,0,0.098,0,0.163,0
	c0.033,0,0.065,0,0.132,0c0.133,0.231,0.197,0.562,0.23,1.022s-0.1,1.252-0.396,2.373s-0.69,2.342-1.121,3.66
	c-0.461,1.318-1.119,2.967-2.01,4.912c-0.924,2.078-1.945,4.154-3.033,6.164c-1.715,3.166-3.461,6.266-5.375,9.297
	C254.521,205.756,254.785,203.352,255.182,201.109z"/>
<path fill="#F05F41" stroke="#FFFFFF" stroke-miterlimit="10" d="M67.899,228.915l-12.015,6.678l-2.049-3.688
	c-0.956-1.722-1.719-2.731-2.288-3.032s-1.212-0.251-1.93,0.147c-0.779,0.433-1.19,1.077-1.237,1.934
	c-0.046,0.859,0.29,1.934,1.007,3.226c0.923,1.659,1.842,2.786,2.759,3.377c0.896,0.601,2.678,0.938,5.346,1.01
	c7.659,0.218,12.845,1.007,15.559,2.368c2.713,1.36,5.425,4.479,8.135,9.354c1.97,3.544,3.007,6.387,3.11,8.527
	c0.104,2.142-0.717,4.44-2.461,6.898c-1.745,2.458-4.195,4.563-7.35,6.316c-3.462,1.925-6.782,2.91-9.958,2.96
	s-5.708-0.729-7.592-2.336c-1.885-1.607-3.864-4.275-5.936-8.003l-1.81-3.258l12.015-6.677l3.364,6.053
	c1.036,1.864,1.871,2.97,2.505,3.314c0.634,0.344,1.381,0.278,2.242-0.2c0.86-0.479,1.312-1.172,1.357-2.082
	c0.043-0.909-0.304-2.029-1.044-3.361c-1.628-2.93-3.092-4.623-4.392-5.081c-1.32-0.445-4.175-0.829-8.564-1.152
	c-4.4-0.343-7.39-0.705-8.97-1.088c-1.58-0.382-3.186-1.233-4.817-2.552c-1.632-1.318-3.181-3.3-4.65-5.942
	c-2.118-3.812-3.179-6.867-3.186-9.17s0.801-4.555,2.42-6.755c1.619-2.2,3.966-4.154,7.038-5.861
	c3.36-1.868,6.525-2.916,9.495-3.145c2.969-0.229,5.296,0.267,6.981,1.488c1.685,1.224,3.625,3.812,5.823,7.765L67.899,228.915z"/>
<path fill="#F05F41" stroke="#FFFFFF" stroke-miterlimit="10" d="M87.026,198.577l35.047,45.64l-13.222,7.349l-5.664-8.558
	l-4.627,2.572l4.191,9.375l-13.375,7.433l-21.049-53.419L87.026,198.577z M97.948,234.378c-3.787-5.271-8.314-11.872-13.583-19.802
	c3.977,10.26,7.02,17.685,9.13,22.276L97.948,234.378z"/>
<path fill="#F05F41" stroke="#FFFFFF" stroke-miterlimit="10" d="M96.622,193.245l12.907-7.173c4.076-2.266,7.341-3.664,9.794-4.196
	c2.452-0.533,4.862-0.189,7.227,1.027c2.366,1.217,4.744,3.975,7.132,8.273c1.616,2.908,2.286,5.188,2.012,6.842
	c-0.274,1.653-1.583,3.531-3.925,5.639c3.367-0.986,6.019-0.992,7.956-0.016c1.937,0.977,3.805,3.083,5.605,6.322l2.563,4.612
	c1.868,3.361,2.869,6.065,2.999,8.111c0.133,2.048-0.477,3.834-1.826,5.362c-1.35,1.528-4.626,3.737-9.83,6.63l-14.966,8.317
	L96.622,193.245z M114.29,194.567l6.148,11.062c0.542-0.328,0.966-0.576,1.274-0.748c1.27-0.705,1.905-1.468,1.907-2.286
	c0.001-0.818-0.818-2.702-2.458-5.652c-0.865-1.558-1.615-2.568-2.249-3.033c-0.635-0.466-1.227-0.652-1.779-0.561
	C116.581,193.441,115.633,193.848,114.29,194.567z M124.741,213.374l7.736,13.921c1.79-1.075,2.792-2.008,3.01-2.799
	c0.217-0.792-0.232-2.19-1.348-4.198l-2.579-4.641c-1.184-2.13-2.127-3.295-2.828-3.496
	C128.032,211.961,126.701,212.366,124.741,213.374z"/>
<path fill="#F05F41" stroke="#FFFFFF" stroke-miterlimit="10" d="M152.771,160.795l13.989,59.836l-9.403,5.225l-13.895-59.888
	L152.771,160.795z"/>
<path fill="#F05F41" stroke="#FFFFFF" stroke-miterlimit="10" d="M156.269,160.098l9.68-5.379
	c6.249-3.473,10.634-5.535,13.154-6.185c2.521-0.65,4.72-0.639,6.596,0.034c1.876,0.674,3.403,1.735,4.585,3.184
	c1.181,1.449,3.08,4.53,5.698,9.242l9.683,17.423c2.482,4.467,3.932,7.568,4.349,9.309c0.417,1.739,0.339,3.324-0.233,4.754
	c-0.572,1.432-1.533,2.742-2.881,3.935c-1.349,1.191-3.57,2.647-6.663,4.366l-16.318,9.069L156.269,160.098z M173.936,161.42
	l18.188,32.728c1.864-1.036,2.804-2.048,2.818-3.034c0.015-0.987-0.9-3.14-2.745-6.459l-10.741-19.329
	c-1.252-2.254-2.126-3.658-2.623-4.213c-0.497-0.556-1.083-0.84-1.76-0.852C176.396,160.248,175.35,160.634,173.936,161.42z"/>
<path fill="#F05F41" stroke="#FFFFFF" stroke-miterlimit="10" d="M236.806,153.469c2.778,4.998,4.627,8.604,5.548,10.813
	c0.92,2.211,1.238,4.521,0.955,6.93c-0.283,2.41-1.224,4.662-2.822,6.757c-1.597,2.095-3.799,3.922-6.606,5.481
	c-2.663,1.48-5.297,2.373-7.9,2.682c-2.604,0.308-5.035-0.051-7.294-1.074c-2.259-1.024-4.08-2.492-5.465-4.404
	c-1.384-1.912-3.499-5.429-6.346-10.551l-4.729-8.512c-2.778-4.999-4.627-8.604-5.547-10.814c-0.921-2.21-1.239-4.52-0.956-6.929
	s1.224-4.662,2.822-6.756c1.597-2.095,3.799-3.922,6.606-5.482c2.663-1.479,5.297-2.373,7.9-2.681
	c2.604-0.308,5.036,0.05,7.294,1.074c2.259,1.024,4.08,2.492,5.465,4.405c1.384,1.912,3.499,5.428,6.346,10.55L236.806,153.469z
	 M214.784,144.31c-1.287-2.314-2.238-3.724-2.852-4.227c-0.615-0.503-1.322-0.533-2.121-0.088c-0.677,0.375-1.048,0.925-1.116,1.646
	c-0.068,0.722,0.609,2.362,2.032,4.924l12.911,23.232c1.604,2.888,2.714,4.604,3.324,5.15c0.611,0.544,1.348,0.578,2.207,0.101
	c0.882-0.489,1.229-1.192,1.042-2.107c-0.188-0.915-1.094-2.838-2.723-5.768L214.784,144.31z"/>
<path fill="#F05F41" stroke="#FFFFFF" stroke-miterlimit="10" d="M265.359,99.472l27.649,49.751l-11.31,6.285l-18.681-33.58
	l14.164,36.089l-8.021,4.458l-22.987-30.182l18.224,32.828l-11.309,6.284l-27.648-49.751l16.74-9.304
	c2.158,2.716,4.629,5.957,7.413,9.723l8.87,11.636l-9.938-24.884L265.359,99.472z"/>
<path fill="#F05F41" stroke="#FFFFFF" stroke-miterlimit="10" d="M4.299,134.866l15.538-8.848c4.202-2.393,7.621-3.903,10.257-4.53
	c2.636-0.627,4.876-0.641,6.722-0.042c1.845,0.6,3.475,1.669,4.886,3.212c1.412,1.542,3.175,4.169,5.29,7.882l2.943,5.167
	c2.156,3.789,3.337,6.771,3.543,8.952c0.206,2.18-0.472,4.327-2.031,6.445c-1.561,2.118-4.026,4.137-7.398,6.057l-4.141,2.357
	l13.605,23.895l-15.428,8.785L4.299,134.866z M25.508,136.232l8.598,15.099c0.454-0.225,0.839-0.429,1.156-0.609
	c1.417-0.808,2.203-1.716,2.356-2.726c0.152-1.009-0.396-2.612-1.648-4.812l-2.775-4.875c-1.154-2.027-2.224-3.165-3.206-3.415
	C29.005,134.647,27.511,135.092,25.508,136.232z"/>
<path fill="#F05F41" stroke="#FFFFFF" stroke-miterlimit="10" d="M41.973,113.414l10.92-6.219c7.281-4.146,12.37-6.672,15.268-7.578
	c2.898-0.906,5.815-0.667,8.755,0.717c2.939,1.384,5.849,4.604,8.729,9.661c2.629,4.618,3.821,8.048,3.578,10.29
	c-0.244,2.243-1.96,4.482-5.152,6.719c3.486-0.982,6.116-1.136,7.89-0.464c1.773,0.672,3.091,1.466,3.953,2.383
	c0.861,0.916,2.657,3.77,5.383,8.558l8.911,15.649l-14.329,8.158L84.65,141.573c-1.808-3.176-3.179-5-4.11-5.472
	c-0.932-0.472-2.461-0.103-4.587,1.107l15.233,26.752l-15.429,8.786L41.973,113.414z M63.182,114.78l7.513,13.193
	c1.734-0.987,2.814-1.918,3.238-2.791c0.426-0.874-0.106-2.616-1.595-5.231l-1.857-3.262c-1.071-1.881-2.11-2.924-3.115-3.127
	C66.359,113.358,64.965,113.764,63.182,114.78z"/>
<path fill="#F05F41" stroke="#FFFFFF" stroke-miterlimit="10" d="M137.433,105.063c3.395,5.961,5.659,10.263,6.789,12.901
	c1.131,2.64,1.542,5.407,1.231,8.301c-0.309,2.894-1.408,5.607-3.298,8.139c-1.892,2.533-4.511,4.752-7.857,6.658
	c-3.177,1.808-6.325,2.914-9.445,3.315s-6.04,0.003-8.762-1.198c-2.722-1.2-4.926-2.938-6.609-5.215
	c-1.685-2.276-4.267-6.468-7.745-12.577l-5.78-10.151c-3.394-5.961-5.657-10.262-6.789-12.902c-1.13-2.64-1.542-5.406-1.231-8.3
	c0.31-2.895,1.409-5.607,3.3-8.14c1.89-2.533,4.509-4.752,7.857-6.658c3.175-1.809,6.323-2.914,9.443-3.315
	c3.12-0.401,6.042-0.001,8.763,1.198c2.722,1.2,4.925,2.939,6.609,5.215c1.684,2.276,4.265,6.469,7.743,12.577L137.433,105.063z
	 M110.903,94.352c-1.572-2.76-2.73-4.439-3.474-5.034c-0.744-0.597-1.592-0.623-2.544-0.08c-0.806,0.459-1.246,1.122-1.318,1.988
	s0.761,2.827,2.499,5.881l15.777,27.706c1.962,3.445,3.312,5.491,4.052,6.137c0.741,0.646,1.623,0.677,2.649,0.093
	c1.052-0.598,1.458-1.444,1.224-2.54c-0.236-1.096-1.348-3.39-3.338-6.884L110.903,94.352z"/>
<path fill="#F05F41" stroke="#FFFFFF" stroke-miterlimit="10" d="M171.009,39.937l33.785,59.333l-13.486,7.679L168.48,66.903
	l17.439,43.113l-9.563,5.446l-27.95-35.915l22.27,39.15l-13.486,7.679l-33.786-59.333l19.965-11.368
	c2.623,3.231,5.627,7.087,9.014,11.571l10.784,13.844l-12.231-29.725L171.009,39.937z"/>
<path fill="#F05F41" stroke="#FFFFFF" stroke-miterlimit="10" d="M232.24,51.076c3.394,5.961,5.658,10.263,6.789,12.901
	c1.132,2.641,1.542,5.407,1.233,8.301c-0.312,2.894-1.41,5.607-3.301,8.14c-1.892,2.532-4.51,4.751-7.857,6.657
	c-3.174,1.809-6.324,2.914-9.443,3.315c-3.118,0.402-6.04,0.003-8.762-1.197s-4.926-2.938-6.609-5.215
	c-1.686-2.275-4.268-6.468-7.744-12.577l-5.78-10.151c-3.394-5.96-5.658-10.262-6.787-12.901c-1.131-2.64-1.544-5.407-1.235-8.301
	c0.312-2.894,1.41-5.607,3.302-8.139c1.889-2.532,4.506-4.752,7.856-6.658c3.174-1.808,6.322-2.913,9.443-3.315
	c3.121-0.401,6.041-0.002,8.763,1.198c2.721,1.201,4.925,2.939,6.608,5.215c1.686,2.276,4.268,6.469,7.744,12.577L232.24,51.076z
	 M205.71,40.365c-1.572-2.761-2.729-4.439-3.473-5.035c-0.744-0.595-1.592-0.622-2.547-0.08c-0.806,0.46-1.246,1.123-1.317,1.988
	c-0.072,0.868,0.761,2.828,2.499,5.881l15.776,27.706c1.963,3.445,3.313,5.49,4.055,6.137c0.737,0.647,1.621,0.677,2.647,0.093
	c1.05-0.598,1.46-1.444,1.223-2.541c-0.235-1.095-1.347-3.389-3.337-6.884L205.71,40.365z"/>
</svg>
